<svg width="18" height="18" viewBox="0 0 18 18" fill="none" xmlns="http://www.w3.org/2000/svg">
<path d="M9 15.75C12.7279 15.75 15.75 12.7279 15.75 9C15.75 5.27208 12.7279 2.25 9 2.25C5.27208 2.25 2.25 5.27208 2.25 9C2.25 12.7279 5.27208 15.75 9 15.75Z" stroke="#3D3331" stroke-width="1.125" stroke-linecap="round" stroke-linejoin="round"/>
<path d="M6.46875 9.84375C6.93474 9.84375 7.3125 9.46599 7.3125 9C7.3125 8.53401 6.93474 8.15625 6.46875 8.15625C6.00276 8.15625 5.625 8.53401 5.625 9C5.625 9.46599 6.00276 9.84375 6.46875 9.84375Z" fill="#3D3331"/>
<path d="M11.5312 9.84375C11.9972 9.84375 12.375 9.46599 12.375 9C12.375 8.53401 11.9972 8.15625 11.5312 8.15625C11.0653 8.15625 10.6875 8.53401 10.6875 9C10.6875 9.46599 11.0653 9.84375 11.5312 9.84375Z" fill="#3D3331"/>
<path d="M10.8633 11.8125C10.3111 12.1792 9.6629 12.3749 9 12.3749C8.3371 12.3749 7.68893 12.1792 7.13672 11.8125" stroke="#3D3331" stroke-width="1.125" stroke-linecap="round" stroke-linejoin="round"/>
<path d="M9 2.25C7.875 3.65625 7.875 5.0625 7.875 5.0625C7.875 5.36087 7.99353 5.64702 8.20451 5.85799C8.41548 6.06897 8.70163 6.1875 9 6.1875C9.29837 6.1875 9.58452 6.06897 9.79549 5.85799C10.0065 5.64702 10.125 5.36087 10.125 5.0625" stroke="#3D3331" stroke-width="1.125" stroke-linecap="round" stroke-linejoin="round"/>
</svg>
