<svg width="83" height="96" viewBox="0 0 83 96" fill="none" xmlns="http://www.w3.org/2000/svg">
<path d="M23.8566 17.5967H40.8411C44.9746 17.5967 50.4163 17.5967 53.2362 19.3018C54.9397 20.2943 56.3479 21.7231 57.3158 23.4411C58.2838 25.1592 58.7764 27.1042 58.743 29.0761C58.743 34.0555 56.124 37.7888 51.795 39.5563V39.6893C57.5678 40.8677 60.7134 45.1928 60.7134 50.9597C60.7134 57.837 55.7928 64.3912 46.4809 64.3912H23.8566V17.5967ZM30.0826 37.7127H42.551C49.6292 37.7127 52.517 35.1579 52.517 30.2408C52.517 23.7545 47.9302 22.8395 42.551 22.8395H30.0826V37.7127ZM30.0826 59.1375H45.6966C51.0704 59.1375 54.4847 55.8604 54.4847 50.7533C54.4847 44.6579 49.5641 42.9529 44.3151 42.9529H30.0826V59.1375Z" fill="#3D3331"/>
<path d="M76.6422 40.9978C76.6422 60.6496 60.6971 76.5817 41.0229 76.5817C36.3258 76.6228 31.667 75.7327 27.3156 73.9629C22.9642 72.1931 19.0062 69.5787 15.6702 66.2704C12.3343 62.9622 9.68633 59.0257 7.87927 54.6883C6.07221 50.3508 5.14183 45.6983 5.14183 40.9992C5.14183 36.3001 6.07221 31.6475 7.87927 27.31C9.68633 22.9726 12.3343 19.0361 15.6702 15.7279C19.0062 12.4196 22.9642 9.80519 27.3156 8.0354C31.667 6.26561 36.3258 5.37555 41.0229 5.4166C60.6971 5.4166 76.6422 21.346 76.6422 40.9842V40.9978ZM41.0229 0C18.3687 0 0 18.3513 0 40.9978C0 63.6443 18.3687 81.9956 41.0229 81.9956C63.6771 81.9956 82.0513 63.6416 82.0513 40.9978C82.0513 18.354 63.6826 0 41.0229 0Z" fill="#3D3331"/>
<path d="M0.0841064 90.6211H81.9671V95.9997H0.0841064V90.6211Z" fill="#3D3331"/>
<path d="M79.7254 88.4389C79.3315 88.4383 78.9466 88.321 78.6193 88.1017C78.2921 87.8824 78.0372 87.571 77.8868 87.2068C77.7365 86.8426 77.6974 86.4419 77.7746 86.0555C77.8517 85.6691 78.0417 85.3143 78.3204 85.0359C78.5991 84.7574 78.9541 84.5679 79.3404 84.4912C79.7268 84.4145 80.1272 84.4542 80.4911 84.6051C80.8549 84.756 81.1659 85.0114 81.3847 85.3391C81.6034 85.6668 81.7202 86.052 81.7202 86.446C81.7293 86.7104 81.6839 86.9738 81.5869 87.2199C81.4898 87.466 81.3431 87.6895 81.156 87.8764C80.9689 88.0634 80.7453 88.2098 80.4992 88.3065C80.2531 88.4033 79.9896 88.4483 79.7254 88.4389ZM79.7254 84.9093C79.3397 84.9375 78.9791 85.1106 78.7158 85.3939C78.4525 85.6772 78.3062 86.0497 78.3062 86.4365C78.3062 86.8233 78.4525 87.1958 78.7158 87.4791C78.9791 87.7624 79.3397 87.9355 79.7254 87.9637C80.1117 87.9355 80.473 87.7621 80.7368 87.4783C81.0005 87.1944 81.1471 86.8213 81.1471 86.4338C81.1471 86.0463 81.0005 85.6731 80.7368 85.3893C80.473 85.1055 80.1117 84.932 79.7254 84.9038V84.9093ZM79.3915 87.5049H78.9356V85.3627H79.7335C80.2763 85.3627 80.6129 85.5202 80.6129 86.0089C80.6211 86.0806 80.6138 86.1533 80.5914 86.222C80.569 86.2906 80.5321 86.3536 80.4831 86.4067C80.4342 86.4598 80.3744 86.5017 80.3078 86.5296C80.2412 86.5574 80.1693 86.5706 80.0972 86.5682L80.64 87.5049H80.0972L79.6087 86.6116H79.3915V87.5049ZM79.7986 86.2424C80.0022 86.2424 80.1243 86.1989 80.1243 85.9709C80.1243 85.7428 79.8882 85.7346 79.7145 85.7346H79.3915V86.2505L79.7986 86.2424Z" fill="#3D3331"/>
</svg>
