<svg width="18" height="18" viewBox="0 0 18 18" fill="none" xmlns="http://www.w3.org/2000/svg">
<path d="M14.6814 15.1875H3.3189C3.18049 15.1868 3.04706 15.1358 2.94353 15.0439C2.84001 14.9521 2.77349 14.8256 2.7564 14.6883L1.75797 5.68828C1.74909 5.60986 1.75681 5.53046 1.78063 5.45522C1.80444 5.37998 1.84383 5.3106 1.89622 5.25158C1.94861 5.19256 2.01283 5.14522 2.08471 5.11265C2.15659 5.08007 2.23452 5.06299 2.31344 5.0625H15.6869C15.7658 5.06299 15.8437 5.08007 15.9156 5.11265C15.9875 5.14522 16.0517 5.19256 16.1041 5.25158C16.1565 5.3106 16.1959 5.37998 16.2197 5.45522C16.2435 5.53046 16.2512 5.60986 16.2423 5.68828L15.2439 14.6883C15.2268 14.8256 15.1603 14.9521 15.0568 15.0439C14.9533 15.1358 14.8198 15.1868 14.6814 15.1875V15.1875Z" stroke="#3D3331" stroke-width="1.125" stroke-linecap="round" stroke-linejoin="round"/>
<path d="M6.1875 5.0625C6.1875 4.31658 6.48382 3.60121 7.01126 3.07376C7.53871 2.54632 8.25408 2.25 9 2.25C9.74592 2.25 10.4613 2.54632 10.9887 3.07376C11.5162 3.60121 11.8125 4.31658 11.8125 5.0625" stroke="#3D3331" stroke-width="1.125" stroke-linecap="round" stroke-linejoin="round"/>
</svg>
