<svg width="17" height="17" viewBox="0 0 17 17" fill="none" xmlns="http://www.w3.org/2000/svg">
<path d="M8.5 1.59375C7.13408 1.59375 5.79882 1.99879 4.6631 2.75766C3.52737 3.51653 2.64218 4.59514 2.11946 5.85709C1.59674 7.11904 1.45998 8.50766 1.72645 9.84734C1.99293 11.187 2.65069 12.4176 3.61655 13.3835C4.5824 14.3493 5.81298 15.0071 7.15266 15.2735C8.49234 15.54 9.88096 15.4033 11.1429 14.8805C12.4049 14.3578 13.4835 13.4726 14.2423 12.3369C15.0012 11.2012 15.4063 9.86593 15.4063 8.5C15.4027 6.66943 14.674 4.91483 13.3796 3.62042C12.0852 2.32601 10.3306 1.59726 8.5 1.59375ZM11.7871 7.29141L7.89571 11.0102C7.7951 11.1048 7.66195 11.1571 7.52383 11.1562C7.45632 11.1572 7.38929 11.1448 7.3266 11.1197C7.26392 11.0947 7.20682 11.0574 7.1586 11.0102L5.21289 9.15078C5.15893 9.1037 5.11504 9.04619 5.08386 8.98171C5.05269 8.91723 5.03488 8.84712 5.03149 8.77558C5.02811 8.70404 5.03922 8.63255 5.06417 8.56542C5.08911 8.49829 5.12738 8.43689 5.17666 8.38492C5.22594 8.33295 5.28522 8.29149 5.35093 8.26301C5.41665 8.23454 5.48744 8.21965 5.55906 8.21923C5.63068 8.21881 5.70164 8.23288 5.76768 8.26059C5.83372 8.2883 5.89348 8.32908 5.94336 8.38047L7.52383 9.88789L11.0566 6.52109C11.1599 6.43097 11.2941 6.38427 11.431 6.39075C11.5679 6.39723 11.6971 6.45639 11.7914 6.55586C11.8857 6.65533 11.9379 6.78741 11.9371 6.92449C11.9363 7.06157 11.8826 7.19304 11.7871 7.29141Z" fill="#889CC7"/>
</svg>
