<svg width="24" height="24" viewBox="0 0 24 24" fill="none" xmlns="http://www.w3.org/2000/svg">
<path d="M21.7501 11.9997C21.7453 14.3818 20.871 16.6802 19.2916 18.4633C17.7121 20.2465 15.536 21.3918 13.172 21.6841C13.1192 21.6893 13.066 21.6835 13.0155 21.6671C12.9651 21.6507 12.9186 21.6241 12.879 21.5888C12.8394 21.5536 12.8075 21.5106 12.7853 21.4624C12.7631 21.4143 12.7511 21.3621 12.7501 21.3091V14.2497H15.0001C15.1027 14.2499 15.2042 14.2291 15.2984 14.1885C15.3926 14.1479 15.4774 14.0884 15.5477 14.0137C15.618 13.9391 15.6722 13.8507 15.707 13.7543C15.7419 13.6578 15.7565 13.5552 15.7501 13.4528C15.7335 13.2589 15.644 13.0785 15.4995 12.948C15.3551 12.8175 15.1666 12.7466 14.972 12.7497H12.7501V10.4997C12.7501 10.1019 12.9081 9.72036 13.1894 9.43906C13.4707 9.15775 13.8523 8.99972 14.2501 8.99972H15.7501C15.8527 8.99992 15.9542 8.97908 16.0484 8.93849C16.1426 8.8979 16.2274 8.83843 16.2977 8.76374C16.368 8.68906 16.4222 8.60075 16.457 8.50427C16.4919 8.40779 16.5065 8.3052 16.5001 8.20284C16.4835 8.00891 16.394 7.82849 16.2495 7.69799C16.1051 7.56749 15.9166 7.49663 15.722 7.49972H14.2501C13.4544 7.49972 12.6914 7.81579 12.1288 8.3784C11.5662 8.94101 11.2501 9.70407 11.2501 10.4997V12.7497H9.00009C8.89753 12.7495 8.79602 12.7704 8.70183 12.8109C8.60763 12.8515 8.52277 12.911 8.45248 12.9857C8.38218 13.0604 8.32796 13.1487 8.29315 13.2452C8.25834 13.3416 8.24368 13.4442 8.25009 13.5466C8.26669 13.7405 8.35622 13.9209 8.50064 14.0514C8.64506 14.1819 8.8336 14.2528 9.02822 14.2497H11.2501V21.3091C11.2504 21.3617 11.2396 21.4137 11.2184 21.4618C11.1973 21.5099 11.1662 21.5531 11.1273 21.5884C11.0885 21.6238 11.0426 21.6506 10.9926 21.6671C10.9427 21.6836 10.8899 21.6894 10.8376 21.6841C5.88759 21.0841 2.06259 16.781 2.25947 11.6341C2.36998 9.09233 3.46964 6.69443 5.32372 4.95225C7.17779 3.21007 9.63941 2.26162 12.1831 2.30933C14.7269 2.35705 17.1512 3.39716 18.9386 5.20766C20.726 7.01815 21.735 9.45559 21.7501 11.9997Z" fill="#3D3331"/>
</svg>
