<svg width="470" height="387" viewBox="0 0 470 387" fill="none" xmlns="http://www.w3.org/2000/svg">
<path d="M215.277 501.478L215.511 501.48C211.855 499.999 207.739 497.227 206.498 490.195L206.58 490.025C242.033 502.496 311.759 482.952 369.788 433.143C399.668 407.514 429.886 363.597 454.175 329.523C458.406 329.927 459.792 330.026 464.053 330.06C486.049 330.167 507.626 324.372 528.869 318.602L602.882 334.197C607.473 352.118 598.706 375.443 585.654 388.765C572.602 402.086 555.261 410.302 537.929 417.23C505.639 430.147 471.976 439.615 437.743 445.378L436.936 447.58C418.466 489.794 364.145 541.4 291.461 546.687C269.912 548.268 247.975 539.265 241.605 526.087C235.899 523.855 231.148 520.414 227.861 514.999C222.937 513.069 218.098 509.258 215.349 501.47L215.277 501.478Z" fill="#A0B0D2" stroke="white" stroke-width="0.46" stroke-miterlimit="10"/>
<path d="M45.4729 304.42C39.2712 295.638 33.6488 286.437 28.3878 277.075C61.9901 280.7 96.8504 272.698 125.669 254.799C148.057 240.895 168.208 220.691 194.238 217.058C215.562 214.071 237.083 223.269 253.322 237.146C269.578 251.05 281.297 280.758 306.189 291.004L307.084 293.251C323.929 297.289 338.698 303.196 353.834 309.483C356.574 310.634 359.53 311.76 362.648 312.895L448.279 336.936C425.292 369.027 399.32 407.044 369.467 432.655C302.686 489.967 220.418 507.228 192.71 481.701C181.644 482.256 171.432 479.141 161.086 467.722L161.529 467.509C152.551 465.681 145.024 461.15 140.072 452.79L140.099 452.772C131.116 450.287 122.29 444.668 114.77 433.762L115.554 433.712C106.486 431.865 98.2624 426.394 94.0975 412.077L94.503 412.044C85.8823 408.038 79.1678 401.847 76.0859 392.607L77.2034 392.532C67.3101 387.538 58.5011 380.703 51.5898 371.611L51.6798 371.629C44.1373 362.641 39.2346 352.228 37.4727 340.916C35.5729 328.684 37.8933 315.775 43.9025 304.87L45.4729 304.42Z" fill="#123A8F"/>
<path d="M45.4729 304.42C39.2712 295.638 33.6488 286.437 28.3878 277.075C61.9901 280.7 96.8504 272.698 125.669 254.799C148.057 240.895 168.208 220.691 194.238 217.058C215.562 214.071 237.083 223.269 253.322 237.146C269.578 251.05 281.297 280.758 306.189 291.004L307.084 293.251C323.929 297.289 338.698 303.196 353.834 309.483C356.574 310.634 359.53 311.76 362.648 312.895L448.279 336.936C425.292 369.027 399.32 407.044 369.467 432.655C302.686 489.967 220.418 507.228 192.71 481.701C181.644 482.256 171.432 479.141 161.086 467.722L161.529 467.509C152.551 465.681 145.024 461.15 140.072 452.79L140.099 452.772C131.116 450.287 122.29 444.668 114.77 433.762L115.554 433.712C106.486 431.865 98.2624 426.394 94.0975 412.077L94.503 412.044C85.8823 408.038 79.1678 401.847 76.0859 392.607L77.2034 392.532C67.3101 387.538 58.5011 380.703 51.5898 371.611L51.6798 371.629C44.1373 362.641 39.2346 352.228 37.4727 340.916C35.5729 328.684 37.8933 315.775 43.9025 304.87L45.4729 304.42Z" fill="#123A8F"/>
<path d="M281.18 222.87C288.936 202.618 305.68 186.753 324.489 175.862C338.479 167.752 354.329 161.643 369.757 156.666C372.664 140.807 380.23 87.1532 372.176 65.7975C437.199 65.2364 476.028 91.4161 491.928 100.581C518.202 115.707 540.623 137.213 553.366 164.693C566.108 192.174 571.806 222.305 577.435 252.093L575.379 251.153L575.682 251.614C576.38 252.321 577.114 252.965 577.812 253.671C588.579 261.355 598.01 272.21 600.337 285.21C602.689 298.426 599.649 312.546 592.062 323.712C587.413 330.537 580.671 336.485 572.537 337.832C563.628 339.3 555.062 335.141 547.247 330.528C542.228 330.759 532.163 328.519 525.795 331.074C490.172 345.366 479.367 347.498 466.868 345.459C460.588 344.421 450.869 341.526 449.463 336.312C449.463 336.312 385.776 322.941 352.89 309.288C341.167 304.408 328.545 299.343 315.618 295.41L312.345 294.454L292.665 283.384L291.459 283.205C278.159 267.708 273.505 243.068 281.261 222.816L281.18 222.87Z" fill="#A0B0D2"/>
<path d="M281.18 222.869C288.936 202.618 305.68 186.752 324.489 175.861C338.479 167.751 353.668 162.115 369.078 157.112C405.19 145.218 430.394 137.076 444.281 133.54C410.332 157.415 414.414 192.3 430.399 214.307C439.977 227.513 455.121 233.873 465.265 236.528C492.358 243.617 524.374 206.987 577.435 252.092L575.379 251.152L575.682 251.613C576.38 252.32 577.114 252.964 577.812 253.671C555.541 244.81 533.929 238.312 512.114 244.691C478.106 254.58 444.845 268.563 421.625 269.611C387.654 273.881 313.303 248.252 292.308 282.841C281.521 272.878 273.505 243.067 281.261 222.815L281.18 222.869Z" fill="#A0B0D2" stroke="white" stroke-width="0.28" stroke-linecap="round" stroke-linejoin="round"/>
<path d="M292.61 282.176C287.664 278.202 283.272 273.592 279.351 268.633C275.43 263.674 271.934 258.358 268.222 253.184C264.482 248.029 260.534 242.971 255.825 238.647C251.143 234.305 245.98 230.473 240.498 227.162C229.534 220.657 217.088 216.214 204.2 215.829C191.278 215.274 178.62 219.556 167.489 225.748C156.287 231.948 146.182 239.757 135.774 246.989C130.589 250.632 125.278 254.084 119.78 257.194C114.247 260.25 108.544 262.989 102.718 265.421C79.3326 274.969 53.5978 278.875 28.4475 276.219C27.9884 276.172 27.6169 276.493 27.5509 276.925C27.5408 277.087 27.5757 277.259 27.6378 277.412C34.7954 290.072 42.5765 302.439 51.607 313.867C60.6375 325.296 70.9352 335.813 82.7414 344.368C88.6037 348.672 94.8833 352.546 101.575 355.451C108.284 358.382 115.415 360.298 122.678 361.117C129.933 361.98 137.267 361.781 144.497 360.952C151.736 360.077 158.836 358.4 165.866 356.497C165.993 356.453 166.083 356.354 166.021 356.201C165.977 356.075 165.852 356.002 165.725 356.046C158.714 357.859 151.632 359.446 144.411 360.231C137.218 360.998 129.93 361.089 122.784 360.154C108.392 358.428 94.9772 351.98 83.4781 343.301C71.7891 334.747 61.617 324.302 52.7215 312.901C43.7988 301.519 36.0804 289.188 29.0128 276.547L28.2031 277.74C53.614 280.496 79.69 276.755 103.329 267.001C109.21 264.533 114.976 261.713 120.563 258.622C126.097 255.449 131.445 251.933 136.64 248.246C147.039 240.942 157.099 233.123 168.13 226.958C179.089 220.802 191.431 216.572 204.039 217.062C216.639 217.364 228.924 221.68 239.754 228.04C245.155 231.288 250.282 235.065 254.92 239.281C259.603 243.505 263.596 248.456 267.327 253.539C271.077 258.65 274.626 263.931 278.647 268.863C282.64 273.813 287.132 278.397 292.132 282.336C292.23 282.426 292.374 282.409 292.465 282.311C292.556 282.212 292.539 282.068 292.44 281.977L292.61 282.176Z" fill="white"/>
<path d="M577.763 252.888C584.514 257.656 590.618 263.511 595.03 270.517C597.241 273.997 598.936 277.817 600.008 281.813C601.08 285.809 601.413 289.98 601.403 294.105C601.285 302.38 599.23 310.607 595.388 317.951C593.481 321.613 591.206 325.13 588.089 327.84C585.035 330.586 581.426 332.725 577.561 334.179C573.696 335.632 569.574 336.4 565.487 336.096C561.372 335.81 557.426 334.48 553.691 332.702C549.955 330.923 546.448 328.722 542.887 326.557L532.219 320.09C517.954 311.52 503.716 302.933 489.096 294.947C485.397 292.988 481.781 290.976 477.864 289.395C473.883 288.011 469.835 287.059 465.715 286.232C457.52 284.589 449.166 283.827 440.816 283.722C436.646 283.706 432.465 283.852 428.3 284.376C424.08 284.936 420.109 286.109 416.05 286.913C407.897 288.467 399.657 289.417 391.357 289.979C358.113 291.984 324.989 286.957 292.161 281.967L292.565 282.168C285.085 274.693 280.622 264.535 279.079 254.088C277.519 243.614 278.736 232.752 282.495 222.86C286.237 212.94 292.269 203.962 299.563 196.253C306.884 188.525 315.404 182.03 324.565 176.628C342.987 165.798 363.532 159.321 383.968 153.033C404.485 146.808 424.737 139.825 445.429 134.34L444.908 132.662C439.698 134.612 435.359 138.242 431.809 142.363C428.277 146.511 425.453 151.204 423.258 156.143C418.985 166.024 416.624 176.978 418.038 187.82C421.551 209.364 437.705 227.725 457.986 235.214C463.108 237.092 468.58 237.845 473.985 237.671C479.409 237.523 484.749 236.538 489.945 235.336C500.338 232.931 510.603 229.562 521.171 229.257C531.757 229.096 542.195 232.023 551.74 236.664C561.312 241.171 570.835 246.371 578.315 253.845L578.889 252.885C567.031 249.338 554.982 246.149 542.689 244.363C536.533 243.516 530.33 243.01 524.106 243.062C517.88 243.232 511.641 244.031 505.622 245.58C499.586 247.101 493.761 249.299 487.972 251.552C482.21 253.786 476.412 255.967 470.58 257.975C458.87 261.984 446.948 265.316 434.772 267.494C422.615 269.699 410.25 270.641 397.866 270.314C385.473 270.032 373.253 268.121 361.034 266.093C354.924 265.137 348.741 264.307 342.527 264.081C336.313 263.854 330.077 264.303 323.97 265.481C317.891 266.642 311.853 268.398 306.224 271.011C300.621 273.607 295.229 277.231 291.77 282.496C291.697 282.622 291.742 282.748 291.84 282.839C291.939 282.929 292.092 282.867 292.183 282.769C295.568 277.629 300.889 274.014 306.455 271.481C312.039 268.858 318.041 267.166 324.093 266.022C336.261 263.539 348.747 264.731 360.931 266.705C373.123 268.751 385.423 270.725 397.834 271.034C410.236 271.389 422.664 270.482 434.911 268.296C447.132 266.128 459.143 262.814 470.871 258.833C476.749 256.833 482.546 254.653 488.326 252.445C494.106 250.238 499.904 248.058 505.868 246.545C511.833 245.032 517.954 244.232 524.126 244.098C530.278 244.054 536.436 244.551 542.538 245.434C554.759 247.228 566.736 250.425 578.566 253.991C578.872 254.101 579.188 253.932 579.298 253.626C579.363 253.429 579.292 253.203 579.158 253.058C571.481 245.402 561.895 240.166 552.269 235.578C542.662 230.9 531.99 227.855 521.153 227.987C510.278 228.299 499.969 231.659 489.63 234.028C479.362 236.506 468.41 237.646 458.472 233.885C438.74 226.579 422.953 208.481 419.624 187.632C418.262 177.222 420.595 166.52 424.794 156.882C426.916 152.068 429.685 147.528 433.089 143.541C436.485 139.599 440.642 136.166 445.474 134.349C445.907 134.181 446.154 133.669 445.985 133.236C445.817 132.803 445.368 132.593 444.926 132.689C424.144 138.156 403.849 145.012 383.385 151.318C362.967 157.634 342.286 164.2 323.665 175.2C314.413 180.7 305.748 187.33 298.354 195.183C290.96 203.036 284.818 212.202 281.003 222.364C277.215 232.509 275.969 243.623 277.573 254.34C279.159 265.03 283.8 275.46 291.513 283.17C291.603 283.305 291.755 283.36 291.918 283.37C324.764 288.27 357.997 293.226 391.394 291.159C399.721 290.579 408.015 289.593 416.223 288.004C420.309 287.182 424.37 286.027 428.401 285.475C432.494 284.96 436.629 284.804 440.8 284.821C449.087 284.889 457.396 285.642 465.528 287.249C469.586 288.039 473.678 289 477.506 290.329C481.315 291.865 484.986 293.841 488.64 295.791C503.224 303.723 517.517 312.274 531.782 320.844L542.476 327.293C546.02 329.431 549.572 331.641 553.371 333.456C557.124 335.262 561.204 336.619 565.436 336.906C569.641 337.211 573.907 336.426 577.826 334.937C581.746 333.448 585.435 331.255 588.553 328.428C591.734 325.637 594.055 322.013 595.989 318.333C599.867 310.927 601.95 302.564 602.015 294.207C602.016 290.011 601.639 285.83 600.558 281.762C599.45 277.712 597.737 273.865 595.491 270.33C590.998 263.261 584.849 257.397 578.035 252.592C577.937 252.501 577.765 252.536 577.72 252.644C577.629 252.743 577.664 252.914 577.772 252.96L577.763 252.888Z" fill="white"/>
<path d="M578.097 251.503C573.482 226.331 568.914 200.935 559.752 176.889C557.477 170.887 554.976 164.955 552.06 159.219C549.117 153.501 545.721 148.041 541.973 142.813C534.476 132.357 525.395 123.099 515.424 114.97C510.452 110.896 505.198 107.163 499.772 103.699C494.318 100.253 488.781 97.0946 483.245 93.8191C472.155 87.3581 460.536 81.7494 448.449 77.3807C424.305 68.5082 398.496 64.6148 372.831 64.7837L372.291 64.7894L372.467 65.2948C374.986 72.4964 375.565 80.2356 375.856 87.892C376.12 95.5663 375.771 103.255 375.27 110.888C374.23 126.218 372.336 141.489 369.739 156.639C372.516 141.526 374.572 126.266 375.801 110.928C376.402 103.268 376.706 95.5698 376.496 87.8599C376.232 80.1856 375.69 72.3836 373.154 65.0378L372.79 65.5489C398.364 65.4785 424.037 69.4612 448.055 78.3779C460.097 82.7373 471.553 88.4531 482.662 94.8241C488.18 98.0725 493.789 101.222 499.18 104.632C504.571 108.042 509.807 111.748 514.77 115.749C524.688 123.797 533.77 132.938 541.24 143.295C544.998 148.478 548.375 153.91 551.355 159.566C554.308 165.239 556.791 171.144 559.075 177.101C568.211 201.048 573.176 226.338 578.079 251.475L578.097 251.503Z" fill="white"/>
<path d="M373.366 65.5969C392.832 79.0608 409.483 95.9298 425.953 112.879C442.378 129.818 459.127 146.895 478.991 160.136C488.909 166.707 499.547 172.301 510.698 176.43C516.25 178.607 522.031 180.245 527.687 181.81C533.135 183.356 537.922 186.852 542.111 190.858C550.488 198.986 556.87 209.048 562.602 219.304C568.326 229.605 573.253 240.351 577.638 251.337C577.7 251.491 577.871 251.573 578.052 251.493C578.205 251.431 578.288 251.26 578.226 251.107C574.12 240.014 569.464 229.089 563.977 218.556C558.371 208.138 552.081 197.861 543.571 189.353C539.302 185.167 534.319 181.373 528.323 179.643C522.632 178.024 517.012 176.396 511.55 174.238C500.561 170.119 490.131 164.544 480.383 158.055C460.688 145.13 444.083 128.154 427.404 111.42C419.056 103.039 410.653 94.6941 401.806 86.7968C392.932 78.9173 383.595 71.5754 373.712 65.0587C373.569 64.9587 373.37 65.0115 373.27 65.155C373.17 65.2985 373.223 65.497 373.366 65.5969Z" fill="white"/>
<path d="M451.847 340.766C434.173 361.129 421.007 384.742 406.005 406.922C391.083 429.048 374.409 450.696 352.185 465.735C341.261 473.423 329.543 479.962 317.372 485.517C305.201 491.072 292.595 495.669 279.637 499.022C266.706 502.357 253.387 504.509 240.038 504.429C233.364 504.388 226.694 503.645 220.238 501.868C217.019 500.993 213.737 500.082 211.156 498.049C208.522 496.052 206.993 492.9 206.393 489.681C206.376 489.537 206.251 489.464 206.106 489.481C205.962 489.498 205.889 489.624 205.906 489.768C206.488 493.077 208.024 496.418 210.775 498.533C213.463 500.729 216.834 501.659 220.044 502.579C226.517 504.5 233.258 505.351 240.022 505.527C253.541 505.807 266.959 503.628 279.988 500.384C293.054 497.077 305.785 492.552 318.064 487.043C330.325 481.507 342.196 475.023 353.291 467.3C364.36 459.595 374.331 450.281 383.083 440.059C391.898 429.873 399.727 418.897 407.179 407.704C414.632 396.51 421.645 385.061 428.899 373.803C436.118 362.491 443.561 351.342 452.206 341.075C452.296 340.976 452.279 340.832 452.181 340.741C452.082 340.651 451.938 340.668 451.847 340.766Z" fill="white"/>
<path d="M547.05 330.347C541.333 333.833 536.332 338.171 531.214 342.39C526.114 346.637 521.22 351.137 516.54 355.846C507.154 365.281 498.842 375.641 490.459 385.892C482.175 396.235 473.738 406.405 464.792 416.095C455.836 425.829 446.334 435.029 436.447 443.822C436.339 443.893 436.329 444.055 436.427 444.146C436.499 444.255 436.661 444.265 436.751 444.166C447.005 435.754 456.766 426.771 465.911 417.146C475.073 407.548 483.546 397.315 491.911 387.036C500.196 376.694 508.489 366.424 517.614 356.888C522.186 352.134 526.973 347.588 531.956 343.223C536.913 338.877 541.817 334.332 547.317 330.754C547.317 330.754 547.454 330.547 547.383 330.439C547.311 330.33 547.176 330.303 547.068 330.374L547.05 330.347Z" fill="white"/>
<path d="M603.1 335.297C605.22 344.198 603.897 353.538 600.894 362.039C597.865 370.558 593.217 378.508 587.227 385.244C575.057 398.724 558.498 407.242 541.787 414.111C525.013 421.061 507.803 427.053 490.375 432.18C472.928 437.28 455.235 441.531 437.332 444.872C455.339 442.162 473.183 438.317 490.727 433.425C508.271 428.533 525.525 422.55 542.407 415.646C559.128 408.615 575.94 400.008 588.131 386.087C594.105 379.09 598.708 371.013 601.586 362.322C604.391 353.64 605.437 344.172 603.046 335.333L603.1 335.297Z" fill="white"/>
<path d="M297.834 285.036C292.416 282.886 286.796 281.376 281.075 280.242C275.362 279.181 269.547 278.615 263.73 278.282C252.077 277.824 240.416 278.537 228.902 280.125C205.777 283.092 183.453 290.116 160.95 295.626C138.537 301.272 115.464 305.797 92.3254 304.072C80.8188 303.246 69.3402 300.925 58.659 296.565C53.323 294.362 48.143 291.747 43.3546 288.485C38.5934 285.205 34.2229 281.396 30.3241 277.122C30.2706 277.041 30.1086 277.031 30.045 277.111C29.9636 277.165 29.9534 277.327 30.0341 277.39C33.9143 281.754 38.2389 285.671 42.9994 289.068C47.742 292.438 52.9662 295.18 58.3014 297.5C69.099 301.978 80.6489 304.407 92.2633 305.279C115.608 307.14 138.878 302.796 161.336 297.159C183.849 291.487 206.056 284.345 229.056 281.305C240.534 279.664 252.105 278.932 263.687 279.282C269.45 279.533 275.24 280 280.944 280.989C286.639 282.023 292.277 283.444 297.668 285.494C297.776 285.539 297.885 285.468 297.921 285.405C297.967 285.297 297.896 285.189 297.806 285.17L297.834 285.036Z" fill="white"/>
<path d="M536.194 140.941C528.403 131.339 519.054 123.033 508.823 116.046C498.565 109.077 487.306 103.542 475.577 99.5991C463.921 95.5301 452.073 91.8202 439.975 89.2074C433.912 87.91 427.83 86.8195 421.654 86.2959C415.514 85.8264 409.155 85.734 403.144 87.4717C403.018 87.5159 402.927 87.6144 402.989 87.7679C403.033 87.8942 403.159 87.967 403.285 87.9228C409.222 86.4278 415.472 86.7088 421.548 87.3759C427.642 88.0702 433.687 89.2234 439.677 90.6465C451.62 93.5555 463.406 97.1119 474.989 101.307C486.636 105.303 497.744 110.549 507.94 117.365C518.183 124.073 527.669 132.055 535.876 141.227C535.948 141.336 536.11 141.346 536.2 141.247C536.309 141.176 536.319 141.014 536.221 140.923L536.194 140.941Z" fill="white"/>
<path d="M539.419 153.001C531.942 144.941 523.432 137.793 514.258 131.704C505.066 125.588 495.182 120.548 484.931 116.487C474.634 112.535 463.926 109.552 453.029 107.82C442.132 106.088 431.046 105.607 420.041 106.549C419.897 106.566 419.824 106.692 419.823 106.809C419.823 106.926 419.966 107.026 420.083 107.026C431.031 106.588 442.015 107.447 452.757 109.358C463.5 111.27 474.073 114.224 484.261 118.248C494.45 122.155 504.227 127.15 513.447 133.014C522.641 138.896 531.325 145.658 539.11 153.359C539.181 153.468 539.353 153.433 539.461 153.362C539.57 153.29 539.553 153.146 539.481 153.037L539.419 153.001Z" fill="white"/>
<path d="M544.462 166.585C537.402 159.572 529.716 153.203 521.421 147.624C513.153 142.026 504.339 137.254 495.159 133.344C485.943 129.497 476.36 126.513 466.518 124.67C456.703 122.809 446.682 122.055 436.743 122.49C436.626 122.49 436.526 122.633 436.525 122.75C436.525 122.867 436.668 122.967 436.758 122.986C446.684 123.064 456.54 124.159 466.201 126.199C475.862 128.239 485.337 131.178 494.4 135.087C503.535 138.87 512.241 143.597 520.538 148.942C528.852 154.315 536.703 160.342 544.099 166.979C544.198 167.069 544.342 167.052 544.433 166.954C544.541 166.882 544.506 166.711 544.408 166.62L544.462 166.585Z" fill="white"/>
<path d="M551.984 184.056C546.201 177.33 539.802 171.086 532.731 165.595C525.706 160.114 518.054 155.393 509.954 151.589C501.836 147.875 493.243 145.094 484.453 143.492C475.663 141.89 466.703 141.448 457.808 142.052C457.691 142.051 457.591 142.195 457.59 142.312C457.589 142.429 457.733 142.529 457.823 142.547C475.498 142.348 493.22 145.769 509.159 153.277C517.152 156.919 524.705 161.548 531.778 166.805C538.85 172.062 545.458 177.974 551.595 184.351C551.666 184.459 551.855 184.451 551.919 184.371C552.027 184.299 552.01 184.155 551.939 184.047L551.984 184.056Z" fill="white"/>
<path d="M420.437 171.246C419.55 173.267 419.625 175.51 419.872 177.6C420.164 179.7 420.7 181.757 421.362 183.769C422.686 187.793 424.498 191.614 426.572 195.301C430.829 202.603 436.072 209.335 442.43 214.983C448.697 220.614 456.613 224.966 465.137 225.927C473.551 227.194 482.065 226.957 490.456 226.297C498.838 225.564 507.178 224.471 515.507 223.657C523.836 222.843 532.207 222.389 540.478 223.439C548.778 224.236 556.519 227.849 562.988 233.076C569.448 238.23 575.043 244.847 577.638 252.814C577.682 252.94 577.78 253.031 577.934 252.969C578.06 252.925 578.133 252.799 578.089 252.673C575.675 244.508 570.164 237.604 563.687 232.188C557.211 226.773 549.129 222.996 540.641 222.089C532.226 220.939 523.729 221.32 515.364 222.08C507 222.84 498.652 223.861 490.306 224.531C481.987 225.183 473.607 225.564 465.391 224.362C457.11 223.474 449.597 219.439 443.364 213.98C437.077 208.557 431.834 201.942 427.567 194.802C425.447 191.223 423.544 187.502 422.129 183.576C421.43 181.626 420.813 179.623 420.484 177.586C420.156 175.549 420.08 173.423 420.822 171.536C420.822 171.536 420.806 171.275 420.698 171.229C420.59 171.184 420.437 171.246 420.391 171.354L420.437 171.246Z" fill="white"/>
<path d="M433.169 142.362C432.11 149.857 432.482 157.577 434.279 164.981C436.121 172.395 439.362 179.394 443.535 185.741C447.726 192.115 452.849 197.838 458.816 202.656C464.693 207.572 471.959 210.759 479.369 212.569C486.834 214.343 494.479 214.795 502.064 214.741C509.657 214.76 517.184 213.968 524.695 214.158C532.189 214.32 539.779 214.808 547.159 215.861C554.457 216.968 561.887 219.813 566.703 225.66C566.775 225.769 566.937 225.779 567.028 225.68C567.136 225.609 567.146 225.447 567.048 225.356C562.315 219.222 554.742 216.042 547.329 214.7C539.788 213.52 532.297 213.006 524.687 212.726C517.077 212.446 509.542 213.166 502.012 213.066C494.49 213.039 487.008 212.48 479.751 210.725C464.952 207.79 452.997 197.235 444.639 184.937C436.263 172.612 431.844 157.375 433.565 142.373C433.593 142.238 433.477 142.121 433.387 142.102C433.252 142.074 433.134 142.191 433.116 142.28L433.169 142.362Z" fill="white"/>
<path d="M447.341 132.578C446.209 138.956 445.218 145.551 446.337 152.042C447.249 158.513 449.422 164.893 453.015 170.417C459.993 181.68 471.19 189.664 483.054 194.995C489.054 197.616 495.373 199.599 501.87 200.611C508.295 201.631 514.748 202.4 521.202 203.168C534.037 204.714 546.941 206.719 558.842 211.87C558.95 211.916 559.103 211.854 559.149 211.746C559.195 211.638 559.133 211.485 559.025 211.439C553.125 208.675 546.951 206.557 540.601 205.06C534.252 203.563 527.827 202.542 521.374 201.657C514.931 200.726 508.495 199.985 502.152 198.911C495.844 197.891 489.687 195.917 483.804 193.297C472.11 188.165 461.245 180.391 454.309 169.606C447.066 158.944 445.427 145.336 447.791 132.671C447.819 132.536 447.748 132.427 447.613 132.399C447.478 132.372 447.369 132.443 447.341 132.578Z" fill="white"/>
<path d="M555.729 205.836C550.112 197.292 540.56 192.344 531.004 189.458C521.286 186.563 511.191 186.168 501.428 184.506C496.534 183.684 491.684 182.754 487.166 180.908C482.629 179.034 478.431 176.433 474.759 173.214C467.389 166.794 462.633 157.372 462.375 147.402C462.376 147.285 462.26 147.167 462.143 147.166C462.025 147.165 461.908 147.282 461.907 147.399C461.81 152.396 462.749 157.49 464.835 162.14C466.903 166.764 469.973 170.961 473.716 174.406C477.485 177.832 481.845 180.56 486.524 182.534C491.232 184.49 496.224 185.52 501.173 186.306C511.081 187.834 521.094 188.282 530.616 190.879C535.391 192.168 540 194.033 544.28 196.464C548.561 198.894 552.503 202.052 555.349 206.086C555.421 206.194 555.556 206.222 555.664 206.151C555.773 206.079 555.801 205.944 555.729 205.836Z" fill="white"/>
<path d="M405.223 91.8159C401.63 95.6935 398.502 100.042 396.038 104.809C393.556 109.549 391.801 114.627 390.586 119.815C389.462 125.023 388.832 130.332 388.652 135.617C388.445 140.92 388.644 146.19 388.915 151.451C388.915 151.568 389.058 151.668 389.175 151.668C389.292 151.669 389.365 151.543 389.411 151.436C389.653 146.187 389.833 140.902 390.21 135.681C390.632 130.469 391.217 125.268 392.431 120.196C394.589 109.997 399.255 100.479 405.608 92.1064C405.699 92.0079 405.682 91.8637 405.583 91.7731C405.485 91.6824 405.34 91.6996 405.25 91.7981L405.223 91.8159Z" fill="white"/>
<path d="M422.759 108.258C417.293 112.124 413.075 117.772 410.664 124.097C408.342 130.441 407.674 137.407 408.801 143.97C408.818 144.114 408.944 144.187 409.088 144.17C409.187 144.144 409.278 144.045 409.279 143.928C409.332 137.328 410.051 130.794 412.425 124.766C414.628 118.655 418.456 113.302 423.081 108.629C423.19 108.558 423.155 108.386 423.083 108.278C423.012 108.169 422.868 108.187 422.786 108.24L422.759 108.258Z" fill="white"/>
<path d="M437.065 122.861C434.728 124.747 432.875 127.132 431.228 129.652C429.751 132.255 428.318 135.101 428.423 138.218C428.422 138.335 428.538 138.452 428.655 138.453C428.772 138.454 428.836 138.373 428.873 138.31C429.909 135.57 431.241 133.101 432.806 130.634C434.264 128.122 435.964 125.8 437.423 123.17C437.496 123.044 437.452 122.918 437.326 122.845C437.246 122.782 437.147 122.808 437.065 122.861Z" fill="white"/>
<path d="M427.64 148.794C410.986 153.917 394.05 158.137 377.404 163.448C369.072 166.091 360.846 169.13 352.867 172.783C344.942 176.517 337.275 180.82 330.071 185.829C322.849 190.81 316.055 196.442 310.076 202.899C307.028 206.069 304.356 209.574 301.81 213.151C299.362 216.82 297.184 220.661 295.391 224.675C291.914 232.75 290.008 241.618 290.508 250.42C290.794 254.816 291.53 259.188 292.971 263.33C294.411 267.473 296.312 271.546 299.316 274.815C299.388 274.923 299.55 274.933 299.64 274.835C299.749 274.763 299.741 274.574 299.661 274.511C296.818 271.251 295.052 267.206 293.72 263.11C292.414 258.995 291.785 254.669 291.616 250.39C291.268 241.761 293.128 233.118 296.63 225.259C298.404 221.335 300.609 217.593 302.993 214.005C305.521 210.517 308.174 207.102 311.213 203.978C317.137 197.674 323.903 192.176 331.079 187.303C338.29 182.483 345.797 178.053 353.604 174.318C361.448 170.637 369.594 167.535 377.872 164.811C386.151 162.087 394.508 159.661 402.875 157.191C411.207 154.665 419.556 152.05 427.826 149.255C427.953 149.21 428.026 149.085 427.982 148.958C427.937 148.832 427.812 148.759 427.685 148.803L427.64 148.794Z" fill="white"/>
<path d="M420.975 164.793C382.172 172.474 356.331 178.82 325.434 208.342C301.645 231.054 302.307 260.028 311.081 269.411" stroke="white" stroke-width="0.37" stroke-miterlimit="10"/>
<path d="M348.255 213.073C343.789 215.504 339.527 218.423 335.962 222.166C332.361 225.854 329.592 230.394 327.938 235.328C326.373 240.281 325.914 245.555 326.385 250.646C326.873 255.764 328.191 260.725 329.925 265.491C329.996 265.599 330.122 265.672 330.221 265.645C330.329 265.574 330.393 265.493 330.376 265.349C329.139 260.452 328.172 255.493 327.908 250.538C327.644 245.584 328.074 240.561 329.672 235.897C331.136 231.205 333.759 226.916 337.081 223.217C340.385 219.491 344.297 216.336 348.496 213.497C348.604 213.426 348.632 213.291 348.561 213.182C348.49 213.074 348.355 213.046 348.246 213.118L348.255 213.073Z" fill="white"/>
<path d="M417.348 177.784C411.761 178.155 406.214 179.238 400.877 181.232C395.611 183.335 390.788 186.584 386.906 190.613C386.797 190.684 386.832 190.855 386.903 190.964C386.957 191.045 387.119 191.055 387.201 191.002C391.834 187.878 396.439 184.889 401.568 182.993C406.617 180.916 412.039 179.76 417.435 178.271C417.562 178.226 417.652 178.128 417.59 177.974C417.564 177.875 417.466 177.785 417.348 177.784Z" fill="white"/>
<path d="M438.307 221.307C433.444 223.727 428.644 226.301 424.102 229.326C419.542 232.324 415.293 235.856 411.599 239.994C408.031 244.205 405.17 249.078 403.621 254.409C402.081 259.695 401.862 265.511 403.755 270.637C402.629 265.317 403.269 259.846 405.005 254.858C406.768 249.853 409.493 245.187 413.032 241.228C416.455 237.151 420.613 233.718 424.931 230.529C429.249 227.34 433.818 224.414 438.297 221.352L438.307 221.307Z" fill="white"/>
<path d="M449.54 230.706C447.425 232.989 445.625 235.572 444.326 238.446C443.028 241.32 442.313 244.431 442.193 247.618C442.127 250.77 442.646 253.925 443.698 256.885C444.723 259.863 446.218 262.61 447.913 265.187C447.966 265.268 448.056 265.287 448.137 265.233C448.192 265.197 448.237 265.09 448.202 265.035C445.41 259.606 443.206 253.712 443.472 247.671C443.575 241.62 446.172 235.872 449.817 230.95C449.899 230.897 449.854 230.771 449.792 230.734C449.756 230.68 449.639 230.679 449.575 230.76L449.54 230.706Z" fill="white"/>
<path d="M472.326 236.625C470.13 237.719 468.093 239.175 466.361 240.974C464.628 242.774 463.245 244.927 462.337 247.272C461.492 249.653 461.151 252.209 461.387 254.695C461.595 257.2 462.345 259.582 463.339 261.804C463.392 261.885 463.455 261.921 463.554 261.895C463.609 261.859 463.672 261.779 463.619 261.697C462.254 257.078 461.728 252.14 463.469 247.693C465.049 243.236 468.487 239.654 472.415 236.877C472.496 236.824 472.515 236.734 472.461 236.652C472.425 236.598 472.335 236.58 472.263 236.588L472.326 236.625Z" fill="white"/>
<path d="M277.654 279.889C272.045 270.057 264.89 261.125 256.627 253.348C248.329 245.635 238.861 239.039 228.369 234.554C217.941 230.105 206.209 227.99 194.836 230.029C183.473 231.905 173.044 236.975 163.242 242.643C158.341 245.477 153.501 248.465 148.734 251.444C143.967 254.423 139.048 257.23 134.236 260.199C124.576 266.084 115.023 272.132 104.671 276.491C99.5215 278.712 94.1852 280.589 88.7878 282.195C83.3902 283.801 77.9137 285.11 72.3255 285.598C66.7645 286.069 61.1096 285.747 55.6968 284.255C50.2747 282.808 45.1109 280.454 40.2566 277.624C40.1309 277.551 40.0046 277.595 39.9317 277.721C39.8588 277.846 39.903 277.973 40.0286 278.045C44.855 281.01 50.018 283.482 55.4843 285.055C60.9412 286.673 66.7481 287.168 72.4347 286.77C78.1485 286.354 83.7244 285.019 89.1576 283.467C94.6001 281.87 99.9719 280.047 105.211 277.846C115.743 273.524 125.413 267.476 135.1 261.69C139.92 258.793 144.857 256.013 149.696 253.026C154.526 250.083 159.303 247.059 164.159 244.216C173.845 238.547 184.057 233.502 195.123 231.588C206.126 229.52 217.553 231.526 227.874 235.812C238.241 240.107 247.583 246.63 255.929 254.119C264.237 261.67 271.547 270.423 277.302 280.121C277.373 280.229 277.508 280.257 277.634 280.213C277.743 280.141 277.771 280.006 277.727 279.88L277.654 279.889Z" fill="white"/>
<path d="M265.889 278.728C260.565 269.33 252.219 261.958 242.932 256.526C233.645 251.093 223.265 247.545 212.574 245.95C207.22 245.197 201.79 244.921 196.408 245.546C191.035 246.126 185.757 247.381 180.594 248.989C170.285 252.232 160.561 256.955 151.105 261.968C132.06 271.732 114.497 284.755 93.6014 289.753C83.3586 292.564 72.518 293.164 62.0731 291.174C51.6725 289.31 41.5876 284.674 34.045 277.046C33.9736 276.937 33.8022 276.972 33.6937 277.044C33.5851 277.115 33.62 277.287 33.6735 277.368C41.0974 285.23 51.2614 290.163 61.7954 292.289C72.3837 294.379 83.4671 293.852 93.8898 291.078C104.338 288.521 114.383 284.286 123.804 279.102L151.887 263.512C161.262 258.436 170.879 253.667 180.998 250.432C186.045 248.824 191.233 247.55 196.497 246.924C201.744 246.271 207.084 246.529 212.331 247.236C222.861 248.705 233.052 252.26 242.35 257.414C251.593 262.603 259.968 269.723 265.401 278.932C265.472 279.041 265.607 279.069 265.734 279.024C265.842 278.953 265.87 278.818 265.826 278.692L265.889 278.728Z" fill="white"/>
<path d="M246.972 278.811C242.123 272.442 236.134 266.822 228.926 263.132C221.735 259.468 213.502 258.004 205.456 258.361C197.392 258.69 189.505 260.768 181.921 263.306C174.328 265.89 166.93 269.006 159.603 272.231L137.702 281.968C130.385 285.148 122.881 287.867 115.421 290.713C107.979 293.586 100.431 296.179 92.6904 298.005C84.9851 299.885 76.9967 300.981 69.0465 300.419C68.9294 300.419 68.8479 300.472 68.8471 300.589C68.8463 300.706 68.8999 300.788 69.017 300.788C77.0199 301.548 85.0881 300.633 92.9277 298.898C100.749 297.135 108.369 294.534 115.865 291.742C123.36 288.951 130.917 286.313 138.289 283.215C145.678 280.143 152.907 276.711 160.216 273.459C167.507 270.18 174.834 267.073 182.346 264.426C189.867 261.851 197.619 259.745 205.53 259.361C213.424 258.949 221.422 260.412 228.57 263.832C235.708 267.297 241.761 272.719 246.682 278.963C246.736 279.044 246.871 279.072 246.952 279.018C247.034 278.965 247.062 278.83 247.008 278.748L246.972 278.811Z" fill="white"/>
<path d="M524.332 315.485C530.456 315.81 536.491 313.163 541.022 309.057C545.509 304.942 548.898 299.217 549.3 292.969C549.837 286.75 547.69 280.469 543.768 275.627C539.81 270.731 533.731 267.93 527.619 267.208C521.436 266.496 515.267 267.521 509.349 268.926C503.411 270.421 497.652 272.304 491.821 274.079C480.177 277.656 468.586 281.314 457.004 285.044C468.727 281.765 480.415 278.432 492.076 274.999C497.924 273.369 503.72 271.423 509.611 270.035C515.476 268.666 521.536 267.712 527.458 268.441C533.372 269.098 539.11 271.736 542.917 276.343C546.705 280.922 548.746 286.923 548.382 292.874C548.08 298.86 544.953 304.452 540.629 308.577C536.34 312.757 530.475 315.603 524.36 315.467L524.332 315.485Z" fill="white"/>
<path d="M532.482 321.199C540.36 320.527 547.842 316.889 553.643 311.521C556.526 308.809 558.998 305.591 560.724 302.009C562.451 298.426 563.307 294.406 563.27 290.389C563.243 282.365 559.863 274.564 554.38 268.767C548.979 262.8 540.975 259.554 533.042 259.137C525.055 258.639 517.244 260.122 509.56 261.562C501.857 263.091 494.233 264.918 486.679 267.088C479.125 269.257 471.695 271.734 464.371 274.49C457.055 277.319 449.846 280.427 442.806 283.851C442.725 283.905 442.679 284.013 442.705 284.112C442.759 284.193 442.866 284.239 442.966 284.213C457.241 277.779 471.987 272.474 487.004 268.233C494.522 266.126 502.155 264.372 509.794 262.923C517.442 261.546 525.207 260.17 532.923 260.73C540.586 261.092 548.124 264.1 553.373 269.779C558.66 275.277 562.006 282.79 562.081 290.472C562.38 298.2 558.547 305.616 552.954 310.886C547.414 316.238 540.183 320.021 532.412 320.857C532.295 320.856 532.222 320.982 532.231 321.054C532.23 321.171 532.356 321.244 532.428 321.235L532.482 321.199Z" fill="white"/>
<path d="M541.34 326.215C552.255 325.254 562.057 318.227 567.749 308.967C570.672 304.365 572.535 299.099 573.373 293.692C574.076 288.257 573.672 282.734 572.356 277.422C571.014 272.128 568.67 267.025 565.158 262.808C561.682 258.527 557.083 255.257 552.017 253.11C541.767 248.933 530.425 249.008 519.767 250.655C514.339 251.387 509.193 253.139 503.977 254.549L488.409 258.957C478.021 261.902 467.651 264.874 457.316 268.018C446.981 271.161 436.725 274.485 426.549 278.107C416.409 281.783 406.347 285.756 396.455 290.046C396.374 290.099 396.328 290.207 396.354 290.306C396.408 290.388 396.515 290.433 396.615 290.407C416.559 282.189 437.017 275.342 457.669 269.145C468.012 266.074 478.373 263.147 488.769 260.274L504.364 255.965C509.553 254.573 514.708 252.893 519.991 252.178C530.497 250.476 541.586 250.372 551.477 254.359C556.355 256.396 560.802 259.494 564.153 263.585C567.557 267.64 569.867 272.571 571.174 277.694C572.5 282.844 572.905 288.25 572.257 293.532C571.502 298.769 569.729 303.936 566.897 308.44C561.494 317.548 552.034 324.623 541.288 325.782C541.171 325.782 541.098 325.907 541.125 326.007C541.124 326.124 541.25 326.196 541.322 326.188L541.34 326.215Z" fill="white"/>
<path d="M390.429 269.882C384.105 269.96 377.769 271.678 372.208 274.868C369.477 276.509 366.896 278.556 364.897 281.074C362.899 283.592 361.518 286.637 361.101 289.786C361.082 289.876 361.136 289.958 361.225 289.976C361.315 289.995 361.397 289.941 361.388 289.869C362.934 283.764 367.488 278.982 372.804 275.953C375.454 274.366 378.327 273.176 381.288 272.24C384.249 271.303 387.298 270.619 390.426 270.233C390.498 270.224 390.562 270.144 390.581 270.054C390.572 269.982 390.491 269.918 390.419 269.927L390.429 269.882Z" fill="white"/>
<path d="M370.202 267.679C363.657 267.126 356.924 269.184 351.565 273.096C346.242 277.062 342.293 282.883 340.89 289.322C340.871 289.412 340.925 289.493 341.015 289.512C341.105 289.53 341.186 289.477 341.177 289.405C343.281 283.321 347.11 277.851 352.27 274.109C357.376 270.285 363.713 268.216 370.155 268.021C370.227 268.012 370.291 267.932 370.309 267.842C370.301 267.77 370.22 267.706 370.175 267.697L370.202 267.679Z" fill="white"/>
<path d="M345.027 264.689C342.481 265.548 339.909 266.307 337.38 267.309C334.869 268.338 332.384 269.584 330.255 271.372C328.117 273.205 326.569 275.582 325.507 278.107C324.446 280.631 323.806 283.383 323.922 286.103C323.931 286.175 324.012 286.238 324.102 286.257C324.174 286.248 324.237 286.168 324.247 286.123C324.49 283.477 325.327 280.906 326.468 278.563C327.637 276.201 329.084 273.968 331.086 272.341C333.016 270.605 335.42 269.413 337.815 268.266L345.179 264.979C345.179 264.979 345.296 264.862 345.27 264.763C345.234 264.709 345.154 264.645 345.055 264.672L345.027 264.689Z" fill="white"/>
<path d="M327.28 265.015C322.236 266.272 317.544 268.774 313.379 271.901C311.35 273.546 309.384 275.344 307.919 277.55C306.463 279.712 305.49 282.489 306.121 285.104C306.174 285.185 306.21 285.24 306.309 285.213C306.363 285.178 306.445 285.124 306.418 285.025C306.147 282.484 307.271 280.113 308.734 278.141C310.225 276.15 312.11 274.406 314.093 272.869C316.086 271.287 318.221 269.922 320.427 268.666C322.633 267.409 324.911 266.261 327.314 265.303C327.395 265.25 327.432 265.187 327.405 265.088C327.37 265.033 327.316 264.952 327.217 264.978L327.28 265.015Z" fill="white"/>
<path d="M498.118 298.145C491.526 299.293 485.012 300.74 478.386 301.6C475.095 302.094 471.785 302.677 468.503 303.125L458.568 304.335C445.308 305.75 431.953 306.488 418.641 306.228C405.328 306.084 391.968 304.923 378.916 302.277C365.872 299.587 353.054 295.583 341.333 289.109C341.225 289.063 341.126 289.09 341.062 289.17C340.998 289.251 341.043 289.377 341.123 289.441C346.883 292.88 353.017 295.646 359.28 298.016C365.625 300.216 372.062 302.083 378.656 303.419C391.771 306.218 405.193 307.533 418.577 307.785C432.007 307.93 445.371 307.029 458.677 305.506C472.001 304.011 485.152 301.425 498.196 298.559C498.296 298.533 498.387 298.434 498.342 298.308C498.316 298.209 498.218 298.118 498.118 298.145Z" fill="white"/>
<path d="M323.238 287.369C337.481 296.614 352.954 303.768 368.758 309.888C384.598 315.946 400.897 320.808 417.612 323.998C434.32 326.999 451.399 328.318 468.344 326.89C476.825 326.131 485.222 324.651 493.389 322.35C501.548 319.976 509.461 316.755 516.902 312.64C516.983 312.586 517.029 312.479 516.985 312.352C516.931 312.271 516.823 312.225 516.742 312.279C501.727 320.131 485.08 324.316 468.279 325.728C451.435 327.013 434.501 325.559 417.929 322.469C401.321 319.442 385.039 314.724 369.215 308.81C361.317 305.845 353.511 302.547 345.861 298.952C338.21 295.358 330.651 291.548 323.493 287.047C323.412 286.983 323.286 287.027 323.222 287.108C323.159 287.189 323.203 287.315 323.283 287.379L323.238 287.369Z" fill="white"/>
<path d="M533.366 321.007C527.277 325.049 520.609 328.035 513.809 330.524C506.992 332.986 500.006 335.015 492.898 336.503C485.816 338.09 478.62 339.209 471.394 339.57L465.952 339.69C464.151 339.553 462.323 339.551 460.541 339.324C456.949 338.888 453.351 338.146 450.211 336.209C456.4 340.299 464.188 340.733 471.404 340.651C478.729 340.497 485.997 339.37 493.177 337.874C500.313 336.251 507.371 334.213 514.163 331.535C520.955 328.856 527.562 325.483 533.339 321.024L533.366 321.007Z" fill="white"/>
<path d="M485.019 293.004C478.102 294.133 471.159 295.162 464.182 295.903C457.232 296.627 450.248 297.062 443.26 296.839C429.271 296.674 415.51 293.601 402.152 289.368C402.045 289.323 401.936 289.394 401.908 289.529C401.862 289.637 401.934 289.745 402.024 289.764C408.583 292.289 415.288 294.446 422.205 295.92C429.095 297.411 436.152 298.21 443.213 298.424C457.345 298.69 471.402 296.595 485.07 293.436C485.17 293.41 485.26 293.311 485.216 293.185C485.19 293.086 485.109 293.022 484.992 293.022L485.019 293.004Z" fill="white"/>
<path d="M51.5609 371.862C69.2006 375.571 87.3632 376.528 105.317 375.096C123.279 373.62 141.108 369.279 157.384 361.336C165.518 357.387 173.207 352.525 180.227 346.822C187.201 341.11 193.818 334.972 200.425 328.879C213.569 316.703 227.009 304.446 243.167 296.736C251.21 292.886 259.891 290.597 268.777 289.921C277.646 289.218 286.622 289.921 295.403 291.451C313.011 294.52 329.995 300.72 346.615 307.43C363.141 314.591 380.474 319.784 397.8 324.553C415.19 329.242 432.665 333.41 450.268 337.181L449.776 336.728C450.498 339.128 452.424 340.698 454.317 341.862C456.228 343.053 458.312 343.858 460.397 344.546C464.595 345.904 468.959 346.687 473.362 346.939C482.24 347.551 490.903 345.235 499.136 342.502C503.289 341.131 507.362 339.58 511.399 337.975C515.508 336.478 519.386 334.394 523.59 333.456C532.053 331.427 540.807 331.732 549.506 330.83C549.65 330.813 549.723 330.687 549.724 330.57C549.707 330.426 549.581 330.353 549.464 330.352L549.437 330.37C540.847 331.201 531.994 330.805 523.424 332.788C519.103 333.726 515.189 335.755 511.089 337.207C507.016 338.759 502.935 340.238 498.791 341.564C490.558 344.179 482.005 346.307 473.361 345.696C469.057 345.418 464.784 344.654 460.721 343.323C458.681 342.645 456.686 341.858 454.901 340.74C453.134 339.648 451.486 338.206 450.958 336.339C450.888 336.114 450.691 335.932 450.466 335.886C432.917 332.078 415.461 327.821 398.125 323.097C380.808 318.282 363.647 313.054 347.175 305.858C330.546 299.075 313.492 292.767 295.668 289.607C286.769 288.076 277.631 287.363 268.582 288.146C259.524 288.857 250.563 291.252 242.403 295.219C225.946 303.125 212.468 315.561 199.361 327.792C192.771 333.912 186.226 340.041 179.297 345.763C172.377 351.439 164.769 356.247 156.753 360.197C140.683 368.16 122.99 372.412 105.188 374.132C87.3416 375.726 69.2046 374.986 51.5998 371.448C51.4648 371.42 51.3562 371.492 51.3283 371.627C51.3004 371.762 51.3896 371.897 51.5245 371.925L51.5609 371.862Z" fill="white"/>
<path d="M362.831 312.581C348.545 311.134 334.064 313.235 320.451 317.601C306.81 321.986 293.903 328.49 281.933 336.361C269.829 344.086 259.198 353.757 247.612 362.035C236.134 370.476 224.057 378.066 211.189 384.157C198.366 390.257 184.752 394.741 171.053 398.503C157.328 402.049 143.051 403.278 128.942 402.337C114.832 401.513 100.763 398.681 87.5095 393.72C80.8692 391.248 74.4305 388.255 68.3385 384.607C62.228 381.049 56.3649 376.862 51.8612 371.432C51.7721 371.296 51.565 371.277 51.4293 371.366C51.2936 371.455 51.2742 371.662 51.3633 371.798C55.7297 377.552 61.5005 382.071 67.5281 385.917C73.6371 389.71 80.1377 392.856 86.8494 395.436C100.236 400.659 114.439 403.753 128.791 404.767C143.171 405.53 157.684 404.069 171.555 400.271C185.327 396.383 198.986 391.909 211.927 385.692C224.885 379.503 237.053 371.814 248.55 363.283C260.181 354.897 270.669 345.127 282.629 337.419C294.464 329.52 307.218 322.961 320.733 318.504C334.22 314.064 348.585 311.846 362.755 313.175C362.917 313.184 363.08 313.077 363.117 312.898C363.127 312.735 363.02 312.573 362.84 312.536L362.831 312.581Z" fill="white"/>
<path d="M348.077 306.935C335.219 304.822 322.013 304.959 309.126 307.06C302.696 308.219 296.307 309.855 290.334 312.656C284.442 315.52 278.728 318.655 273.219 322.161C262.164 329.118 252.065 337.468 241.984 345.611C231.922 353.781 221.457 361.517 210.261 368.023C187.792 380.738 162.347 388.455 136.537 390.118C110.772 391.79 84.2607 386.532 61.9656 373.141C61.84 373.069 61.7136 373.113 61.6407 373.239C61.5678 373.364 61.612 373.49 61.7376 373.563C72.8165 380.42 84.9974 385.465 97.7237 388.442C110.469 391.329 123.596 392.255 136.662 391.55C149.683 390.837 162.661 388.52 175.171 384.84C187.69 381.116 199.893 376.2 211.197 369.623C222.465 362.991 232.931 355.138 243.012 346.878C253.066 338.636 263.066 330.313 274.003 323.354C279.441 319.857 285.137 316.695 290.912 313.83C296.731 311.092 303.03 309.437 309.38 308.214C322.079 305.887 335.242 305.507 348.047 307.422C348.182 307.449 348.318 307.36 348.319 307.243C348.346 307.108 348.23 306.99 348.14 306.972L348.077 306.935Z" fill="white"/>
<path d="M259.3 378.865C251.995 382.891 244.52 386.601 236.913 390.049C229.34 393.552 221.644 396.747 213.842 399.663C198.219 405.467 182.146 410.052 165.828 413.322C149.599 416.844 132.868 418.714 116.332 417.038C108.123 416.142 99.8925 414.327 92.5862 410.429C85.2697 406.692 79.0958 400.495 76.3744 392.572C76.3031 392.463 76.2046 392.373 76.0782 392.417C75.9696 392.488 75.8789 392.587 75.9231 392.713C78.4723 400.789 84.6524 407.409 92.0479 411.443C99.4791 415.532 107.88 417.429 116.188 418.415C132.912 420.318 149.831 418.556 166.221 415.161C182.621 411.721 198.732 406.956 214.365 400.99C222.186 397.984 229.873 394.717 237.437 391.142C244.947 387.486 252.351 383.551 259.576 379.344C259.685 379.272 259.713 379.138 259.668 379.011C259.597 378.903 259.462 378.875 259.336 378.919L259.3 378.865Z" fill="white"/>
<path d="M389.977 321.228C384.628 319.656 378.992 319.126 373.442 319.318C367.874 319.482 362.319 320.376 356.888 321.577C346.052 324.195 335.594 328.275 325.981 333.818C325.9 333.871 325.854 333.979 325.925 334.088C325.979 334.169 326.087 334.215 326.168 334.161C331.165 331.769 336.269 329.656 341.416 327.787C346.608 325.928 351.853 324.266 357.212 323.074C362.544 321.783 368.017 320.942 373.46 320.588C378.921 320.261 384.442 320.438 389.848 321.624C389.938 321.642 390.046 321.571 390.092 321.463C390.111 321.373 390.04 321.265 389.95 321.246L389.977 321.228Z" fill="white"/>
<path d="M251.129 401.915C224.916 413.905 197.435 423.077 169.238 428.679C162.194 430.086 155.105 431.367 147.964 432.332C140.859 433.352 133.675 434.074 126.559 434.013C119.462 433.862 112.062 433.25 106.134 429.261C100.152 425.424 96.4304 418.819 94.3681 412.016C94.3239 411.89 94.1983 411.817 94.0719 411.861C93.9455 411.905 93.8726 412.031 93.9168 412.157C95.7891 419.085 99.355 425.987 105.488 430.229C108.518 432.355 112.068 433.673 115.639 434.433C119.246 435.13 122.883 435.459 126.495 435.571C133.763 435.804 141.01 435.001 148.169 434.063C155.328 433.124 162.47 431.925 169.559 430.527C183.712 427.632 197.736 423.889 211.378 419.154C225.057 414.473 238.399 408.808 251.297 402.348C251.405 402.277 251.478 402.151 251.407 402.043C251.336 401.934 251.228 401.888 251.102 401.933L251.129 401.915Z" fill="white"/>
<path d="M403.393 324.723C395.611 324.595 387.81 325.916 380.311 328.05C372.828 330.328 365.655 333.374 358.775 337.042C358.694 337.096 358.648 337.204 358.692 337.33C358.746 337.411 358.854 337.457 358.935 337.404C366.169 334.629 373.305 331.646 380.706 329.538C388.089 327.287 395.665 325.919 403.364 325.092C403.481 325.092 403.554 324.967 403.527 324.868C403.501 324.768 403.42 324.705 403.33 324.686L403.393 324.723Z" fill="white"/>
<path d="M249.526 424.724C238.243 429.501 226.827 433.899 215.297 437.945C203.749 441.963 192.086 445.63 180.301 448.755C174.39 450.35 168.515 451.998 162.537 452.899C156.549 453.844 150.459 453.924 144.511 452.979C132.47 451.222 122.027 443.558 114.977 433.663C114.906 433.555 114.771 433.527 114.635 433.616C114.527 433.688 114.499 433.822 114.57 433.931C117.995 439.022 122.162 443.703 127.182 447.317C132.202 450.932 138.085 453.435 144.222 454.49C150.34 455.634 156.655 455.484 162.768 454.611C168.909 453.721 174.847 452.108 180.775 450.541C192.589 447.281 204.314 443.651 215.819 439.389C227.341 435.154 238.642 430.404 249.694 425.158C249.802 425.086 249.875 424.961 249.804 424.852C249.733 424.744 249.625 424.698 249.498 424.742L249.526 424.724Z" fill="white"/>
<path d="M428.021 331.373C423.403 330.913 418.718 331.002 414.076 331.568C409.433 332.134 404.859 333.16 400.418 334.448C395.959 335.826 391.588 337.457 387.36 339.421C383.113 341.359 379.035 343.613 375.145 346.092C375.064 346.146 375.036 346.281 375.089 346.362C375.143 346.444 375.251 346.489 375.332 346.436C379.472 344.336 383.629 342.38 387.865 340.604C392.12 338.856 396.418 337.234 400.859 335.946C405.246 334.577 409.72 333.577 414.256 332.848C418.81 332.146 423.398 331.733 428.01 331.769C428.127 331.77 428.217 331.672 428.191 331.572C428.192 331.455 428.111 331.392 428.021 331.373Z" fill="white"/>
<path d="M447.279 335.651C432.838 337.103 419.082 342.613 406.469 349.623C393.838 356.724 382.169 365.29 370.465 373.684C347.094 390.527 322.679 405.959 297.418 419.81C284.832 426.803 272.006 433.371 259.01 439.623C245.989 445.776 232.878 451.794 219.431 456.945C206.02 462.033 192.127 466.388 177.859 467.689C170.748 468.285 163.462 468.025 156.668 465.732C149.818 463.593 144.013 458.785 140.279 452.692C140.208 452.584 140.073 452.556 139.947 452.6C139.838 452.672 139.81 452.807 139.854 452.933C143.533 459.178 149.408 464.212 156.365 466.514C163.267 468.969 170.696 469.329 177.896 468.869C192.407 467.642 206.362 463.322 219.881 458.28C233.409 453.193 246.583 447.212 259.658 441.14C272.706 434.969 285.613 428.465 298.262 421.508C323.515 407.468 347.887 391.91 371.223 374.896C382.891 366.447 394.497 357.845 406.975 350.689C419.364 343.515 432.914 337.869 447.239 336.182C447.383 336.165 447.456 336.039 447.457 335.922C447.44 335.778 447.314 335.705 447.197 335.704L447.279 335.651Z" fill="white"/>
<path d="M448.14 336.133L416.855 363.113C406.436 372.101 395.936 381.025 385.168 389.542C374.454 398.14 363.258 406.123 351.892 413.907C340.553 421.673 328.937 429.078 317.073 435.985C293.406 449.836 268.436 461.942 241.923 469.157C228.666 472.706 215.049 474.938 201.33 474.945C187.637 475.051 173.853 472.77 161.16 467.479C161.052 467.434 160.899 467.496 160.853 467.604C160.807 467.711 160.869 467.865 160.977 467.911C173.65 473.409 187.496 475.96 201.305 476.088C215.149 476.154 228.919 473.977 242.256 470.492C268.985 463.368 294.144 451.372 317.963 437.576C329.846 430.578 341.436 423.075 352.766 415.236C364.079 407.371 375.266 399.316 385.981 390.6C407.508 373.377 427.819 354.778 448.399 336.468C448.508 336.397 448.518 336.234 448.419 336.144C448.348 336.035 448.186 336.025 448.095 336.124L448.14 336.133Z" fill="white"/>
<path d="M44.1604 289.237C54.1763 313.576 75.2775 333.075 100.4 341.305C106.61 343.36 112.757 345.612 119.058 347.569C125.324 349.471 131.871 351.032 138.584 350.776C145.287 350.564 151.86 348.262 157.433 344.676C163.051 341.099 167.954 336.671 172.794 332.206C182.429 323.268 191.385 313.65 201.752 305.707C211.994 297.574 224.288 292.56 236.771 288.782C249.281 285.102 262.312 282.867 275.372 283.099C288.333 283.357 301.706 286.491 312.074 294.632C312.155 294.695 312.272 294.696 312.363 294.597C312.426 294.517 312.427 294.4 312.328 294.309C301.971 286.006 288.482 282.638 275.405 282.261C262.22 281.839 249.071 284.074 236.472 287.735C223.926 291.478 211.443 296.499 201.002 304.685C190.463 312.663 181.436 322.289 171.819 331.138C167.016 335.539 162.095 339.94 156.604 343.356C151.141 346.754 144.937 349.085 138.495 349.28C132.034 349.565 125.63 348.104 119.4 346.256C113.152 344.381 106.979 342.146 100.732 340.154C75.9235 332.106 54.9093 313.095 44.4768 289.068C44.4233 288.987 44.3155 288.941 44.2162 288.967C44.1348 289.021 44.089 289.129 44.1154 289.228L44.1604 289.237Z" fill="white"/>
<path d="M220.865 281.68C212.1 287.093 203.291 292.38 194.428 297.586C189.997 300.188 185.495 302.683 180.983 305.105C176.472 307.527 171.899 309.796 167.096 311.478C157.516 314.824 147.245 316.41 137.134 316.997C132.134 317.138 127.18 315.694 122.811 313.128C118.432 310.607 114.472 307.305 110.604 303.905C110.505 303.814 110.361 303.831 110.27 303.93C110.179 304.028 110.196 304.172 110.295 304.263C113.991 307.815 117.723 311.422 122.191 314.196C126.613 316.96 131.835 318.694 137.141 318.663C147.504 318.104 157.881 316.798 167.706 313.175C177.495 309.496 186.332 304.075 195.141 298.788C203.96 293.456 212.564 287.798 221.133 282.087C221.241 282.015 221.269 281.88 221.198 281.772C221.127 281.663 220.992 281.636 220.883 281.707L220.865 281.68Z" fill="white"/>
<path d="M329.432 300.041C320.222 297.977 310.745 296.632 301.266 297.115C291.786 297.598 282.338 300.08 273.984 304.641C265.631 309.201 258.079 314.982 250.564 320.7C243.085 326.472 235.758 332.416 228.136 337.972C220.515 343.41 212.393 348.323 204.281 353.074C196.098 357.716 187.808 362.196 179.154 365.826C170.518 369.484 161.491 372.312 152.204 373.561C142.945 374.793 133.39 374.393 124.392 371.529C124.257 371.501 124.131 371.545 124.103 371.68C124.057 371.788 124.119 371.941 124.254 371.969C133.187 375.148 142.936 376.081 152.367 374.814C161.824 373.646 171.004 370.874 179.783 367.316C188.572 363.713 197.041 359.388 205.172 354.547C213.312 349.661 221.29 344.648 229.002 339.112C236.633 333.511 243.925 327.513 251.386 321.713C258.838 315.959 266.363 310.196 274.572 305.653C282.79 301.182 291.969 298.527 301.35 297.953C310.741 297.335 320.173 298.553 329.366 300.473C329.501 300.501 329.61 300.43 329.637 300.295C329.665 300.16 329.594 300.051 329.459 300.023L329.432 300.041Z" fill="white"/>
<path d="M293.216 289.897C283.028 288.593 272.676 291.475 263.628 296.103C254.463 300.731 246.502 307.248 238.676 313.675C230.921 320.211 223.265 326.838 214.682 332.054C206.153 337.235 196.577 341.238 186.459 341.636C186.342 341.636 186.242 341.779 186.223 341.869C186.222 341.986 186.339 342.104 186.456 342.105C196.724 342.23 206.685 338.517 215.484 333.392C224.355 328.258 232.102 321.533 239.9 315.123C247.628 308.605 255.471 302.205 264.349 297.495C273.154 292.793 283.093 289.638 293.204 290.411C293.321 290.411 293.456 290.322 293.457 290.205C293.458 290.088 293.387 289.98 293.252 289.952L293.216 289.897Z" fill="white"/>
<path d="M516.322 335.942C507.846 339.961 500.116 345.471 493.388 352.031C486.643 358.564 480.926 366.13 475.973 374.088C471.117 382.137 467.043 390.604 463.706 399.364C460.35 408.097 457.714 417.096 455.662 426.215C455.634 426.35 455.705 426.458 455.84 426.486C455.975 426.514 456.084 426.443 456.112 426.308C458.649 417.336 461.627 408.501 465.116 399.913C468.633 391.307 472.661 382.947 477.534 375.043C482.316 367.12 487.96 359.68 494.435 353.091C500.911 346.502 508.318 340.738 516.5 336.33C516.608 336.259 516.664 336.106 516.592 335.997C516.521 335.889 516.413 335.843 516.287 335.888L516.322 335.942Z" fill="white"/>
<path d="M502.287 340.081C492.884 345.293 483.988 351.453 475.941 358.608C467.877 365.737 460.651 373.906 454.646 382.866C448.704 391.863 443.927 401.686 440.822 412.041C437.717 422.397 436.302 433.195 436.474 443.921C436.473 444.038 436.589 444.156 436.706 444.157C436.823 444.158 436.941 444.041 436.942 443.924C437.302 433.237 439.058 422.603 442.278 412.482C445.526 402.344 450.221 392.691 456.171 383.884C462.04 375.013 469.147 366.96 476.952 359.731C484.801 352.511 493.401 346.079 502.51 340.479C502.619 340.407 502.646 340.273 502.575 340.164C502.504 340.056 502.369 340.028 502.26 340.099L502.287 340.081Z" fill="white"/>
<path d="M478.286 346.15C468.08 351.5 458.986 358.956 451.469 367.745C443.951 376.533 437.912 386.565 433.328 397.155C428.852 407.79 425.597 418.982 423.845 430.391C422.969 436.095 422.525 441.865 422.433 447.637C422.646 453.401 423.013 459.221 424.822 464.752C424.866 464.879 424.992 464.952 425.118 464.907C425.245 464.863 425.291 464.755 425.274 464.611C422.483 453.508 423.516 441.835 425.366 430.634C427.315 419.407 430.514 408.368 435.053 397.886C439.456 387.376 445.413 377.515 452.651 368.715C459.907 359.943 468.588 352.332 478.508 346.547C478.617 346.476 478.645 346.341 478.601 346.215C478.529 346.106 478.394 346.078 478.268 346.123L478.286 346.15Z" fill="white"/>
<path d="M455.836 342.456C451.19 347.453 446.697 352.622 442.624 358.136C438.579 363.632 434.892 369.436 431.564 375.432C424.953 387.432 419.967 400.19 413.778 412.301C407.716 424.484 399.912 435.676 391.284 446.205C382.638 456.707 373.248 466.61 362.822 475.292C341.551 491.958 316.925 505.119 290.508 511.416C283.877 512.862 277.168 514.01 270.408 514.609C263.63 515.18 256.819 515.346 250.028 515.188C246.633 515.05 243.229 514.957 239.816 514.676C236.422 514.421 233.009 514.256 229.735 513.534C226.434 512.83 223.29 511.478 220.72 509.283C218.203 507.052 216.367 504.142 215.172 500.964C215.101 500.856 214.976 500.783 214.876 500.809C214.768 500.881 214.695 501.006 214.721 501.106C215.879 504.346 217.742 507.356 220.302 509.713C222.899 512.007 226.187 513.459 229.551 514.199C232.932 514.967 236.336 515.177 239.739 515.504C243.142 515.83 246.555 515.995 249.958 516.205C263.619 516.819 277.382 515.695 290.796 512.742C304.167 509.662 317.08 504.823 329.309 498.647L338.377 493.812L347.204 488.552L355.781 482.913C358.622 480.967 361.393 478.912 364.029 476.713C374.537 467.861 383.927 457.841 392.574 447.222C401.194 436.62 409.035 425.249 415.053 412.939C421.215 400.728 426.111 387.952 432.596 375.996C435.807 370 439.35 364.213 443.314 358.654C447.297 353.121 451.665 347.88 456.202 342.837C456.311 342.765 456.276 342.594 456.178 342.504C456.106 342.395 455.935 342.43 455.844 342.529L455.836 342.456Z" fill="white"/>
<path d="M66.4364 329.681C66.1994 335.47 66.9528 341.346 68.8523 346.896C70.7247 352.463 73.9511 357.607 78.2114 361.721C86.7869 369.797 98.6468 374.353 110.272 373.586C98.7283 372.94 87.5438 368.406 79.3545 360.503C75.2005 356.669 72.1168 351.742 70.0443 346.462C67.9539 341.154 66.9113 335.429 66.4364 329.681Z" fill="white"/>
<path d="M55.1603 317.32C52.5016 321.555 50.9014 326.453 50.2643 331.456C49.6002 336.477 50.0255 341.559 50.7852 346.498C51.7069 351.448 53.1606 356.32 55.22 360.871C57.2972 365.449 59.8536 369.751 62.7451 373.794C58.0929 365.004 53.9198 355.937 52.3905 346.22C51.5401 341.379 51.1318 336.441 51.5067 331.572C51.8638 326.675 53.0762 321.837 55.1425 317.293L55.1603 317.32Z" fill="white"/>
<path d="M53.6283 373.883C49.7241 369.069 46.2728 363.879 43.6706 358.324C41.0685 352.77 39.1441 346.887 38.2931 340.803C36.3475 328.679 38.5306 316.094 43.9203 304.896C37.2736 315.483 34.8167 328.598 36.67 341.055C37.6823 347.266 39.6415 353.32 42.5678 358.894C45.4763 364.441 49.2254 369.552 53.6733 373.892L53.6283 373.883Z" fill="white"/>
<path d="M427.37 209.345C420.005 203.465 410.043 200.613 400.529 202.168C395.777 202.922 391.206 204.84 387.27 207.545C383.315 210.223 379.753 213.497 376.872 217.334C373.991 221.171 371.871 225.634 370.957 230.392C369.997 235.141 370.387 240.052 371.618 244.643C374.033 253.933 379.691 261.829 385.814 268.836C385.886 268.945 386.048 268.955 386.184 268.866C386.292 268.794 386.302 268.632 386.231 268.524C380.415 261.275 375.253 253.247 373.097 244.292C372.001 239.845 371.843 235.17 372.738 230.736C373.632 226.302 375.651 222.099 378.414 218.496C381.158 214.865 384.656 211.789 388.43 209.191C392.186 206.566 396.387 204.736 400.887 203.953C409.851 202.332 419.43 204.543 427.124 209.74C427.25 209.813 427.394 209.796 427.467 209.67C427.54 209.545 427.523 209.4 427.397 209.328L427.37 209.345Z" fill="white"/>
<path d="M388.277 207.776C384.792 207.62 381.47 208.716 378.291 209.913C375.121 211.181 372.083 212.829 369.277 214.829C363.755 218.848 359.097 224.475 356.989 231.145C354.765 237.813 355.409 245.121 357.844 251.484C360.234 257.838 364.373 263.897 370.449 267.167C370.575 267.24 370.728 267.178 370.774 267.07C370.847 266.944 370.785 266.791 370.677 266.745C365.044 263.145 361.4 257.188 359.279 251.007C357.24 244.771 356.592 237.932 358.805 231.777C360.882 225.594 365.026 220.189 370.295 216.258C372.876 214.211 375.76 212.509 378.742 211.131C381.742 209.78 384.93 208.539 388.21 208.325C388.21 208.325 388.445 208.209 388.446 208.092C388.447 207.975 388.303 207.875 388.214 207.856L388.277 207.776Z" fill="white"/>
<path d="M407.655 202.067C404.699 198.339 400.472 195.872 396.107 194.081C391.677 192.37 386.99 191.45 382.226 191.358C372.706 191.13 363.115 194.755 356.046 201.151C352.467 204.281 349.513 208.244 347.637 212.663C345.76 217.082 344.989 221.941 345.318 226.698C346.038 236.131 350.29 245.495 357.764 251.304C357.863 251.394 358.034 251.36 358.125 251.261C358.215 251.163 358.18 250.991 358.082 250.901C354.517 247.961 351.931 244.028 350.103 239.83C348.248 235.649 347.099 231.121 346.931 226.608C346.745 222.068 347.523 217.516 349.316 213.385C351.127 209.28 353.936 205.569 357.36 202.618C360.767 199.64 364.657 197.16 368.911 195.528C373.147 193.87 377.692 193.096 382.25 193.052C386.809 193.007 391.389 193.764 395.72 195.267C400.007 196.761 404.271 198.93 407.311 202.371C407.382 202.479 407.544 202.489 407.653 202.418C407.762 202.346 407.772 202.184 407.7 202.076L407.655 202.067Z" fill="white"/>
<path d="M358.432 382.995C348.619 376.704 336.451 375.108 325.012 376.219C313.484 377.311 302.198 381.196 292.437 387.459C282.667 393.649 273.787 401.313 266.628 410.411C263.085 414.955 259.971 419.916 257.674 425.233C255.468 430.569 254.105 436.361 254.498 442.163C254.497 442.28 254.623 442.352 254.695 442.344C254.812 442.345 254.885 442.219 254.877 442.147C254.699 436.436 256.223 430.772 258.554 425.626C260.85 420.426 263.981 415.609 267.533 411.137C274.718 402.256 283.56 394.772 293.265 388.779C302.793 382.514 313.782 378.591 325.149 377.373C330.81 376.758 336.566 376.82 342.189 377.746C347.805 378.599 353.324 380.371 358.249 383.309C358.33 383.373 358.456 383.329 358.52 383.248C358.583 383.167 358.539 383.041 358.459 382.977L358.432 382.995Z" fill="white"/>
<path d="M375.705 371.482C370.181 366.451 363.686 362.485 356.686 359.822C349.66 357.177 342.21 355.781 334.718 355.502C319.732 354.943 304.664 358.634 291.456 365.803C278.37 373.397 268.399 385.431 261.68 398.745C255.006 412.069 251.408 427.411 253.921 442.231C253.948 442.33 254.046 442.421 254.146 442.394C254.245 442.368 254.336 442.269 254.309 442.17C253.25 434.824 253.724 427.326 255.268 420.095C256.766 412.854 259.345 405.837 262.722 399.265C269.466 386.167 279.427 374.412 292.213 367.132C305.061 360.005 319.913 356.223 334.692 356.645C349.399 357.076 364.202 362.029 375.46 371.76C375.513 371.841 375.658 371.824 375.721 371.744C375.803 371.69 375.786 371.546 375.705 371.482Z" fill="white"/>
<path d="M389.761 360.22C384.343 352.749 377.259 346.528 369.218 341.986C361.16 337.416 352.18 334.579 342.981 333.479C324.575 331.323 305.537 335.954 289.887 345.855C274.255 355.784 261.84 370.784 255.365 388.134C252.118 396.796 250.354 405.998 249.995 415.208C249.726 424.437 250.979 433.675 253.676 442.508C253.73 442.589 253.801 442.698 253.928 442.654C254.009 442.6 254.118 442.529 254.046 442.42C249.021 424.784 250.005 405.644 256.47 388.573C262.979 371.511 275.301 356.844 290.734 347.202C306.023 337.344 324.719 332.666 342.874 334.676C360.94 336.667 378.353 345.886 389.443 360.506C389.497 360.588 389.632 360.615 389.713 360.562C389.795 360.508 389.823 360.373 389.769 360.292L389.761 360.22Z" fill="white"/>
<path d="M358.14 382.138C349.893 381.538 341.538 382.253 333.49 384.204C325.441 386.154 317.673 389.358 310.511 393.601C303.401 397.926 296.925 403.272 291.442 409.48C285.915 415.678 281.364 422.711 278.017 430.273C277.971 430.381 278.015 430.507 278.105 430.526C278.213 430.572 278.312 430.545 278.358 430.437C282.055 423.111 286.829 416.359 292.365 410.35C297.917 404.368 304.285 399.093 311.312 394.939C318.286 390.704 325.9 387.562 333.814 385.466C341.701 383.389 349.932 382.367 358.128 382.534C358.246 382.534 358.336 382.436 358.31 382.337C358.311 382.22 358.23 382.156 358.14 382.138Z" fill="white"/>
<path d="M359.191 382.613C353.516 382.614 347.853 383.463 342.366 385.05C336.878 386.638 331.656 388.984 326.736 391.908C321.879 394.868 317.324 398.407 313.378 402.517C309.415 406.599 305.997 411.216 303.342 416.225C303.296 416.333 303.323 416.432 303.43 416.478C303.538 416.524 303.637 416.497 303.701 416.417C306.706 411.644 310.302 407.298 314.318 403.414C318.335 399.53 322.754 396.08 327.565 393.228C332.323 390.294 337.464 388.002 342.772 386.26C348.098 384.545 353.61 383.407 359.234 382.973C359.351 382.974 359.424 382.848 359.415 382.776C359.416 382.659 359.308 382.613 359.218 382.595L359.191 382.613Z" fill="white"/>
<path d="M448.306 336.917C440.415 347.622 432.605 358.391 424.571 368.995C416.582 379.61 408.45 390.124 399.798 400.203C391.092 410.2 382.1 419.998 372.178 428.736C362.291 437.528 351.716 445.569 340.659 452.878C318.627 467.559 294.524 479.327 269.046 486.521C256.303 490.082 243.172 492.461 229.93 492.543C223.326 492.612 216.673 492.013 210.253 490.407C203.85 488.828 197.626 486.044 192.638 481.592C197.481 486.178 203.685 489.17 210.087 490.982C216.533 492.805 223.239 493.602 229.912 493.759C243.288 493.939 256.616 491.741 269.529 488.379C295.392 481.476 319.685 469.582 342.015 454.939C353.099 447.496 363.72 439.347 373.662 430.402C383.621 421.484 392.695 411.633 401.24 401.391C409.767 391.122 417.766 380.463 425.531 369.686C433.242 358.827 440.72 347.849 448.288 336.89L448.306 336.917Z" fill="white"/>
<path d="M229.441 280.353C225.683 277.89 221.022 275.826 216.409 274.547C211.752 273.258 206.9 272.679 202.045 272.686C192.326 272.627 182.761 275.109 173.854 278.828C169.392 280.674 165.098 282.954 160.957 285.288C156.77 287.613 152.558 289.839 148.3 292.055C144.088 294.281 139.812 296.471 135.502 298.489C131.183 300.435 126.826 302.678 122.262 303.659L122.207 303.695C122.207 303.695 121.99 303.838 122.017 303.937C122.043 304.036 122.141 304.127 122.258 304.127C124.738 303.818 126.977 302.967 129.271 302.198C131.546 301.401 133.768 300.523 135.981 299.573C140.408 297.672 144.727 295.609 149.011 293.492C153.304 291.329 157.562 289.113 161.739 286.833C165.988 284.544 170.111 282.299 174.501 280.462C183.2 276.723 192.53 274.357 201.981 274.126C211.495 273.932 220.85 275.978 229.42 280.794C229.501 280.858 229.627 280.813 229.646 280.724C229.709 280.643 229.683 280.544 229.575 280.498L229.306 280.325L229.441 280.353Z" fill="white"/>
<path d="M536.623 419.798C532.309 415.602 526.989 412.418 521.337 410.268C515.668 408.09 509.64 406.964 503.598 406.585C497.556 406.324 491.445 406.845 485.563 408.187C479.663 409.502 473.974 411.611 468.587 414.298C468.478 414.37 468.406 414.495 468.477 414.604C468.548 414.712 468.656 414.758 468.782 414.714C474.328 412.505 480.05 410.801 485.859 409.702C491.667 408.602 497.589 408.089 503.496 408.44C509.376 408.691 515.242 409.808 520.805 411.705C526.359 413.648 531.683 416.364 536.297 420.129C536.395 420.22 536.539 420.203 536.63 420.104C536.721 420.006 536.704 419.862 536.605 419.771L536.623 419.798Z" fill="white"/>
</svg>
