<svg width="574" height="528" viewBox="0 0 574 528" fill="none" xmlns="http://www.w3.org/2000/svg">
<path d="M43.8443 298.284L43.999 298.459C42.6741 294.744 42.0074 289.826 46.4345 284.224L46.6167 284.172C60.8745 318.945 121.833 358.031 197.621 368.256C236.631 373.533 289.526 366.903 331.126 362.389C333.638 365.818 334.486 366.919 337.293 370.124C351.84 386.625 370.515 398.888 388.949 410.919L426.513 476.57C416.179 491.915 392.927 500.876 374.299 499.984C355.671 499.093 338.004 491.603 321.304 483.264C290.187 467.734 260.732 448.886 233.666 427.149L231.485 428.009C187.673 442.282 113.009 436.021 60.7313 385.247C45.2229 370.203 37.3615 347.831 42.9684 334.311C40.8421 328.566 40.2539 322.729 42.1118 316.673C40.2798 311.712 39.9094 305.564 43.8987 298.332L43.8443 298.284Z" fill="#123A8F" stroke="white" stroke-width="0.46" stroke-miterlimit="10"/>
<path d="M78.1291 40.427C80.5649 29.9557 83.6995 19.638 87.1938 9.48387C106.828 36.9929 135.984 57.7104 168.516 67.3346C193.787 74.8117 222.276 76.4296 242.297 93.4561C258.707 107.397 266.146 129.589 266.578 150.944C267.002 172.331 252.604 200.837 261.502 226.242L260.418 228.405C268.603 243.672 274.011 258.631 279.379 274.117C280.341 276.929 281.465 279.885 282.691 282.969L321.67 362.914C282.416 367.082 236.751 372.96 197.772 367.692C110.561 355.918 42.9682 305.947 43.6115 268.277C35.8399 260.381 31.3762 250.682 33.0261 235.362L33.4799 235.551C28.8763 227.63 27.2551 218.995 30.2066 209.738L30.2379 209.746C26.1222 201.384 24.4505 191.056 27.5961 178.187L28.1542 178.739C23.5046 170.739 22.1232 160.958 30.0476 148.328L30.3423 148.609C27.6022 139.506 27.7622 130.374 32.6148 121.929L33.4133 122.714C30.566 112.003 29.8137 100.879 32.0096 89.6714L32.0556 89.751C33.754 78.141 38.2719 67.5555 45.5501 58.7177C53.4232 49.1656 64.608 42.3156 76.749 39.5531L78.1291 40.427Z" fill="#A1CBD3"/>
<path d="M78.1291 40.427C80.5649 29.9557 83.6995 19.638 87.1938 9.48387C106.828 36.9929 135.984 57.7104 168.516 67.3346C193.787 74.8117 222.276 76.4296 242.297 93.4561C258.707 107.397 266.146 129.589 266.578 150.944C267.002 172.331 252.604 200.837 261.502 226.242L260.418 228.405C268.603 243.672 274.011 258.631 279.379 274.117C280.341 276.929 281.465 279.885 282.691 282.969L321.67 362.914C282.416 367.082 236.751 372.96 197.772 367.692C110.561 355.918 42.9682 305.947 43.6115 268.277C35.8399 260.381 31.3762 250.682 33.0261 235.362L33.4799 235.551C28.8763 227.63 27.2551 218.995 30.2066 209.738L30.2379 209.746C26.1222 201.384 24.4505 191.056 27.5961 178.187L28.1542 178.739C23.5046 170.739 22.1232 160.958 30.0476 148.328L30.3423 148.609C27.6022 139.506 27.7622 130.374 32.6148 121.929L33.4133 122.714C30.566 112.003 29.8137 100.879 32.0096 89.6714L32.0556 89.751C33.754 78.141 38.2719 67.5555 45.5501 58.7177C53.4232 49.1656 64.608 42.3156 76.749 39.5531L78.1291 40.427Z" fill="#A1CBD3"/>
<path d="M295.764 162.26C316.048 154.588 339.031 156.545 359.672 163.353C375.032 168.41 390.133 176.187 404.109 184.401C417.887 176.028 462.993 146.004 473.589 125.789C517.243 173.983 523.506 220.393 527.233 238.363C533.405 268.045 532.249 299.091 520.195 326.881C508.142 354.671 489.425 378.961 470.918 402.972L470.253 400.811L470.11 401.344C470.046 402.335 470.054 403.311 469.99 404.302C471.41 417.454 469.573 431.715 461.41 442.097C453.103 452.642 440.534 459.76 427.149 461.517C418.961 462.582 410.035 461.502 403.621 456.321C396.601 450.642 394.011 441.48 392.261 432.575C388.751 428.98 383.732 419.973 377.59 416.915C343.228 399.81 334.451 393.157 327.664 382.466C324.263 377.085 319.964 367.901 322.923 363.384C322.923 363.384 290.565 306.924 278.896 273.282C274.747 261.281 270.138 248.485 264.48 236.215L263.018 233.135L258.201 211.075L257.532 210.055C260.265 189.817 275.575 169.957 295.858 162.285L295.764 162.26Z" fill="#123A8F"/>
<path d="M295.764 162.26C316.048 154.588 339.031 156.545 359.672 163.353C375.032 168.41 389.34 176.008 403.324 184.191C436.219 203.255 459.058 216.668 470.933 224.689C430.528 215.207 407.185 241.45 401.376 268.023C397.88 283.957 403.2 299.498 407.961 308.839C420.681 333.79 469.328 333.348 470.918 402.972L470.253 400.811L470.11 401.344C470.046 402.335 470.054 403.311 469.99 404.303C461.8 381.776 452.284 361.313 433.014 349.26C403.015 330.434 370.456 314.888 354.234 298.241C328.457 275.707 298.164 203.131 258.369 210.448C258.637 195.766 275.575 169.957 295.858 162.285L295.764 162.26Z" fill="#123A8F" stroke="white" stroke-width="0.28" stroke-linecap="round" stroke-linejoin="round"/>
<path d="M259.066 210.231C258.746 203.894 259.269 197.548 260.366 191.322C261.463 185.096 263.109 178.951 264.505 172.737C265.869 166.516 267.022 160.204 267.121 153.812C267.251 147.428 266.68 141.024 265.508 134.728C263.077 122.213 258.12 109.962 249.838 100.081C241.661 90.059 230.046 83.4517 218.021 79.255C205.941 75.0101 193.389 72.6549 181.068 69.6895C174.899 68.2381 168.788 66.5673 162.81 64.5286C156.849 62.4271 151.012 59.9892 145.321 57.2545C122.64 46.136 102.611 29.511 87.8723 8.9597C87.6028 8.58501 87.1153 8.52161 86.7489 8.75949C86.6211 8.85969 86.5164 8.99966 86.443 9.14803C81.7461 22.9119 77.6828 36.9465 75.151 51.2905C72.6191 65.6345 71.6102 80.3194 73.0705 94.8258C73.7536 102.066 75.0351 109.333 77.315 116.262C79.5866 123.222 82.8963 129.822 87.1149 135.792C91.2936 141.785 96.3183 147.131 101.745 151.979C107.212 156.805 113.186 160.993 119.281 164.979C119.398 165.044 119.532 165.046 119.606 164.898C119.671 164.781 119.641 164.638 119.524 164.573C113.509 160.542 107.614 156.307 102.227 151.436C96.8713 146.573 91.9575 141.19 87.9043 135.231C79.6241 123.333 75.5208 109.026 74.3575 94.6665C72.9745 80.2481 74.0126 65.7055 76.6134 51.4807C79.1828 37.2476 83.2606 23.2842 88.0035 9.59977L86.5742 9.78811C101.411 30.6009 121.544 47.59 144.547 58.7612C150.301 61.5127 156.241 63.9445 162.265 66.0628C168.314 68.0869 174.495 69.7432 180.704 71.1717C193.074 74.0828 205.603 76.3982 217.543 80.5383C229.428 84.6303 240.793 91.0365 248.81 100.78C256.963 110.392 261.907 122.437 264.358 134.755C265.523 140.949 266.111 147.29 266.046 153.557C266.004 159.864 264.962 166.138 263.645 172.306C262.321 178.504 260.737 184.667 259.726 190.949C258.684 197.223 258.246 203.626 258.629 209.979C258.627 210.113 258.735 210.21 258.869 210.212C259.003 210.214 259.1 210.106 259.102 209.972L259.066 210.231Z" fill="white"/>
<path d="M470.543 403.745C471.47 411.958 471.156 420.41 468.856 428.364C467.726 432.33 466 436.135 463.729 439.593C461.457 443.051 458.562 446.073 455.475 448.808C449.215 454.222 441.704 458.157 433.664 460.171C429.661 461.182 425.521 461.82 421.425 461.294C417.343 460.838 413.345 459.566 409.69 457.645C406.034 455.725 402.72 453.156 400.23 449.901C397.707 446.638 396.077 442.806 394.922 438.834C393.767 434.861 393.078 430.778 392.327 426.678L390.065 414.411C386.981 398.058 383.928 381.713 380.172 365.482C379.176 361.418 378.274 357.379 376.851 353.401C375.238 349.508 373.258 345.852 371.136 342.225C366.914 335.011 361.928 328.264 356.455 321.958C353.694 318.832 350.805 315.806 347.644 313.044C344.421 310.264 340.903 308.078 337.604 305.581C331.022 300.524 324.834 295.001 318.896 289.175C295.294 265.678 277.024 237.594 258.924 209.756L259.043 210.191C259.652 199.634 264.272 189.546 271.049 181.448C277.835 173.319 286.757 167.005 296.646 163.236C306.543 159.435 317.26 157.971 327.868 158.293C338.508 158.623 349.024 160.668 359.151 163.919C379.489 170.478 397.987 181.518 416.272 192.601C434.563 203.786 453.244 214.27 471.099 226.078L472.007 224.574C467.086 221.978 461.489 221.151 456.051 221.239C450.604 221.36 445.222 222.371 440.072 224.015C429.852 227.393 420.099 232.913 412.941 241.178C399.185 258.127 396.212 282.401 404.103 302.529C406.106 307.603 409.182 312.191 412.906 316.113C416.623 320.066 420.909 323.399 425.262 326.481C433.969 332.645 443.31 338.072 450.565 345.763C457.723 353.562 462.478 363.306 465.357 373.521C468.356 383.667 470.804 394.237 470.194 404.794L471.293 404.585C466.059 393.369 460.429 382.249 453.589 371.88C450.129 366.718 446.383 361.749 442.204 357.134C437.938 352.596 433.193 348.468 428.034 345.002C422.884 341.505 417.369 338.616 411.838 335.789C406.338 332.971 400.854 330.091 395.476 327.07C384.695 320.989 374.28 314.299 364.558 306.653C354.827 299.039 345.901 290.429 337.912 280.962C329.882 271.518 323.185 261.12 316.575 250.645C313.226 245.445 309.735 240.276 305.772 235.483C301.81 230.691 297.328 226.331 292.388 222.554C287.479 218.785 282.153 215.443 276.457 212.976C270.794 210.517 264.501 208.898 258.269 209.816C258.127 209.845 258.062 209.962 258.06 210.096C258.057 210.23 258.206 210.303 258.34 210.306C264.43 209.417 270.668 210.987 276.26 213.461C281.933 215.888 287.187 219.245 292.065 223.005C302.011 230.443 309.423 240.562 316.049 250.974C322.628 261.441 329.332 271.942 337.353 281.417C345.334 290.916 354.274 299.596 364.051 307.29C373.796 314.976 384.257 321.745 395.029 327.858C400.431 330.918 405.914 333.799 411.406 336.648C416.898 339.498 422.381 342.379 427.477 345.828C432.573 349.277 437.241 353.317 441.444 357.838C445.568 362.404 449.292 367.334 452.689 372.479C459.474 382.799 465.05 393.871 470.253 405.079C470.374 405.38 470.71 405.504 471.012 405.383C471.202 405.3 471.324 405.097 471.343 404.901C471.957 394.075 469.494 383.434 466.521 373.194C463.627 362.908 458.806 352.912 451.501 344.905C444.037 336.99 434.673 331.523 426.029 325.376C417.352 319.354 409.217 311.932 405.419 302.008C397.756 282.412 400.777 258.587 414.137 242.238C421.006 234.299 430.551 228.925 440.542 225.654C445.548 224.038 450.78 223.087 456.022 222.979C461.224 222.894 466.553 223.717 471.122 226.118C471.536 226.33 472.082 226.174 472.294 225.76C472.506 225.346 472.364 224.871 471.998 224.605C454.097 212.717 435.481 202.117 417.165 191.025C398.872 179.973 380.216 168.892 359.619 162.297C349.359 159.044 338.645 156.98 327.863 156.679C317.081 156.377 306.151 157.885 296.024 161.792C285.928 165.707 276.798 172.167 269.86 180.491C262.93 188.783 258.226 199.185 257.595 210.072C257.553 210.229 257.614 210.38 257.714 210.508C275.894 238.299 294.289 266.417 318.039 289.988C324.009 295.822 330.26 301.362 336.904 306.436C340.235 308.941 343.798 311.207 346.89 313.85C349.997 316.564 352.862 319.55 355.623 322.676C361.082 328.911 366.045 335.618 370.252 342.761C372.36 346.317 374.362 350.012 375.915 353.756C377.301 357.622 378.265 361.678 379.239 365.703C383.011 381.871 386.127 398.232 389.211 414.585L391.505 426.861C392.264 430.93 392.976 435.052 394.145 439.096C395.292 443.1 396.991 447.051 399.591 450.402C402.159 453.745 405.582 456.41 409.3 458.347C413.018 460.285 417.11 461.583 421.294 462.032C425.493 462.552 429.744 461.876 433.779 460.873C441.889 458.846 449.52 454.841 455.805 449.333C458.94 446.544 461.812 443.482 464.132 439.97C466.421 436.449 468.155 432.613 469.302 428.584C471.595 420.528 471.886 412.036 470.944 403.752C470.947 403.618 470.807 403.513 470.696 403.551C470.562 403.549 470.457 403.689 470.495 403.799L470.543 403.745Z" fill="white"/>
<path d="M471.799 403.073C487.532 382.89 503.463 362.592 515.332 339.76C518.303 334.07 521.071 328.258 523.416 322.266C525.73 316.265 527.551 310.099 528.963 303.823C531.788 291.271 532.666 278.332 532.108 265.479C531.844 259.057 531.139 252.651 530.119 246.294C529.066 239.93 527.744 233.694 526.51 227.381C523.961 214.801 520.425 202.394 515.652 190.461C506.225 166.527 491.973 144.661 474.782 125.604L474.418 125.204L474.158 125.672C470.454 132.342 465.058 137.92 459.533 143.228C453.977 148.528 448.002 153.38 441.967 158.081C429.825 167.498 417.159 176.236 404.117 184.369C417.251 176.395 430.017 167.784 442.291 158.504C448.411 153.859 454.363 148.968 459.983 143.685C465.539 138.385 471.006 132.793 474.807 126.014L474.183 126.082C491.24 145.137 505.335 166.961 514.645 190.83C519.396 202.723 522.743 215.08 525.371 227.614C526.614 233.895 527.991 240.179 529.028 246.473C530.066 252.766 530.779 259.141 531.091 265.509C531.674 278.268 530.885 291.13 528.116 303.596C526.743 309.849 524.931 315.984 522.688 321.97C520.414 327.947 517.654 333.728 514.723 339.395C502.911 362.141 487.323 382.666 471.807 403.042L471.799 403.073Z" fill="white"/>
<path d="M474.53 126.546C477.417 150.038 475.888 173.691 474.179 197.262C472.448 220.794 470.829 244.658 474.147 268.299C475.834 280.077 478.728 291.741 483.059 302.816C485.124 308.41 487.745 313.817 490.336 319.082C492.804 324.18 493.376 330.08 493.169 335.872C492.667 347.534 489.395 358.991 485.547 370.092C481.658 381.216 476.908 392.041 471.617 402.622C471.544 402.77 471.596 402.952 471.776 403.034C471.925 403.107 472.107 403.055 472.18 402.907C477.736 392.465 482.8 381.723 487.019 370.621C491.073 359.508 494.567 347.976 495.263 335.963C495.552 329.991 495.073 323.746 492.377 318.117C489.803 312.789 487.283 307.51 485.263 301.995C481.033 291.048 478.261 279.551 476.626 267.955C473.185 244.651 474.825 220.96 476.234 197.376C476.943 185.568 477.589 173.743 477.605 161.884C477.59 150.017 476.866 138.161 475.162 126.446C475.141 126.272 474.97 126.159 474.796 126.18C474.623 126.201 474.509 126.372 474.53 126.546Z" fill="white"/>
<path d="M321.182 368.126C294.22 368.464 267.829 374.331 241.287 377.873C214.839 381.439 187.583 383.378 161.573 376.778C148.567 373.73 135.891 369.326 123.65 363.928C111.408 358.531 99.5926 352.172 88.4727 344.723C77.3841 337.282 66.9202 328.765 58.1046 318.74C53.6967 313.728 49.8168 308.252 46.8517 302.249C45.3649 299.263 43.8636 296.205 43.666 292.926C43.4058 289.63 44.7441 286.393 46.7492 283.804C46.8455 283.696 46.8164 283.554 46.7077 283.457C46.599 283.361 46.4566 283.39 46.3603 283.499C44.2756 286.133 42.8011 289.502 43.0508 292.963C43.1979 296.43 44.7452 299.567 46.1922 302.576C49.0609 308.688 52.9074 314.29 57.2732 319.459C66.053 329.743 76.6026 338.316 87.689 345.891C98.8465 353.451 110.691 359.952 122.97 365.46C135.258 370.937 147.994 375.493 161.14 378.645C174.254 381.789 187.841 383.044 201.295 382.784C214.765 382.596 228.168 381.146 241.484 379.27C254.8 377.393 268.014 375.019 281.247 372.952C294.496 370.823 307.773 368.97 321.19 368.599C321.324 368.601 321.42 368.493 321.422 368.359C321.424 368.225 321.316 368.129 321.182 368.126Z" fill="white"/>
<path d="M392.265 432.308C385.86 430.356 379.295 429.504 372.74 428.487C366.177 427.502 359.562 426.838 352.933 426.474C339.645 425.736 326.38 426.416 313.149 426.971C299.916 427.66 286.71 428.121 273.524 427.881C260.298 427.664 247.108 426.684 233.967 425.146C233.842 425.112 233.714 425.212 233.712 425.346C233.678 425.472 233.778 425.599 233.912 425.602C247.013 427.667 260.213 428.986 273.483 429.416C286.744 429.877 300.021 429.402 313.26 428.816C326.494 428.127 339.679 427.493 352.869 427.969C359.46 428.222 366.038 428.775 372.611 429.596C379.154 430.408 385.809 431.048 392.139 432.778C392.139 432.778 392.384 432.743 392.417 432.617C392.451 432.492 392.382 432.373 392.257 432.339L392.265 432.308Z" fill="white"/>
<path d="M425.836 477.465C420.597 484.967 412.741 490.188 404.395 493.598C396.018 496.999 386.989 498.815 377.975 498.819C359.815 498.692 342.442 491.987 326.2 484.072C309.856 476.164 293.937 467.295 278.52 457.685C263.11 448.045 248.17 437.656 233.771 426.505C247.768 438.154 262.505 448.924 277.824 458.776C293.143 468.628 309.084 477.537 325.466 485.556C341.836 493.37 359.443 500.205 377.946 500.055C387.145 499.865 396.238 497.932 404.643 494.303C412.994 490.626 420.76 485.112 425.773 477.448L425.836 477.465Z" fill="white"/>
<path d="M260.403 216.034C258.407 210.558 255.798 205.356 252.841 200.329C249.835 195.356 246.391 190.636 242.772 186.07C235.366 177.062 227.079 168.826 218.238 161.281C200.646 145.981 180.556 133.978 161.478 120.833C142.359 107.846 123.637 93.6215 109.541 75.1915C102.507 66.0477 96.6082 55.9309 92.763 45.0536C90.8603 39.6035 89.37 33.9951 88.6226 28.2496C87.9066 22.5125 87.8455 16.7157 88.4456 10.9616C88.4708 10.8676 88.3706 10.7399 88.2681 10.746C88.1739 10.7208 88.0461 10.821 88.0523 10.9235C87.3726 16.7234 87.3227 22.5577 87.9508 28.3721C88.5873 34.155 90.0126 39.8805 91.8273 45.4078C95.6619 56.4503 101.527 66.6925 108.598 75.9472C122.73 94.6219 141.447 109.114 160.59 122.141C179.796 135.185 199.896 147.024 217.459 162.182C226.317 169.663 234.557 177.82 241.997 186.703C245.642 191.174 249.142 195.809 252.196 200.728C255.21 205.669 257.898 210.825 259.951 216.215C259.989 216.326 260.114 216.359 260.186 216.345C260.296 216.307 260.33 216.182 260.284 216.102L260.403 216.034Z" fill="white"/>
<path d="M526.519 298.261C528.511 286.058 528.498 273.553 526.915 261.265C525.299 248.969 521.947 236.879 517.094 225.497C512.383 214.085 507.276 202.769 501.184 191.995C498.122 186.604 494.892 181.336 491.177 176.375C487.445 171.477 483.286 166.666 477.991 163.331C477.874 163.266 477.74 163.264 477.667 163.412C477.602 163.529 477.631 163.672 477.748 163.737C482.812 167.177 486.758 172.032 490.299 177.014C493.833 182.027 496.991 187.31 499.911 192.73C505.679 203.585 510.859 214.752 515.427 226.193C520.187 237.55 523.654 249.335 525.343 261.482C527.143 273.593 527.488 285.986 526.094 298.215C526.061 298.34 526.161 298.468 526.295 298.47C526.42 298.504 526.548 298.404 526.55 298.27L526.519 298.261Z" fill="white"/>
<path d="M519.655 308.689C520.704 297.745 520.385 286.636 518.833 275.735C517.29 264.802 514.482 254.069 510.699 243.712C506.805 233.393 501.913 223.412 495.961 214.121C490.009 204.83 482.998 196.23 474.977 188.636C474.869 188.54 474.726 188.569 474.638 188.646C474.55 188.724 474.571 188.897 474.648 188.985C482.255 196.871 488.916 205.646 494.632 214.941C500.347 224.236 505.171 234.098 508.939 244.383C512.795 254.591 515.565 265.214 517.316 276.001C519.036 286.779 519.759 297.761 519.183 308.697C519.149 308.822 519.289 308.927 519.415 308.96C519.54 308.994 519.636 308.885 519.67 308.76L519.655 308.689Z" fill="white"/>
<path d="M512.863 321.488C513.406 311.552 513.052 301.576 511.705 291.671C510.388 281.774 508.092 272.017 504.909 262.561C501.654 253.119 497.512 243.977 492.344 235.4C487.208 226.832 481.108 218.846 474.175 211.712C474.098 211.624 473.924 211.644 473.836 211.722C473.748 211.799 473.769 211.972 473.815 212.052C480.356 219.518 486.092 227.608 490.992 236.18C495.892 244.753 499.996 253.784 503.103 263.152C506.351 272.492 508.609 282.137 510.133 291.888C511.648 301.671 512.366 311.542 512.327 321.479C512.325 321.613 512.433 321.709 512.567 321.712C512.693 321.745 512.798 321.605 512.8 321.471L512.863 321.488Z" fill="white"/>
<path d="M504.815 338.723C505.993 329.931 506.402 321 505.802 312.068C505.225 303.176 503.663 294.322 501.119 285.742C498.496 277.209 494.859 268.942 490.211 261.311C485.563 253.68 479.935 246.694 473.57 240.452C473.493 240.364 473.319 240.384 473.231 240.462C473.143 240.539 473.164 240.712 473.21 240.792C485.111 253.861 494.34 269.374 499.33 286.271C501.924 294.662 503.489 303.382 504.264 312.16C505.04 320.938 505.018 329.804 504.335 338.628C504.302 338.754 504.433 338.89 504.536 338.884C504.662 338.917 504.758 338.809 504.792 338.683L504.815 338.723Z" fill="white"/>
<path d="M498.014 355.317C499.71 347.605 500.528 339.658 500.369 331.718C500.241 323.786 499.136 315.861 497.24 308.127C495.233 300.431 492.434 292.926 488.769 285.895C485.113 278.832 480.589 272.243 475.354 266.303C475.276 266.215 475.111 266.204 475.023 266.282C474.935 266.359 474.933 266.493 475.002 266.612C479.783 272.867 483.942 279.56 487.402 286.604C490.831 293.639 493.6 301.002 495.459 308.624C497.437 316.178 498.504 323.992 498.862 331.818C499.189 339.635 498.758 347.518 497.581 355.302C497.547 355.428 497.647 355.555 497.781 355.558C497.907 355.591 498.035 355.491 498.037 355.357L498.014 355.317Z" fill="white"/>
<path d="M426.916 231.95C424.816 232.631 423.191 234.178 421.794 235.753C420.419 237.368 419.24 239.135 418.177 240.968C416.051 244.633 414.403 248.527 413.028 252.527C410.404 260.562 408.862 268.954 408.87 277.459C408.832 285.884 410.844 294.69 415.794 301.696C420.442 308.823 426.28 315.025 432.353 320.853C438.474 326.627 444.835 332.129 450.981 337.809C457.127 343.489 463.032 349.44 467.748 356.316C472.671 363.046 475.119 371.23 475.516 379.536C475.962 387.789 474.739 396.367 470.514 403.603C470.449 403.72 470.446 403.854 470.595 403.927C470.712 403.992 470.854 403.963 470.919 403.846C475.413 396.615 476.905 387.907 476.644 379.469C476.383 371.031 473.83 362.483 468.864 355.539C464.128 348.49 458.193 342.396 452.064 336.654C445.935 330.912 439.622 325.355 433.572 319.567C427.554 313.787 421.697 307.781 417.132 300.845C412.289 294.069 410.307 285.775 410.24 277.49C410.111 269.188 411.565 260.873 414.061 252.938C415.325 248.975 416.84 245.079 418.831 241.412C419.823 239.594 420.909 237.801 422.212 236.201C423.515 234.601 425.052 233.131 426.955 232.431C426.955 232.431 427.139 232.245 427.102 232.135C427.064 232.024 426.916 231.95 426.805 231.988L426.916 231.95Z" fill="white"/>
<path d="M456.956 222.255C450.653 226.448 445.134 231.858 440.799 238.124C436.486 244.429 433.413 251.503 431.447 258.841C429.473 266.209 428.605 273.841 428.974 281.501C429.209 289.159 431.66 296.706 435.235 303.444C438.873 310.199 443.619 316.21 448.702 321.84C453.737 327.524 459.333 332.62 464.186 338.356C469.047 344.061 473.73 350.055 477.85 356.267C481.876 362.454 484.691 369.896 483.526 377.381C483.492 377.506 483.593 377.634 483.727 377.636C483.852 377.67 483.98 377.57 483.982 377.436C485.417 369.822 482.757 362.052 478.83 355.622C474.698 349.205 470.1 343.268 465.25 337.398C460.399 331.527 454.851 326.378 449.919 320.687C444.938 315.051 440.381 309.091 436.866 302.503C429.219 289.498 429.154 273.551 432.782 259.131C436.419 244.68 444.861 231.247 457.211 222.559C457.33 222.49 457.341 222.325 457.295 222.245C457.226 222.126 457.061 222.115 456.981 222.161L456.956 222.255Z" fill="white"/>
<path d="M473.687 226.334C468.17 229.729 462.586 233.375 458.481 238.526C454.254 243.51 450.933 249.375 449.197 255.732C445.423 268.433 446.906 282.105 450.812 294.511C452.844 300.735 455.564 306.773 459.128 312.299C462.638 317.776 466.355 323.108 470.072 328.439C477.451 339.053 484.533 350.025 488.599 362.339C488.636 362.45 488.785 362.523 488.896 362.486C489.007 362.449 489.08 362.3 489.043 362.189C487.185 355.945 484.661 349.925 481.558 344.187C478.454 338.448 474.944 332.971 471.315 327.562C467.726 322.131 464.001 316.831 460.585 311.379C457.153 305.989 454.533 300.078 452.579 293.942C448.636 281.795 447.219 268.51 450.663 256.158C453.81 243.66 462.885 233.388 473.917 226.732C474.036 226.663 474.07 226.538 474.001 226.418C473.932 226.299 473.807 226.265 473.687 226.334Z" fill="white"/>
<path d="M491.037 356.002C493.683 346.125 491.028 335.701 486.83 326.645C482.531 317.461 476.113 309.658 470.863 301.261C468.223 297.059 465.693 292.818 464.068 288.216C462.451 283.581 461.602 278.716 461.565 273.833C461.46 264.059 465.335 254.242 472.611 247.42C472.699 247.343 472.71 247.178 472.632 247.09C472.555 247.002 472.39 246.991 472.302 247.068C468.505 250.319 465.324 254.407 463.238 259.057C461.159 263.676 460.066 268.76 459.981 273.846C459.928 278.94 460.789 284.01 462.427 288.818C464.096 293.634 466.646 298.048 469.349 302.267C474.796 310.683 481.119 318.461 485.511 327.3C487.722 331.723 489.393 336.406 490.424 341.219C491.455 346.032 491.718 351.076 490.598 355.885C490.564 356.01 490.633 356.129 490.758 356.163C490.884 356.196 491.003 356.128 491.037 356.002Z" fill="white"/>
<path d="M476.128 167.772C470.843 167.667 465.515 168.222 460.316 169.551C455.125 170.849 450.166 172.914 445.483 175.457C440.846 178.079 436.461 181.139 432.394 184.519C428.295 187.891 424.492 191.543 420.743 195.243C420.655 195.321 420.675 195.494 420.753 195.582C420.83 195.67 420.972 195.641 421.083 195.604C425.165 192.295 429.232 188.915 433.382 185.725C437.556 182.575 441.83 179.553 446.425 177.088C455.478 171.918 465.69 169.075 476.167 168.253C476.301 168.256 476.398 168.147 476.4 168.013C476.402 167.879 476.293 167.783 476.16 167.781L476.128 167.772Z" fill="white"/>
<path d="M475.507 191.804C468.985 190.291 461.962 190.897 455.634 193.301C449.352 195.785 443.705 199.918 439.552 205.123C439.456 205.232 439.485 205.374 439.594 205.471C439.679 205.527 439.813 205.529 439.901 205.452C444.867 201.103 450.225 197.296 456.306 195.061C462.335 192.643 468.879 191.943 475.444 192.291C475.57 192.325 475.675 192.185 475.708 192.059C475.742 191.934 475.633 191.837 475.539 191.812L475.507 191.804Z" fill="white"/>
<path d="M474.112 212.199C471.149 211.708 468.136 211.909 465.158 212.354C462.232 212.982 459.153 213.804 456.896 215.954C456.808 216.032 456.797 216.197 456.874 216.285C456.952 216.373 457.054 216.367 457.125 216.352C459.861 215.304 462.59 214.657 465.474 214.187C468.321 213.605 471.185 213.331 474.12 212.672C474.262 212.643 474.327 212.526 474.298 212.384C474.292 212.281 474.206 212.225 474.112 212.199Z" fill="white"/>
<path d="M448.475 222.402C433.576 213.369 419.163 203.525 404.127 194.623C396.614 190.156 388.874 186.032 380.841 182.502C372.782 179.066 364.47 176.2 355.939 174.149C347.416 172.067 338.692 170.738 329.894 170.565C325.5 170.396 321.105 170.731 316.74 171.208C312.372 171.818 308.055 172.745 303.864 174.076C295.521 176.848 287.63 181.32 281.388 187.545C278.295 190.682 275.519 194.139 273.382 197.969C271.246 201.8 269.468 205.927 269.024 210.345C268.99 210.471 269.09 210.598 269.224 210.601C269.35 210.634 269.486 210.503 269.48 210.4C270.024 206.11 271.872 202.102 274.045 198.382C276.25 194.671 279.064 191.325 282.147 188.354C288.361 182.356 296.053 177.999 304.252 175.39C308.363 174.105 312.624 173.264 316.889 172.659C321.175 172.228 325.49 171.939 329.844 172.131C338.492 172.365 347.096 173.763 355.508 175.882C363.903 178.064 372.203 180.725 380.184 184.074C388.148 187.485 395.882 191.506 403.421 195.879C410.96 200.251 418.329 204.881 425.738 209.487C433.163 214.031 440.668 218.529 448.255 222.847C448.372 222.912 448.515 222.883 448.58 222.766C448.645 222.649 448.615 222.507 448.498 222.442L448.475 222.402Z" fill="white"/>
<path d="M432.094 228.061C400.556 204.185 378.635 189.102 336.04 185.654C303.259 182.987 282.057 202.747 280.883 215.539" stroke="white" stroke-width="0.37" stroke-miterlimit="10"/>
<path d="M347.681 205.846C342.895 204.127 337.881 202.884 332.715 202.71C327.565 202.473 322.333 203.423 317.548 205.468C312.809 207.593 308.564 210.757 305.074 214.493C301.576 218.261 298.747 222.544 296.34 227.007C296.306 227.133 296.336 227.275 296.421 227.332C296.547 227.365 296.649 227.359 296.746 227.251C299.581 223.07 302.642 219.051 306.167 215.559C309.693 212.068 313.73 209.049 318.277 207.142C322.754 205.116 327.702 204.223 332.673 204.245C337.653 204.235 342.612 205.059 347.523 206.308C347.649 206.342 347.768 206.273 347.802 206.147C347.835 206.022 347.766 205.903 347.641 205.869L347.681 205.846Z" fill="white"/>
<path d="M419.979 233.99C415.987 230.063 411.489 226.64 406.452 223.979C401.38 221.444 395.747 220.002 390.156 219.781C390.03 219.747 389.926 219.887 389.892 220.013C389.867 220.107 389.967 220.235 390.061 220.26C395.475 221.643 400.769 223.095 405.596 225.666C410.505 228.056 414.973 231.337 419.673 234.378C419.791 234.443 419.924 234.445 419.998 234.297C420.054 234.211 420.057 234.077 419.979 233.99Z" fill="white"/>
<path d="M401.405 278.584C396.364 276.561 391.25 274.687 385.971 273.306C380.699 271.893 375.236 271.068 369.689 271.061C364.172 271.195 358.63 272.298 353.618 274.686C348.646 277.05 344.156 280.754 341.586 285.577C344.811 281.198 349.323 278.038 354.202 276.018C359.113 274.007 364.41 272.94 369.721 272.951C375.042 272.797 380.371 273.62 385.624 274.725C390.877 275.83 396.1 277.297 401.365 278.607L401.405 278.584Z" fill="white"/>
<path d="M401.855 293.223C398.743 293.162 395.617 293.534 392.607 294.475C389.597 295.416 386.798 296.952 384.337 298.981C381.939 301.027 379.928 303.513 378.416 306.267C376.874 309.012 375.816 311.955 375.018 314.934C374.993 315.028 375.039 315.108 375.133 315.133C375.196 315.15 375.306 315.112 375.323 315.05C377.522 309.354 380.459 303.789 385.148 299.971C389.737 296.025 395.756 294.143 401.856 293.593C401.951 293.618 402.015 293.501 402.001 293.43C402.018 293.367 401.94 293.279 401.838 293.285L401.855 293.223Z" fill="white"/>
<path d="M412.584 314.178C410.306 313.265 407.865 312.712 405.369 312.615C402.873 312.517 400.345 312.915 397.99 313.796C395.65 314.749 393.514 316.193 391.813 318.023C390.081 319.844 388.8 321.987 387.802 324.207C387.776 324.301 387.791 324.372 387.877 324.429C387.939 324.446 388.042 324.439 388.067 324.345C390.61 320.254 393.949 316.578 398.428 314.922C402.807 313.138 407.768 313.325 412.454 314.412C412.548 314.437 412.628 314.392 412.653 314.297C412.67 314.235 412.624 314.155 412.57 314.107L412.584 314.178Z" fill="white"/>
<path d="M430.898 329.168C427.636 327.789 423.758 328.33 420.603 329.938C417.494 331.625 414.838 334.509 414.142 337.986C415.768 334.927 418.196 332.519 421.152 331.026C424.071 329.422 427.43 328.809 430.867 329.159L430.898 329.168Z" fill="white"/>
<path d="M445.335 340.934C442.672 340.455 439.884 341.321 437.582 342.755C435.35 344.308 433.469 346.559 432.929 349.204C434.423 347.016 436.14 345.124 438.251 343.774C440.324 342.313 442.702 341.472 445.303 340.925L445.335 340.934Z" fill="white"/>
<path d="M250.831 197.539C254.445 186.812 256.358 175.528 256.673 164.186C256.917 152.859 255.548 141.401 251.922 130.583C248.311 119.836 242.091 109.666 233.006 102.527C224.05 95.2877 213.328 90.869 202.577 87.316C197.201 85.5395 191.752 83.9114 186.357 82.3314C180.963 80.7515 175.595 78.9436 170.177 77.3239C159.359 74.0218 148.49 70.9078 138.35 66.0737C133.268 63.7037 128.318 60.9659 123.53 58.0024C118.741 55.0389 114.122 51.8185 110.042 47.9693C105.993 44.1286 102.473 39.6904 99.9885 34.6557C97.4639 29.6439 95.7892 24.2213 94.6754 18.7137C94.6463 18.5715 94.5292 18.5065 94.3869 18.5356C94.2446 18.5647 94.1796 18.6817 94.2088 18.8239C95.2032 24.4003 96.7899 29.9002 99.2495 35.029C101.669 40.1808 105.161 44.8468 109.239 48.8298C113.349 52.8212 118.054 56.0982 122.825 59.1244C127.637 62.1276 132.57 64.9282 137.698 67.3777C147.929 72.3708 158.876 75.5728 169.638 78.9606C175.008 80.6346 180.366 82.4738 185.816 84.1019C191.225 85.753 196.66 87.31 202.012 89.0467C212.686 92.5118 223.245 96.786 232.032 103.778C240.893 110.622 246.993 120.491 250.654 131.05C254.338 141.649 255.678 152.964 255.634 164.176C255.517 175.404 253.84 186.683 250.423 197.429C250.389 197.555 250.458 197.674 250.575 197.739C250.701 197.773 250.82 197.704 250.885 197.587L250.831 197.539Z" fill="white"/>
<path d="M243.875 187.979C247.355 177.754 247.312 166.619 245.194 156.07C243.077 145.521 238.825 135.409 232.909 126.363C229.911 121.863 226.506 117.623 222.461 114.019C218.456 110.392 214.008 107.284 209.374 104.497C200.098 98.9527 190.105 94.8299 180.073 91.1001C160.117 83.3668 138.712 78.9084 121.085 66.6237C112.175 60.8419 104.519 53.1443 99.0604 44.0193C93.5372 35.0114 90.2943 24.3963 90.9769 13.6905C91.0105 13.5651 90.8705 13.4603 90.745 13.4267C90.6194 13.3931 90.5147 13.533 90.4895 13.6271C89.5536 24.3995 92.6267 35.2715 98.0429 44.5533C103.522 53.8518 111.285 61.7797 120.287 67.7205C129.144 73.8242 138.986 78.5114 149.123 82.1012L179.44 92.7115C189.465 96.3388 199.421 100.351 208.565 105.759C213.122 108.458 217.524 111.486 221.491 115.002C225.468 118.488 228.826 122.647 231.786 127.037C237.691 135.878 241.811 145.854 244.144 156.225C246.414 166.58 246.664 177.569 243.398 187.751C243.364 187.876 243.433 187.996 243.55 188.061C243.676 188.094 243.795 188.025 243.86 187.908L243.875 187.979Z" fill="white"/>
<path d="M231.234 173.905C232.767 166.049 232.983 157.839 230.947 150.001C228.902 142.194 224.522 135.071 218.905 129.298C213.297 123.494 206.501 118.984 199.563 115.008C192.584 111.055 185.337 107.6 178.057 104.272L156.222 94.3883C148.982 91.0366 141.961 87.2399 134.876 83.5602C127.782 79.9119 120.827 75.9981 114.315 71.4304C107.787 66.9255 101.658 61.6871 96.791 55.3755C96.7136 55.2876 96.6195 55.2623 96.5315 55.3396C96.4435 55.4168 96.4184 55.5109 96.4957 55.5989C101.249 62.0817 107.297 67.4999 113.806 72.2014C120.323 76.8715 127.333 80.8334 134.402 84.5758C141.47 88.3183 148.466 92.2091 155.681 95.6548C162.888 99.1318 170.259 102.249 177.547 105.547C184.844 108.813 192.037 112.219 199.009 116.07C205.933 119.975 212.66 124.365 218.208 130.019C223.763 135.641 227.989 142.588 230.187 150.2C232.345 157.836 232.32 165.962 230.929 173.79C230.904 173.884 230.972 174.003 231.067 174.028C231.161 174.054 231.28 173.985 231.305 173.891L231.234 173.905Z" fill="white"/>
<path d="M377.687 358.566C380.547 363.331 384.122 367.684 388.035 371.656C389.988 373.658 392.076 375.528 394.253 377.321C396.389 379.137 398.855 380.604 400.962 382.278C403.055 383.881 404.971 386.142 404.519 388.709C404.115 391.222 401.487 392.87 398.936 393.229C396.288 393.696 393.718 392.368 391.401 390.975C389.022 389.564 386.78 387.888 384.658 386.143C386.667 388.059 388.764 389.898 391.093 391.497C393.385 392.985 396.053 394.574 399.086 394.176C401.919 393.894 405.03 392.072 405.642 388.909C405.92 387.371 405.505 385.781 404.699 384.523C403.901 383.233 402.822 382.239 401.75 381.346C399.462 379.591 397.097 378.251 394.984 376.475C392.813 374.785 390.756 372.923 388.739 371.038C384.753 367.214 380.968 363.141 377.71 358.605L377.687 358.566Z" fill="white"/>
<path d="M386.233 396.58C389.463 399.462 392.812 402.275 396.784 404.146C400.741 405.945 405.612 406.343 409.657 404.301C413.724 402.299 416.563 398.355 417.683 394.051C418.851 389.693 418.14 385.066 416.475 380.99C412.98 372.694 405.683 367.042 398.545 362.306C394.913 359.921 391.119 357.762 387.259 355.854C383.358 353.969 379.359 352.326 375.32 350.706C383.203 354.297 390.947 358.153 397.996 363.1C405.007 367.936 412.084 373.529 415.309 381.451C416.93 385.313 417.606 389.695 416.585 393.757C415.572 397.787 412.903 401.474 409.214 403.443C405.494 405.404 400.903 405.216 397.006 403.567C393.03 401.964 389.545 399.282 386.202 396.572L386.233 396.58Z" fill="white"/>
<path d="M388.26 405.458C392.089 410.248 398.079 412.995 404.159 413.65C410.216 414.265 416.745 412.99 421.679 409.136C426.682 405.402 429.945 399.622 430.954 393.473C431.979 387.262 430.03 380.858 426.505 375.814C422.926 370.721 418.058 366.795 413.074 363.309C408.009 359.868 402.773 356.818 397.57 353.643C387.156 347.324 376.717 341.099 366.23 334.928C376.474 341.504 386.735 348.018 397.053 354.445C402.159 357.729 407.466 360.765 412.42 364.243C417.342 367.712 422.084 371.604 425.477 376.513C428.918 381.367 430.764 387.407 429.854 393.313C428.952 399.188 425.827 404.702 421.14 408.387C416.468 412.142 410.212 413.524 404.255 413.037C398.282 412.613 392.256 410.125 388.292 405.466L388.26 405.458Z" fill="white"/>
<path d="M389.411 415.345C395.152 420.781 402.844 423.951 410.711 424.715C414.653 425.066 418.7 424.772 422.524 423.679C426.348 422.587 429.92 420.553 432.896 417.855C438.871 412.499 442.451 404.788 443.135 396.838C444.001 388.837 441.103 380.7 436.139 374.497C431.201 368.2 424.9 363.353 418.715 358.57C412.451 353.833 406.017 349.353 399.374 345.154C392.731 340.954 385.941 337.051 379.012 333.413C372.035 329.83 364.92 326.512 357.681 323.53C357.587 323.505 357.476 323.542 357.42 323.628C357.395 323.722 357.432 323.833 357.518 323.89C371.815 330.275 385.582 337.761 398.735 346.159C405.307 350.373 411.693 354.907 417.854 359.65C423.968 364.447 430.158 369.332 434.87 375.468C439.696 381.432 442.46 389.062 441.71 396.759C441.118 404.364 437.731 411.858 432.043 417.022C426.469 422.384 418.382 424.452 410.727 423.778C403.046 423.199 395.411 420.313 389.621 415.065C389.543 414.977 389.401 415.006 389.353 415.06C389.265 415.137 389.294 415.28 389.349 415.328L389.411 415.345Z" fill="white"/>
<path d="M391.555 425.295C399.529 432.809 411.297 435.458 421.997 433.553C427.378 432.676 432.55 430.567 437.146 427.597C441.673 424.508 445.53 420.534 448.623 416.019C451.684 411.496 453.937 406.353 454.752 400.925C455.639 395.483 455.023 389.874 453.258 384.662C449.563 374.229 441.966 365.808 433.649 358.941C429.493 355.374 424.763 352.695 420.242 349.737L406.597 341.039C397.491 335.239 388.376 329.469 379.156 323.84C369.936 318.21 360.635 312.76 351.163 307.567C341.675 302.437 332.017 297.564 322.236 293.028C322.142 293.002 322.031 293.04 321.974 293.126C321.949 293.22 321.986 293.331 322.072 293.387C341.472 302.82 360.188 313.548 378.548 324.853C387.72 330.537 396.795 336.329 405.853 342.184L419.441 350.967C423.931 353.918 428.613 356.651 432.66 360.122C440.916 366.837 448.367 375.051 451.967 385.089C453.688 390.088 454.331 395.469 453.503 400.692C452.738 405.931 450.59 410.934 447.634 415.318C444.668 419.732 440.9 423.629 436.524 426.657C432.11 429.575 427.071 431.686 421.825 432.566C411.429 434.586 399.854 432.224 391.844 424.969C391.766 424.881 391.624 424.91 391.567 424.996C391.479 425.073 391.509 425.215 391.563 425.264L391.555 425.295Z" fill="white"/>
<path d="M393.558 434.637C400.513 440.432 409.401 443.788 418.433 444.595C427.465 445.402 436.902 443.696 444.789 438.987C452.63 434.199 458.655 426.773 462.066 418.311C465.469 409.879 466.274 400.349 463.897 391.647C465.838 400.468 464.659 409.763 461.181 417.973C457.681 426.142 451.8 433.405 444.16 437.945C436.566 442.565 427.397 444.275 418.511 443.675C409.634 443.044 400.771 440.098 393.549 434.668L393.558 434.637Z" fill="white"/>
<path d="M333.289 275.119C329.026 270.448 323.53 266.858 317.45 264.826C314.408 263.876 311.164 263.309 307.954 263.491C304.744 263.673 301.552 264.666 298.922 266.448C298.842 266.494 298.817 266.588 298.863 266.668C298.909 266.747 299.003 266.772 299.051 266.718C304.639 263.813 311.238 264.035 317.036 265.992C319.984 266.916 322.782 268.271 325.45 269.86C328.119 271.449 330.657 273.271 333.026 275.351C333.08 275.399 333.183 275.393 333.262 275.347C333.31 275.293 333.304 275.19 333.25 275.142L333.289 275.119Z" fill="white"/>
<path d="M321.486 258.547C317.547 253.291 311.533 249.63 305.048 248.228C298.546 246.889 291.573 247.81 285.83 251.043C285.751 251.089 285.726 251.183 285.772 251.263C285.818 251.343 285.912 251.368 285.96 251.313C291.903 248.839 298.535 248.062 304.76 249.428C311.011 250.7 316.77 254.057 321.199 258.739C321.254 258.788 321.356 258.781 321.436 258.736C321.484 258.681 321.478 258.579 321.455 258.539L321.486 258.547Z" fill="white"/>
<path d="M306.98 237.756C304.646 236.425 302.369 235.008 299.939 233.786C297.5 232.594 294.917 231.566 292.166 231.165C289.375 230.787 286.571 231.212 283.979 232.097C281.388 232.982 278.907 234.334 276.953 236.23C276.905 236.284 276.911 236.387 276.957 236.466C277.011 236.514 277.114 236.508 277.154 236.485C279.291 234.907 281.768 233.823 284.278 233.118C286.818 232.421 289.449 232.017 291.995 232.43C294.575 232.718 297.064 233.721 299.513 234.747L306.864 238.061C306.864 238.061 307.03 238.072 307.086 237.986C307.103 237.923 307.097 237.821 307.011 237.764L306.98 237.756Z" fill="white"/>
<path d="M294.937 224.716C290.644 221.785 285.655 219.944 280.551 218.912C277.973 218.49 275.322 218.217 272.7 218.59C270.118 218.94 267.397 220.059 265.863 222.269C265.837 222.363 265.821 222.426 265.906 222.483C265.969 222.5 266.063 222.525 266.12 222.439C267.838 220.547 270.355 219.81 272.802 219.592C275.279 219.382 277.836 219.63 280.303 220.089C282.809 220.526 285.248 221.213 287.653 222.025C290.059 222.838 292.431 223.776 294.744 224.933C294.838 224.959 294.909 224.944 294.966 224.858C294.982 224.796 295.008 224.702 294.922 224.645L294.937 224.716Z" fill="white"/>
<path d="M383.783 374.347C378.541 370.187 373.13 366.284 368.081 361.906C365.525 359.776 362.888 357.692 360.371 355.539L352.862 348.922C342.988 339.959 333.557 330.475 324.901 320.358C316.156 310.319 308.14 299.568 301.438 288.059C294.775 276.528 289.242 264.291 286.284 251.232C286.247 251.121 286.161 251.065 286.058 251.071C285.956 251.077 285.891 251.194 285.897 251.296C287.158 257.885 289.171 264.306 291.565 270.56C294.14 276.761 297.026 282.811 300.412 288.625C307.041 300.282 314.983 311.181 323.694 321.346C332.516 331.473 342.075 340.856 352.059 349.783C362.035 358.74 372.711 366.844 383.525 374.681C383.611 374.738 383.745 374.74 383.81 374.623C383.866 374.538 383.869 374.404 383.783 374.347Z" fill="white"/>
<path d="M275.553 236.561C278.118 253.346 283.062 269.659 288.999 285.533C295.007 301.393 302.212 316.8 310.943 331.406C319.811 345.881 330.182 359.515 342.515 371.221C348.722 377.051 355.41 382.339 362.559 386.909C369.757 391.426 377.424 395.194 385.445 398.016C385.54 398.041 385.65 398.003 385.715 397.886C385.741 397.792 385.703 397.681 385.609 397.656C369.761 391.662 355.565 382.011 343.34 370.4C331.181 358.673 321.006 345.058 312.296 330.626C303.514 316.208 296.212 300.909 290.108 285.158C287.072 277.287 284.345 269.264 281.943 261.159C279.541 253.055 277.36 244.875 275.963 236.536C275.957 236.434 275.84 236.369 275.737 236.375C275.635 236.381 275.57 236.498 275.576 236.6L275.553 236.561Z" fill="white"/>
<path d="M390.143 415.876C383.075 414.016 376.411 411.021 370.031 407.597C363.659 404.142 357.498 400.273 351.661 395.953C345.766 391.719 340.147 387.088 335.072 381.93L331.364 377.946C330.269 376.51 329.054 375.142 328.039 373.66C325.977 370.688 324.139 367.507 323.498 363.874C324.558 371.215 329.412 377.322 334.272 382.657C339.257 388.025 344.931 392.705 350.823 397.073C356.78 401.324 362.994 405.241 369.511 408.533C376.028 411.825 382.94 414.518 390.112 415.868L390.143 415.876Z" fill="white"/>
<path d="M378.913 361.146C373.471 356.73 368.085 352.229 362.892 347.51C357.731 342.8 352.762 337.873 348.282 332.505C339.104 321.947 332.25 309.624 326.529 296.833C326.492 296.722 326.366 296.689 326.247 296.758C326.136 296.795 326.103 296.92 326.148 297C328.623 303.578 331.471 310.021 334.969 316.167C338.437 322.305 342.532 328.108 347.067 333.524C356.265 344.256 367.176 353.363 378.624 361.472C378.709 361.528 378.843 361.53 378.908 361.413C378.965 361.328 378.959 361.225 378.881 361.137L378.913 361.146Z" fill="white"/>
<path d="M31.8022 89.8176C40.7606 105.459 52.1226 119.661 65.129 132.12C78.1752 144.555 93.2719 154.985 110.027 161.861C118.385 165.31 127.129 167.821 136.056 169.272C144.96 170.683 153.944 171.545 162.888 172.429C180.722 174.149 198.814 176.04 215.316 182.982C223.54 186.429 231.021 191.391 237.435 197.579C243.856 203.736 249.3 210.908 253.996 218.484C263.411 233.677 270.073 250.485 276.111 267.36C281.751 284.465 289.397 300.864 297.355 316.977C305.415 333.084 313.922 348.907 322.809 364.563L322.82 363.894C321.508 366.029 321.616 368.512 322.005 370.7C322.386 372.919 323.171 375.011 324.043 377.026C325.82 381.064 328.136 384.844 330.876 388.301C336.322 395.339 343.812 400.269 351.327 404.602C355.112 406.793 358.979 408.803 362.863 410.751C366.713 412.825 370.848 414.336 374.344 416.852C381.487 421.824 387.079 428.566 393.537 434.463C393.646 434.56 393.788 434.531 393.876 434.453C393.972 434.345 393.943 434.202 393.866 434.114L393.834 434.106C387.502 428.242 381.912 421.367 374.732 416.284C371.159 413.68 367.04 412.106 363.23 410.009C359.363 407.999 355.544 405.934 351.799 403.72C344.371 399.31 337.095 394.336 331.804 387.474C329.15 384.074 326.879 380.374 325.172 376.455C324.322 374.479 323.583 372.467 323.232 370.39C322.872 368.344 322.853 366.155 323.897 364.519C324.019 364.316 324.023 364.048 323.908 363.849C315.084 348.21 306.657 332.341 298.659 316.251C290.741 300.115 283.236 283.821 277.658 266.733C271.668 249.803 265.04 232.87 255.549 217.456C250.776 209.791 245.232 202.492 238.631 196.253C232.077 189.96 224.33 184.86 215.941 181.402C199.094 174.367 180.843 172.569 162.992 170.911C154.04 170.058 145.11 169.245 136.229 167.873C127.388 166.479 118.738 163.993 110.458 160.632C93.8254 153.924 78.8856 143.535 65.7638 131.382C52.707 119.112 41.2005 105.073 32.1373 89.5713C32.0683 89.452 31.9428 89.4184 31.8235 89.4872C31.7041 89.556 31.6621 89.7128 31.7311 89.8321L31.8022 89.8176Z" fill="white"/>
<path d="M283.046 282.897C274.628 271.265 263.43 261.845 251.118 254.58C238.773 247.307 225.333 241.992 211.495 238.284C197.677 234.38 183.385 232.869 169.498 229.719C155.562 226.758 141.862 222.785 128.757 217.223C115.674 211.701 103.274 204.514 91.3546 196.783C79.5802 188.889 69.1699 179.043 60.4915 167.878C51.7251 156.792 44.4854 144.4 39.3787 131.202C36.8097 124.599 34.764 117.799 33.4382 110.824C32.0329 103.894 31.2619 96.7303 32.3236 89.7556C32.3656 89.5989 32.2423 89.4314 32.0855 89.3893C31.9286 89.3473 31.761 89.4705 31.719 89.6272C30.3245 96.7144 30.7857 104.03 31.9209 111.089C33.1503 118.174 35.1226 125.121 37.658 131.85C42.6577 145.322 49.7905 157.987 58.5754 169.381C67.5677 180.63 78.3084 190.498 90.3675 198.333C102.429 206.035 114.853 213.262 128.1 218.795C141.34 224.359 155.173 228.334 169.189 231.25C183.187 234.362 197.458 235.699 211.168 239.507C224.936 243.095 238.316 248.26 250.631 255.391C262.915 262.514 274.123 271.768 282.552 283.235C282.653 283.362 282.841 283.413 283 283.321C283.128 283.221 283.178 283.033 283.086 282.874L283.046 282.897Z" fill="white"/>
<path d="M277.454 268.123C270.483 257.114 261.6 247.34 251.462 239.112C246.321 235.08 240.851 231.396 234.788 228.797C228.73 226.3 222.589 224.117 216.307 222.333C203.761 218.702 190.809 216.71 178.024 214.595C165.231 212.512 152.495 209.838 140.191 205.802C115.754 197.473 93.0713 183.598 74.6681 165.426C56.2879 147.293 42.5875 123.996 37.7655 98.4393C37.7363 98.297 37.6192 98.232 37.4769 98.2611C37.3346 98.2902 37.2696 98.4072 37.2987 98.5495C39.5433 111.384 43.8745 123.837 50.1128 135.321C56.4307 146.76 64.4675 157.181 73.6815 166.472C82.8724 175.724 93.2321 183.877 104.298 190.774C115.404 197.648 127.189 203.495 139.618 207.564C152.064 211.571 164.888 214.167 177.761 216.205C190.602 218.234 203.468 220.17 215.938 223.712C222.165 225.448 228.315 227.6 234.294 230.009C240.209 232.535 245.633 236.139 250.768 240.069C260.95 248.007 269.986 257.586 277.071 268.424C277.139 268.543 277.296 268.585 277.384 268.508C277.504 268.439 277.514 268.274 277.468 268.194L277.454 268.123Z" fill="white"/>
<path d="M164.699 249.639C156.834 246.86 149.093 243.744 141.459 240.354C133.809 237.027 126.305 233.403 118.939 229.514C104.216 221.704 90.1036 212.747 76.8123 202.733C63.3909 192.953 50.8688 181.7 41.1256 168.234C36.3366 161.507 32.2199 154.153 30.2738 146.103C28.1999 138.154 28.7236 129.422 32.8323 122.121C32.8659 121.995 32.8682 121.862 32.7511 121.797C32.6255 121.763 32.4916 121.761 32.4266 121.878C28.09 129.151 27.2542 138.169 29.1583 146.375C31.0455 154.644 35.2143 162.18 40.0011 169.042C49.7001 182.798 62.266 194.265 75.6997 204.25C89.1731 214.212 103.445 223.077 118.295 230.786C125.741 234.63 133.293 238.199 140.992 241.472C148.716 244.651 156.578 247.564 164.525 250.164C164.65 250.197 164.769 250.129 164.834 250.012C164.868 249.886 164.799 249.767 164.682 249.702L164.699 249.639Z" fill="white"/>
<path d="M294.637 308.923C292.255 303.882 288.903 299.321 285.07 295.303C281.245 291.253 276.883 287.698 272.375 284.44C263.215 278.087 253.214 272.988 242.682 269.494C242.588 269.469 242.477 269.506 242.444 269.632C242.418 269.726 242.456 269.836 242.55 269.862C247.66 272.004 252.631 274.411 257.449 277.013C262.291 279.655 267.019 282.467 271.472 285.677C275.983 288.801 280.25 292.331 284.133 296.161C288.009 300.022 291.547 304.264 294.256 309.09C294.302 309.169 294.427 309.203 294.538 309.165C294.618 309.119 294.651 308.994 294.605 308.915L294.637 308.923Z" fill="white"/>
<path d="M142.049 258.862C115.665 247.256 90.5412 232.828 67.6092 215.492C61.874 211.166 56.2039 206.722 50.7349 202.031C45.2491 197.402 39.933 192.516 35.2473 187.16C30.6411 181.759 26.1778 175.824 25.2162 168.744C24.1039 161.725 26.5635 154.553 30.2734 148.49C30.3383 148.373 30.3092 148.23 30.1921 148.166C30.075 148.101 29.9327 148.13 29.8677 148.247C25.9383 154.251 23.1541 161.504 24.063 168.906C24.4903 172.583 25.8657 176.11 27.6724 179.283C29.5503 182.441 31.7233 185.376 34.041 188.148C38.6993 193.731 44.118 198.611 49.5786 203.334C55.0392 208.057 60.6841 212.594 66.4422 216.96C78.015 225.606 90.1346 233.592 102.743 240.634C115.334 247.738 128.437 253.938 141.837 259.276C141.963 259.31 142.105 259.281 142.139 259.155C142.172 259.03 142.135 258.919 142.018 258.854L142.049 258.862Z" fill="white"/>
<path d="M300.948 321.267C295.869 315.369 289.695 310.422 283.115 306.239C276.438 302.164 269.394 298.832 262.079 296.132C261.985 296.107 261.874 296.145 261.809 296.262C261.784 296.356 261.822 296.467 261.916 296.492C268.798 300.05 275.771 303.397 282.266 307.523C288.857 311.541 294.916 316.29 300.652 321.491C300.73 321.578 300.872 321.549 300.929 321.464C300.985 321.378 300.979 321.276 300.933 321.196L300.948 321.267Z" fill="white"/>
<path d="M123.946 272.831C112.876 267.58 102.001 261.977 91.3127 256.055C80.6328 250.101 70.1394 243.828 59.9687 237.103C54.8477 233.749 49.7099 230.456 45.0624 226.59C40.3751 222.746 36.266 218.25 33.0174 213.179C26.3237 203.017 25.1045 190.122 27.8075 178.277C27.8411 178.151 27.7721 178.032 27.6152 177.99C27.4897 177.956 27.3704 178.025 27.3368 178.151C25.8116 184.094 25.0854 190.318 25.7236 196.471C26.3617 202.624 28.4041 208.683 31.6963 213.968C34.9091 219.298 39.221 223.915 43.9375 227.901C48.6853 231.896 53.8376 235.259 58.9502 238.645C69.2402 245.301 79.7482 251.645 90.5811 257.405C101.406 263.195 112.467 268.478 123.734 273.245C123.86 273.278 124.002 273.249 124.036 273.124C124.069 272.998 124.032 272.888 123.915 272.823L123.946 272.831Z" fill="white"/>
<path d="M312.355 344.085C309.628 340.33 306.447 336.89 302.937 333.798C299.427 330.707 295.62 327.973 291.705 325.512C287.711 323.098 283.587 320.917 279.308 319.065C275.037 317.181 270.642 315.634 266.203 314.377C266.109 314.352 265.99 314.421 265.965 314.515C265.94 314.609 265.977 314.72 266.071 314.745C270.393 316.441 274.617 318.245 278.76 320.229C282.895 322.244 286.965 324.376 290.879 326.837C294.819 329.203 298.541 331.881 302.101 334.784C305.653 337.719 309.013 340.87 312.052 344.34C312.129 344.428 312.263 344.43 312.319 344.344C312.407 344.267 312.401 344.165 312.355 344.085Z" fill="white"/>
<path d="M321.965 361.312C311.278 351.492 298.017 344.881 284.394 340.121C270.691 335.408 256.535 332.388 242.483 329.227C214.363 322.97 186.602 314.994 159.461 305.335C145.869 300.584 132.435 295.371 119.124 289.822C105.87 284.187 92.6582 278.395 79.8697 271.775C67.1524 265.142 54.662 257.661 44.2035 247.868C39.0298 242.953 34.3799 237.338 31.5744 230.739C28.6182 224.2 28.3498 216.667 30.4178 209.828C30.4514 209.702 30.3825 209.583 30.2654 209.518C30.1398 209.485 30.0205 209.553 29.9555 209.67C27.7367 216.57 27.8837 224.306 30.7895 231.033C33.5445 237.82 38.2152 243.609 43.3469 248.681C53.9118 258.704 66.4169 266.255 79.1717 273C91.9664 279.722 105.193 285.585 118.422 291.314C131.707 296.957 145.148 302.273 158.754 307.095C186.032 316.622 213.857 324.481 242.082 330.599C256.15 333.696 270.292 336.645 283.934 341.208C297.531 345.691 310.757 352.058 321.542 361.636C321.65 361.732 321.793 361.703 321.881 361.626C321.977 361.517 321.948 361.375 321.871 361.287L321.965 361.312Z" fill="white"/>
<path d="M322.177 362.276L281.223 356.848C267.583 355.041 253.936 353.132 240.415 350.753C226.868 348.467 213.461 345.413 200.09 342.099C186.75 338.793 173.496 335.04 160.448 330.771C134.366 322.303 108.721 311.702 85.703 296.695C74.2379 289.153 63.5167 280.466 54.3895 270.224C45.2058 260.067 37.7438 248.254 33.2563 235.256C33.2187 235.145 33.0702 235.071 32.9592 235.109C32.8483 235.146 32.775 235.295 32.8125 235.406C37.1325 248.527 44.4332 260.566 53.5184 270.965C62.6747 281.35 73.4564 290.187 84.9277 297.832C108.021 313.06 133.709 323.875 159.852 332.493C172.979 336.716 186.29 340.384 199.678 343.635C213.075 346.855 226.53 349.855 240.164 352.064C267.342 356.691 294.74 359.495 322.099 362.692C322.225 362.726 322.353 362.626 322.355 362.492C322.388 362.366 322.288 362.239 322.154 362.237L322.177 362.276Z" fill="white"/>
<path d="M88.5965 29.3522C77.0765 53.0168 76.5428 81.7425 87.0994 105.979C89.6942 111.984 92.0984 118.073 94.8271 124.08C97.5725 130.025 100.76 135.954 105.414 140.797C110.03 145.663 116.119 149.042 122.504 150.82C128.911 152.638 135.478 153.356 142.031 154.003C155.114 155.256 168.252 155.551 181.078 158.013C193.963 160.255 205.882 166.104 217.005 172.915C228.071 179.813 238.405 188.06 246.915 197.969C255.34 207.822 261.892 219.894 262.705 233.051C262.711 233.154 262.788 233.242 262.922 233.244C263.025 233.238 263.112 233.16 263.115 233.027C262.429 219.77 255.976 207.454 247.562 197.437C239.111 187.308 228.699 178.973 217.587 171.996C206.45 165.114 194.399 159.129 181.343 156.773C168.377 154.206 155.184 153.864 142.181 152.564C135.699 151.903 129.14 151.154 122.938 149.324C116.767 147.502 110.901 144.418 106.472 139.736C101.964 135.1 98.7973 129.345 96.035 123.463C93.2812 117.549 90.8456 111.452 88.1797 105.462C77.6959 81.581 77.9237 53.2439 88.9333 29.4761C88.9585 29.382 88.9209 29.2711 88.8352 29.2145C88.741 29.1893 88.6301 29.2268 88.5735 29.3125L88.5965 29.3522Z" fill="white"/>
<path d="M211.734 156.312C201.863 153.365 192.056 150.301 182.275 147.142C177.385 145.563 172.528 143.858 167.719 142.099C162.911 140.34 158.175 138.433 153.725 135.963C144.856 131.033 136.843 124.416 129.681 117.254C126.251 113.613 124.036 108.953 123.047 103.983C122.019 99.0357 121.852 93.8828 121.82 88.7323C121.822 88.5984 121.713 88.5021 121.58 88.4998C121.446 88.4975 121.349 88.6061 121.347 88.74C121.151 93.8631 120.939 99.0489 121.838 104.23C122.713 109.371 124.89 114.424 128.441 118.367C135.749 125.736 143.624 132.618 152.864 137.547C162.12 142.413 172.045 145.409 181.851 148.473C191.697 151.515 201.644 154.18 211.608 156.783C211.733 156.816 211.853 156.748 211.886 156.622C211.92 156.497 211.851 156.377 211.725 156.344L211.734 156.312Z" fill="white"/>
<path d="M270.206 249.613C265.623 241.361 260.327 233.388 253.663 226.629C247 219.869 238.863 214.463 229.903 211.255C220.942 208.048 211.603 206.251 202.336 204.44C193.051 202.692 183.739 201.171 174.522 199.172C165.393 197.096 156.323 194.296 147.381 191.395C138.472 188.37 129.614 185.156 121.148 181.106C112.673 177.088 104.56 172.226 97.4517 166.12C90.3751 160.023 84.3209 152.62 80.4775 143.995C80.4086 143.876 80.2915 143.811 80.1722 143.88C80.0612 143.917 79.9879 144.066 80.0568 144.185C83.6217 152.971 89.4076 160.873 96.6243 167.075C103.784 173.362 111.959 178.375 120.454 182.567C128.989 186.736 137.851 190.186 146.873 193.04C155.934 195.872 164.983 198.498 174.247 200.577C183.504 202.553 192.832 204.011 202.125 205.728C211.378 207.468 220.685 209.256 229.537 212.367C238.341 215.533 246.427 220.624 253.093 227.249C259.799 233.852 265.16 241.707 269.839 249.85C269.908 249.97 270.034 250.003 270.153 249.934C270.272 249.866 270.306 249.74 270.237 249.621L270.206 249.613Z" fill="white"/>
<path d="M253.702 215.818C247.902 207.341 238.866 201.525 229.393 197.844C219.843 194.076 209.682 192.462 199.677 190.89C189.639 189.444 179.599 188.132 169.996 185.189C160.455 182.263 151.098 177.773 144.073 170.48C143.996 170.392 143.822 170.412 143.742 170.458C143.654 170.535 143.644 170.701 143.721 170.789C150.455 178.541 159.851 183.512 169.53 186.677C179.262 189.89 189.437 191.205 199.41 192.768C209.416 194.206 219.412 195.809 228.833 199.308C238.199 202.758 247.164 208.084 253.31 216.15C253.387 216.238 253.544 216.28 253.632 216.203C253.72 216.125 253.754 216 253.685 215.881L253.702 215.818Z" fill="white"/>
<path d="M392.328 432.325C380.818 423.695 366.592 419.178 352.323 417.707C345.155 417.097 337.879 417.265 330.809 418.798C323.779 420.309 316.898 423.271 311.593 428.134C311.505 428.211 311.495 428.376 311.572 428.464C311.649 428.552 311.815 428.563 311.903 428.486C317.484 424.1 324.238 421.608 331.147 420.3C338.047 419.023 345.157 418.845 352.166 419.547C359.2 420.154 366.133 421.642 372.858 423.78C379.575 425.95 386.098 428.84 392.062 432.69C392.179 432.755 392.313 432.757 392.386 432.609C392.451 432.492 392.453 432.358 392.336 432.293L392.328 432.325Z" fill="white"/>
<path d="M367.655 413.077C359.017 409.418 349.762 407.308 340.388 406.645C331.023 405.95 321.571 406.711 312.333 408.302C303.093 410.028 294.06 412.614 285.298 415.946C276.544 419.247 268.069 423.261 259.894 427.791C259.774 427.86 259.741 427.986 259.81 428.105C259.879 428.224 260.004 428.258 260.123 428.189C268.512 424.118 277.091 420.469 285.825 417.365C294.592 414.269 303.514 411.72 312.658 410.103C321.755 408.407 331.065 407.676 340.293 408.132C349.52 408.588 358.75 410.288 367.483 413.468C367.608 413.502 367.759 413.441 367.792 413.316C367.826 413.19 367.788 413.079 367.671 413.014L367.655 413.077Z" fill="white"/>
<path d="M355.231 405.346C345.087 401.787 334.571 399.238 323.875 397.986C313.188 396.702 302.283 396.737 291.597 398.209C280.926 399.752 270.413 402.716 260.614 407.282C250.814 411.848 241.808 417.971 233.91 425.231C233.822 425.309 233.812 425.474 233.889 425.562C233.966 425.65 234.132 425.66 234.22 425.583C242.442 418.746 251.552 412.987 261.252 408.663C270.985 404.348 281.316 401.436 291.851 400.024C302.379 398.51 313.12 398.464 323.708 399.487C334.32 400.549 344.843 402.696 355.082 405.776C355.208 405.81 355.327 405.741 355.361 405.616C355.394 405.49 355.325 405.371 355.2 405.337L355.231 405.346Z" fill="white"/>
<path d="M334.74 391.453C323.957 387.388 312.342 385.553 300.779 385.782C289.216 386.01 277.708 388.169 266.75 391.787C255.83 395.515 245.306 400.526 235.62 406.803C230.777 409.941 226.172 413.446 221.799 417.214C217.636 421.207 213.532 425.35 210.604 430.38C210.539 430.497 210.568 430.639 210.685 430.704C210.802 430.769 210.913 430.731 211.01 430.623C217.447 421.157 226.854 414.166 236.45 408.1C246.131 402.091 256.504 397.141 267.351 393.561C278.129 389.862 289.455 387.755 300.84 387.31C312.217 386.897 323.674 388.32 334.591 391.884C334.716 391.918 334.836 391.849 334.901 391.732C334.934 391.606 334.865 391.487 334.748 391.422L334.74 391.453Z" fill="white"/>
<path d="M322.571 372.229C315.75 372.081 308.901 372.162 302.075 372.786C295.28 373.419 288.493 374.524 281.802 376.025C268.443 379.066 255.599 383.824 242.439 387.255C229.307 390.827 215.759 392.44 202.157 392.996C188.564 393.521 174.924 393.093 161.508 391.077C134.916 386.271 108.712 376.628 86.443 361.083C80.9545 357.092 75.6357 352.844 70.6939 348.193C65.7606 343.51 61.1078 338.533 56.7106 333.355C54.556 330.728 52.3617 328.124 50.3035 325.388C48.2368 322.683 46.0906 320.024 44.4531 317.099C42.7843 314.164 41.7037 310.917 41.634 307.538C41.6269 304.175 42.5802 300.869 44.1589 297.864C44.1925 297.738 44.1634 297.596 44.0777 297.539C43.9521 297.506 43.8098 297.535 43.7533 297.62C42.1034 300.64 41.0934 304.032 41.0355 307.512C41.0487 310.977 42.15 314.398 43.8335 317.403C45.5085 320.44 47.6149 323.121 49.6334 325.88C51.6518 328.639 53.7981 331.298 55.9045 333.98C64.5291 344.591 74.5191 354.124 85.6447 362.18C96.8353 370.119 109.036 376.547 121.78 381.575L131.42 385.133L141.218 388.228L151.134 390.885C154.476 391.714 157.853 392.417 161.248 392.923C174.847 394.887 188.575 395.238 202.256 394.636C215.906 394.025 229.613 392.321 242.81 388.631C256.027 385.115 268.825 380.277 282.067 377.171C288.681 375.582 295.359 374.381 302.147 373.646C308.928 372.942 315.747 372.719 322.531 372.756C322.656 372.789 322.761 372.649 322.763 372.515C322.797 372.39 322.657 372.285 322.523 372.283L322.571 372.229Z" fill="white"/>
<path d="M255.136 396.975C244.936 400.023 234.453 402.12 223.916 403.666C213.379 405.212 202.778 406.37 192.156 406.851C181.526 407.364 170.834 407.355 160.337 405.988C149.843 404.487 139.503 401.783 129.459 398.353C109.393 391.531 90.1422 381.668 73.8792 367.934C65.7592 361.086 58.5463 353.239 52.0286 344.805C48.7415 340.63 45.5591 336.316 43.4654 331.453C41.3004 326.605 40.9274 321.094 42.4936 316.002C42.5272 315.877 42.4582 315.758 42.3411 315.693C42.2156 315.659 42.0963 315.728 42.0313 315.845C40.3856 320.983 40.7312 326.721 42.8709 331.664C44.9624 336.66 48.128 341.037 51.4067 345.243C54.7252 349.426 57.9641 353.654 61.5611 357.676C65.1267 361.69 69.0127 365.386 73.0517 368.888C89.3103 382.89 108.634 393.109 128.863 400.075C139.026 403.437 149.486 406.071 160.131 407.512C170.809 408.827 181.558 408.75 192.236 408.183C202.923 407.585 213.579 406.475 224.103 404.724C234.66 402.982 245.13 400.68 255.309 397.459C255.42 397.421 255.493 397.273 255.456 397.162C255.418 397.051 255.27 396.978 255.159 397.015L255.136 396.975Z" fill="white"/>
<path d="M73.1999 72.8812C68.7183 76.5534 64.8301 81.0232 61.9478 86.1322C59.0341 91.2327 57.3374 97.0627 57.097 102.98C56.7669 114.755 61.2493 126.643 69.5521 134.817C62.3592 125.765 58.3094 114.396 58.7667 103.024C58.8688 97.3722 60.4983 91.7931 63.0646 86.7339C65.6393 81.6433 69.222 77.0581 73.1999 72.8812Z" fill="white"/>
<path d="M74.9347 56.2403C70.0041 57.07 65.2814 59.1317 61.1208 61.9826C56.9288 64.825 53.416 68.5215 50.2316 72.3733C47.1474 76.3527 44.4752 80.6778 42.4451 85.2421C40.4065 89.8378 38.893 94.6078 37.7958 99.4557C41.2683 90.1359 45.2659 80.9905 51.507 73.3872C54.5575 69.5331 57.974 65.9452 61.8605 62.9873C65.7555 59.9981 70.175 57.6872 74.9431 56.209L74.9347 56.2403Z" fill="white"/>
<path d="M31.6676 92.7058C32.6678 86.5884 34.2496 80.5596 36.6679 74.923C39.0863 69.2865 42.201 63.9373 46.1794 59.2565C53.9416 49.7419 64.7936 43.0044 76.7407 39.585C64.4142 41.6592 52.9845 48.5444 44.9124 58.2113C40.9465 63.0971 37.7269 68.5862 35.5091 74.4781C33.2998 80.3387 31.9753 86.5372 31.6906 92.7455L31.6676 92.7058Z" fill="white"/>
<path d="M403.068 262.461C402.563 253.05 398.07 243.713 390.583 237.641C386.86 234.593 382.388 232.454 377.75 231.312C373.121 230.139 368.307 229.655 363.525 230.055C358.744 230.454 354.001 231.838 349.838 234.319C345.653 236.759 342.245 240.316 339.634 244.288C334.3 252.269 332.165 261.745 331.003 270.978C330.969 271.104 331.069 271.231 331.226 271.273C331.352 271.307 331.479 271.207 331.513 271.081C333.06 261.918 335.625 252.724 340.88 245.159C343.472 241.384 346.859 238.158 350.766 235.878C354.673 233.597 359.154 232.311 363.682 231.979C368.219 231.615 372.843 232.182 377.292 233.273C381.75 234.333 385.91 236.254 389.487 239.095C396.659 244.713 401.377 253.337 402.61 262.54C402.639 262.682 402.748 262.779 402.89 262.75C403.033 262.721 403.129 262.612 403.1 262.47L403.068 262.461Z" fill="white"/>
<path d="M378.247 232.218C376.047 229.511 373.019 227.758 370.011 226.18C366.956 224.655 363.705 223.482 360.346 222.716C353.672 221.264 346.372 221.526 339.989 224.386C333.529 227.159 328.499 232.499 325.365 238.548C322.208 244.558 320.434 251.678 322.032 258.391C322.062 258.533 322.21 258.607 322.321 258.569C322.463 258.54 322.537 258.392 322.499 258.281C321.443 251.68 323.469 244.997 326.676 239.303C329.978 233.634 334.655 228.603 340.724 226.163C346.723 223.603 353.516 223.104 359.955 224.426C363.2 224.993 366.39 226.016 369.401 227.327C372.405 228.669 375.452 230.225 377.793 232.533C377.793 232.533 378.036 232.631 378.124 232.554C378.211 232.477 378.191 232.303 378.145 232.224L378.247 232.218Z" fill="white"/>
<path d="M395.397 242.896C396.215 238.209 395.247 233.412 393.682 228.96C392.015 224.514 389.586 220.402 386.487 216.782C380.328 209.519 371.243 204.766 361.765 203.739C357.047 203.147 352.123 203.575 347.575 205.112C343.027 206.649 338.885 209.303 335.55 212.712C328.984 219.522 324.816 228.924 325.447 238.369C325.445 238.503 325.585 238.608 325.719 238.61C325.853 238.612 325.957 238.472 325.96 238.338C325.784 233.721 327.003 229.174 328.924 225.017C330.813 220.852 333.431 216.983 336.69 213.857C339.957 210.7 343.874 208.254 348.153 206.846C352.423 205.47 357.062 205.1 361.543 205.696C366.033 206.26 370.472 207.517 374.519 209.609C378.574 211.671 382.174 214.551 385.238 217.926C388.302 221.301 390.782 225.226 392.54 229.461C394.274 233.656 395.489 238.283 394.941 242.841C394.907 242.966 395.007 243.094 395.133 243.128C395.258 243.161 395.386 243.061 395.42 242.936L395.397 242.896Z" fill="white"/>
<path d="M227.527 326.43C225.702 314.918 218.803 304.768 210.368 296.963C201.887 289.078 191.481 283.231 180.313 280.104C169.193 276.923 157.564 275.387 146.009 276.088C140.259 276.463 134.483 277.436 128.984 279.256C123.531 281.156 118.299 283.988 114.228 288.14C114.14 288.217 114.169 288.36 114.223 288.408C114.3 288.496 114.443 288.467 114.491 288.412C118.638 284.482 123.882 281.855 129.276 280.175C134.687 278.432 140.367 277.567 146.069 277.247C157.479 276.708 168.948 278.336 179.878 281.601C190.892 284.552 201.128 290.152 209.597 297.832C213.82 301.652 217.601 305.992 220.649 310.808C223.745 315.569 226.091 320.87 227.171 326.503C227.178 326.605 227.295 326.67 227.397 326.664C227.5 326.658 227.565 326.541 227.559 326.438L227.527 326.43Z" fill="white"/>
<path d="M247.611 331.677C247.696 324.205 246.34 316.717 243.675 309.718C240.979 302.711 237.068 296.219 232.295 290.437C222.748 278.872 209.973 270.072 195.835 264.973C181.463 260.248 165.844 260.802 151.432 264.636C137.042 268.51 123.191 276.023 113.793 287.755C113.736 287.84 113.734 287.974 113.82 288.031C113.905 288.087 114.039 288.089 114.096 288.004C118.879 282.329 124.795 277.696 131.222 274.042C137.627 270.347 144.583 267.607 151.736 265.759C166.004 262.088 181.407 261.712 195.346 266.421C209.212 271.279 221.913 279.858 231.424 291.178C240.88 302.45 247.024 316.8 247.241 331.678C247.216 331.773 247.324 331.869 247.427 331.863C247.521 331.888 247.617 331.779 247.611 331.677Z" fill="white"/>
<path d="M265.369 334.688C267.347 325.673 267.284 316.246 265.33 307.22C263.385 298.163 259.533 289.569 254.239 281.967C243.61 266.785 227.493 255.644 209.692 250.538C191.882 245.463 172.424 246.164 155.158 252.864C146.53 256.198 138.484 260.999 131.366 266.855C124.293 272.79 118.226 279.869 113.423 287.756C113.397 287.85 113.364 287.976 113.481 288.041C113.575 288.066 113.701 288.1 113.734 287.974C123.566 272.494 138.516 260.503 155.565 253.981C172.638 247.499 191.786 246.95 209.249 252.066C226.778 256.931 242.703 267.785 253.273 282.683C263.798 297.5 268.49 316.637 264.944 334.641C264.919 334.735 264.988 334.854 265.082 334.88C265.176 334.905 265.296 334.836 265.321 334.742L265.369 334.688Z" fill="white"/>
<path d="M227.974 325.642C222.938 319.083 216.848 313.318 210.04 308.603C203.232 303.889 195.674 300.217 187.742 297.688C179.785 295.254 171.485 293.971 163.203 294.003C154.898 293.996 146.619 295.273 138.745 297.801C138.634 297.838 138.569 297.955 138.615 298.035C138.653 298.146 138.738 298.202 138.849 298.165C146.78 296.055 154.998 295.132 163.166 295.271C171.327 295.441 179.5 296.69 187.276 299.177C195.076 301.569 202.486 305.168 209.313 309.686C216.109 314.195 222.345 319.664 227.67 325.896C227.747 325.984 227.881 325.987 227.938 325.901C228.026 325.824 228.02 325.721 227.974 325.642Z" fill="white"/>
<path d="M228.318 326.743C224.543 322.505 220.145 318.839 215.31 315.796C210.475 312.753 205.251 310.413 199.796 308.682C194.355 307.022 188.683 305.973 182.99 305.758C177.305 305.512 171.584 306.029 166.077 307.377C165.966 307.414 165.91 307.5 165.947 307.611C165.985 307.722 166.071 307.778 166.173 307.772C171.736 306.843 177.373 306.639 182.945 307.057C188.516 307.474 194.031 308.482 199.361 310.179C204.716 311.781 209.846 314.097 214.677 316.904C219.499 319.742 224.013 323.102 228.077 327.014C228.154 327.102 228.297 327.073 228.345 327.019C228.433 326.942 228.395 326.831 228.349 326.751L228.318 326.743Z" fill="white"/>
<path d="M321.702 362.922C308.459 364.146 295.223 365.473 281.96 366.523C268.72 367.613 255.46 368.53 242.179 368.769C228.923 368.914 215.626 368.712 202.502 367.111C189.361 365.572 176.323 363.02 163.513 359.621C137.898 352.925 113.081 342.747 90.7676 328.501C79.6348 321.351 69.1266 313.124 60.2606 303.288C55.8191 298.401 51.8428 293.034 48.7729 287.17C45.6946 281.338 43.636 274.838 43.6449 268.152C43.4393 274.818 45.3304 281.442 48.2328 287.428C51.1581 293.455 55.0213 298.994 59.3412 304.083C68.1002 314.193 78.6039 322.687 89.7009 330.097C112.054 344.824 137.09 355.062 162.874 362.004C175.804 365.334 188.952 367.849 202.244 369.327C215.527 370.836 228.919 371.064 242.25 370.636C255.59 370.178 268.87 369.065 282.083 367.699C295.321 366.238 308.492 364.525 321.71 362.891L321.702 362.922Z" fill="white"/>
<path d="M231.604 427.437C221.997 430.408 212.048 432.144 202.026 433.021C192.028 433.938 181.951 433.893 171.964 433.133C151.954 431.501 132.242 426.623 113.711 418.969C104.462 415.079 95.5489 410.439 87.0738 405.043C78.5986 399.646 70.6893 393.393 63.2764 386.669C55.7358 380.044 49.6888 371.736 45.6661 362.525C43.6704 357.924 42.2149 353.064 41.5651 348.084C40.978 343.121 41.2303 337.912 43.2458 333.277C41.1989 337.904 40.9152 343.104 41.4625 348.09C42.0726 353.093 43.4884 357.976 45.4756 362.608C49.4502 371.873 55.4887 380.213 62.9559 386.986C77.5134 400.935 94.7667 411.977 113.285 419.93C131.818 427.954 151.748 432.522 171.855 434.044C191.924 435.456 212.421 433.891 231.556 427.491L231.604 427.437Z" fill="white"/>
<path d="M222.739 417.097C218.872 418.85 214.68 419.81 210.501 420.472C206.322 421.133 202.053 421.502 197.811 421.642C189.303 422.017 180.791 421.652 172.32 420.76C155.386 418.945 138.667 415.07 122.697 409.279C106.654 403.636 91.3076 395.894 77.5999 385.802C70.7419 380.772 64.3113 375.15 58.553 368.902C52.7152 362.7 47.4931 355.957 42.9411 348.722C42.8722 348.603 42.7153 348.561 42.6273 348.638C42.508 348.707 42.4744 348.832 42.5433 348.952C51.2013 363.706 62.914 376.725 76.7702 386.89C90.5216 397.196 105.935 405.19 122.07 410.993C138.261 416.709 155.116 420.452 172.187 422.136C180.715 422.942 189.306 423.262 197.879 422.769C202.154 422.503 206.448 422.041 210.661 421.254C214.874 420.467 219.091 419.413 222.96 417.526C223.08 417.457 223.113 417.331 223.044 417.212C222.975 417.093 222.85 417.059 222.73 417.128L222.739 417.097Z" fill="white"/>
<path d="M218.426 161.836C217.767 157.392 216.209 152.538 214.098 148.242C211.964 143.906 209.171 139.898 205.937 136.275C199.519 128.977 191.306 123.482 182.605 119.303C178.259 117.197 173.702 115.506 169.204 113.965C164.684 112.384 160.221 110.717 155.734 109.011C151.271 107.344 146.793 105.607 142.419 103.729C138.094 101.797 133.522 100.034 129.754 97.2773L129.691 97.2605C129.691 97.2605 129.44 97.1933 129.384 97.2789C129.327 97.3646 129.325 97.4984 129.402 97.5863C131.282 99.2326 133.406 100.34 135.506 101.541C137.614 102.711 139.747 103.786 141.929 104.808C146.291 106.85 150.704 108.705 155.134 110.497C159.604 112.266 164.091 113.972 168.571 115.576C173.106 117.228 177.523 118.815 181.815 120.872C190.392 124.884 198.363 130.28 204.819 137.186C211.29 144.162 215.981 152.51 218.083 162.114C218.089 162.216 218.206 162.281 218.285 162.235C218.388 162.229 218.445 162.144 218.407 162.033L218.357 161.717L218.426 161.836Z" fill="white"/>
<path d="M404.331 494.085C405.185 490.146 404.367 486.297 403.705 482.49C403.272 480.593 402.799 478.719 402.175 476.905C401.631 475.045 400.936 473.246 400.178 471.43C397.225 464.253 393.088 457.599 388.129 451.633C383.17 445.666 377.18 440.532 370.646 436.429C364.21 432.083 356.881 429.313 349.633 426.867C349.507 426.833 349.388 426.902 349.323 427.019C349.289 427.144 349.358 427.263 349.444 427.32C356.526 430.259 363.543 433.316 369.757 437.737C372.994 439.713 375.835 442.289 378.798 444.663L382.885 448.614C384.25 449.921 385.382 451.468 386.659 452.852C391.575 458.605 395.611 465.131 398.694 472.074C399.477 473.796 400.22 475.541 400.812 477.346C401.516 479.114 401.997 480.957 402.518 482.777C403.427 486.415 404.379 490.266 403.829 493.95L403.813 494.013C403.813 494.013 403.879 494.266 404.013 494.268C404.139 494.302 404.267 494.202 404.26 494.099L404.331 494.085Z" fill="white"/>
<path d="M376.322 500.09C377.406 496.045 377.791 491.846 377.869 487.666C377.793 485.562 377.812 483.484 377.501 481.384C377.323 479.286 376.94 477.201 376.477 475.161C374.716 466.926 371.064 459.092 365.888 452.428C360.672 445.788 354.017 440.375 346.727 436.204C339.519 431.853 331.397 429.407 323.412 427.201C323.287 427.167 323.167 427.236 323.134 427.361C323.1 427.487 323.169 427.606 323.294 427.64L329.17 429.685C331.145 430.348 333.088 431.003 334.955 431.941L340.602 434.462C342.43 435.422 344.193 436.499 345.973 437.514C353.001 441.783 359.47 447.012 364.451 453.522C369.561 459.932 373.074 467.528 375.014 475.475C376.954 483.422 377.429 491.817 375.883 499.972C375.849 500.098 375.95 500.225 376.075 500.259C376.201 500.293 376.328 500.192 376.354 500.098L376.322 500.09Z" fill="white"/>
<path d="M318.518 483.996C318.784 477.985 317.625 471.893 315.473 466.242C313.33 460.56 310.163 455.309 306.429 450.544C302.607 445.857 298.154 441.639 293.241 438.138C288.335 434.605 282.977 431.758 277.389 429.521C277.263 429.488 277.121 429.517 277.087 429.642C277.054 429.768 277.091 429.879 277.208 429.944C282.545 432.617 287.623 435.759 292.306 439.366C296.989 442.974 301.31 447.055 304.976 451.701C308.698 456.26 311.764 461.384 314.046 466.801C316.287 472.241 317.798 478.023 318.054 483.973C318.052 484.106 318.16 484.203 318.294 484.205C318.428 484.207 318.525 484.099 318.527 483.965L318.518 483.996Z" fill="white"/>
<path d="M284.877 461.573C284.09 459.614 283.51 457.51 282.709 455.48C281.907 453.451 281.026 451.467 279.955 449.567C277.852 445.743 275.089 442.247 271.933 439.217C268.728 436.241 265.155 433.637 261.288 431.626C259.391 430.547 257.356 429.733 255.369 428.864C253.365 428.058 251.271 427.464 249.203 426.775C249.077 426.741 248.958 426.81 248.893 426.927C248.859 427.053 248.897 427.163 249.014 427.228C252.948 428.988 256.851 430.74 260.454 432.982C264.113 435.139 267.586 437.616 270.594 440.572C273.698 443.421 276.338 446.749 278.571 450.339C280.875 453.914 282.432 457.893 284.385 461.777C284.453 461.896 284.579 461.93 284.698 461.861C284.818 461.792 284.851 461.667 284.782 461.548L284.877 461.573Z" fill="white"/>
<path d="M348.421 494.899C350.115 491.589 349.801 487.741 349.292 484.244C348.666 480.682 347.604 477.238 346.312 473.901C343.697 467.218 340.059 460.967 335.98 455.102C331.822 449.283 327.09 443.848 321.741 439.087C316.391 434.327 310.344 430.286 303.756 427.513C303.63 427.479 303.488 427.508 303.454 427.634C303.421 427.759 303.458 427.87 303.575 427.935C309.872 431.168 315.561 435.415 320.698 440.219C325.825 445.055 330.448 450.393 334.481 456.179C338.601 461.887 342.1 468.034 344.908 474.499C346.296 477.728 347.454 481.063 348.193 484.454C348.909 487.805 349.431 491.507 348.038 494.696C348.038 494.696 348.034 494.964 348.151 495.029C348.276 495.062 348.387 495.025 348.452 494.908L348.421 494.899Z" fill="white"/>
</svg>
