<svg width="48" height="48" viewBox="0 0 48 48" fill="none" xmlns="http://www.w3.org/2000/svg">
<path d="M29.4 36.2547C29.3 36.5636 29.2 36.9119 29.12 37.2208C29.0883 37.333 29.0917 37.452 29.1298 37.5623C29.1679 37.6725 29.2388 37.7688 29.3333 37.8387C29.4605 37.9347 29.6211 37.9772 29.78 37.957C29.9369 37.9299 30.0788 37.8483 30.18 37.7269C30.6667 37.1224 31.0743 36.46 31.3933 35.7551C31.5707 35.3484 31.6896 34.9192 31.7466 34.4801V34.4078L32.1066 34.342C32.5964 34.2142 33.0704 34.0334 33.52 33.8031C34.3661 33.3698 35.1414 32.8137 35.82 32.1533C36.4852 31.5057 37.0451 30.7608 37.48 29.9449C37.9134 29.1266 38.1849 28.2343 38.28 27.3159C38.2918 27.2162 38.2645 27.1158 38.2038 27.0352C38.1431 26.9546 38.0535 26.8998 37.9533 26.8821H37.88C37.7987 26.8829 37.7197 26.9081 37.6533 26.9544C37.6092 26.9851 37.5718 27.0242 37.5432 27.0693C37.5145 27.1144 37.4953 27.1647 37.4866 27.2173C37.337 28.0027 37.0262 28.7497 36.5733 29.4125C36.1261 30.0724 35.5615 30.6469 34.9066 31.1083C34.277 31.5773 33.5776 31.9475 32.8333 32.2059C32.4851 32.321 32.1252 32.3981 31.76 32.436C31.5193 32.4745 31.274 32.4745 31.0333 32.436H30.98C30.8005 32.3727 30.6065 32.3611 30.4205 32.4023C30.2345 32.4435 30.0642 32.5359 29.9295 32.6688C29.7947 32.8017 29.7009 32.9695 29.6591 33.1529C29.6173 33.3362 29.6292 33.5275 29.6933 33.7045C29.7751 33.9141 29.8159 34.1371 29.8133 34.3617C29.8067 34.6497 29.7687 34.9362 29.7 35.2162C29.62 35.5317 29.5133 35.8866 29.4 36.2547Z" fill="#3D3331"/>
<path d="M19.9466 24.9037C19.5151 24.6208 19.1399 24.2621 18.84 23.8455C18.5155 23.4028 18.2636 22.9127 18.0933 22.3929C18.0769 22.3443 18.0457 22.3018 18.004 22.2712C17.9622 22.2406 17.912 22.2235 17.86 22.222C17.827 22.222 17.7944 22.2285 17.764 22.2412C17.7336 22.2538 17.7062 22.2723 17.6832 22.2956C17.6602 22.3189 17.6421 22.3465 17.6301 22.3767C17.6181 22.407 17.6124 22.4393 17.6133 22.4718C17.6165 23.1029 17.7339 23.7283 17.96 24.3187C18.2005 24.9371 18.5631 25.5023 19.0266 25.9816C19.5165 26.4801 20.1101 26.868 20.7666 27.1187C21.0541 27.2318 21.3479 27.3283 21.6466 27.4079C21.6584 27.5183 21.6762 27.628 21.7 27.7365C21.7946 28.1774 21.9684 28.5981 22.2133 28.9787C22.4666 29.3605 22.801 29.6834 23.1933 29.9252C23.5733 30.153 24.0086 30.2756 24.4533 30.2801C24.4796 30.2824 24.5061 30.2795 24.5313 30.2716C24.5565 30.2637 24.5798 30.2509 24.6 30.2341C24.6571 30.1965 24.6973 30.1386 24.7122 30.0725C24.7271 30.0063 24.7156 29.9371 24.68 29.8792C24.4934 29.6016 24.3348 29.3066 24.2066 28.9984C24.1027 28.7443 24.0267 28.4799 23.98 28.2097C23.9401 27.9508 23.9178 27.6895 23.9133 27.4276V26.7703C23.9272 26.7075 23.9272 26.6425 23.9133 26.5797L23.3333 25.7253C23.2743 25.6267 23.1872 25.5475 23.083 25.4972C22.9787 25.447 22.8618 25.428 22.7466 25.4426C22.2591 25.5249 21.7609 25.5249 21.2733 25.4426C20.8011 25.3453 20.3513 25.1625 19.9466 24.9037Z" fill="#3D3331"/>
<path d="M48 27.1648C47.9469 26.276 47.7205 25.4057 47.3333 24.6014C46.9221 23.7755 46.3107 23.0621 45.5533 22.5245C44.8133 22.0089 43.9737 21.6487 43.0867 21.4663C42.3359 21.3065 41.5673 21.2424 40.8 21.2757C40.8671 20.0133 40.7412 18.7482 40.4267 17.5227L39.6067 18.4429C39.7777 19.415 39.8158 20.4053 39.72 21.3874C39.1142 21.4792 38.5198 21.6334 37.9467 21.8475C37.5237 22.0087 37.1192 22.2136 36.74 22.4588C36.3159 22.7264 35.9618 23.089 35.7067 23.517C35.5542 23.785 35.4742 24.0871 35.4742 24.3944C35.4742 24.7017 35.5542 25.0038 35.7067 25.2719C35.8415 25.5389 36.0446 25.7666 36.296 25.9325C36.5473 26.0985 36.8382 26.197 37.14 26.2183C37.6785 26.2374 38.2083 26.0803 38.6467 25.7714C39.0356 25.5078 39.3741 25.1785 39.6467 24.7986C40.0965 24.1593 40.4179 23.4409 40.5933 22.6822C41.321 22.6453 42.0504 22.7095 42.76 22.8728C43.4479 23.0302 44.0964 23.3231 44.6667 23.7339C45.2111 24.1373 45.6481 24.6651 45.94 25.2719C46.2302 25.9058 46.3953 26.5883 46.4267 27.2831C46.4267 27.4343 46.4267 27.592 46.4267 27.7497V27.8155V28.3807C46.4085 28.7402 46.3661 29.0981 46.3 29.4521C46.0082 30.9392 45.5312 32.3852 44.88 33.7571C44.2377 35.1493 43.4489 36.471 42.5267 37.7007C40.7011 40.1449 38.3375 42.1493 35.6133 43.5635C32.8646 44.9482 29.8546 45.7561 26.7733 45.9362C25.2344 46.0514 23.6882 46.0294 22.1533 45.8705C20.6283 45.7034 19.1248 45.3818 17.6667 44.9109C14.7408 43.9575 12.0413 42.4292 9.73127 40.4184C7.42127 38.4075 5.54869 35.9559 4.22665 33.2116C2.9344 30.4621 2.21357 27.4854 2.10665 24.4569C1.97195 19.8676 3.27424 15.3489 5.83642 11.5152C8.39859 7.68141 12.0963 4.71873 16.4267 3.03004C17.8702 2.46921 19.3696 2.05946 20.9 1.80753C21.3533 1.72866 21.7067 1.67607 22.0467 1.64321L22.62 1.57748L23.4067 1.53148H23.7667H24.36C24.6133 1.53148 24.8867 1.53148 25.1533 1.53148H25.5267C28.6492 1.6575 31.7182 2.37375 34.5667 3.64129C35.9836 4.28636 37.3249 5.08198 38.5667 6.01402C39.807 6.96911 40.9766 8.01023 42.0667 9.12945C42.1323 9.1964 42.2111 9.24955 42.2982 9.2857C42.3852 9.32185 42.4788 9.34024 42.5733 9.33977C42.7625 9.33885 42.9441 9.26584 43.08 9.13602C43.2145 9.00068 43.2909 8.81941 43.2933 8.62993C43.2931 8.44002 43.2163 8.25799 43.08 8.12384C41.9403 6.96553 40.722 5.88512 39.4333 4.8901C38.1192 3.89267 36.6999 3.03768 35.2 2.33991C32.1812 0.977105 28.9237 0.202654 25.6067 0.0592041H25.2467C24.9533 0.0592041 24.6667 0.0592041 24.3733 0.0592041H23.7467H22.4933L21.88 0.118358C21.52 0.151221 21.1267 0.19723 20.6667 0.276101C19.0237 0.528736 17.4111 0.944941 15.8533 1.51833C12.736 2.69829 9.89252 4.48674 7.49332 6.77644C5.08055 9.06393 3.16997 11.8155 1.87999 14.8608C-0.0641058 19.4713 -0.504472 24.564 0.619986 29.4323C1.00177 31.0459 1.55135 32.6163 2.25999 34.1186C3.6981 37.1208 5.73931 39.8041 8.25999 42.0058C10.7964 44.1911 13.7593 45.8418 16.9667 46.8564C18.5647 47.3586 20.2113 47.6956 21.88 47.862C23.5409 48.0141 25.2125 48.0141 26.8733 47.862C30.2217 47.6525 33.4889 46.7571 36.4667 45.233C37.9503 44.4544 39.3355 43.5058 40.5933 42.4067C41.839 41.3075 42.957 40.0752 43.9267 38.7326C44.8938 37.3913 45.7182 35.9552 46.3867 34.4473C47.0711 32.9376 47.5637 31.3503 47.8533 29.7215C47.9274 29.2869 47.9697 28.8476 47.98 28.407V27.7497C48 27.5591 48 27.362 48 27.1648ZM38.6667 24.1216C38.4685 24.3815 38.2246 24.6041 37.9467 24.7789C37.7494 24.9133 37.5191 24.9928 37.28 25.009H37.2C37.1076 24.9988 37.0197 24.9641 36.9457 24.9085C36.8717 24.853 36.8144 24.7786 36.78 24.6935C36.7297 24.6075 36.7032 24.5101 36.7032 24.4108C36.7032 24.3116 36.7297 24.2141 36.78 24.1282C36.9517 23.8802 37.18 23.6753 37.4467 23.5301C37.7446 23.3474 38.0621 23.1975 38.3933 23.0832C38.7128 22.9786 39.0377 22.8909 39.3667 22.8203C39.2038 23.2875 38.9675 23.7266 38.6667 24.1216Z" fill="#3D3331"/>
<path d="M34.1133 14.6504C34.1383 14.7274 34.1871 14.7947 34.2528 14.8431C34.3186 14.8914 34.398 14.9182 34.48 14.9199C34.931 14.9448 35.3781 15.0175 35.8133 15.1368C36.0533 14.9593 36.3 14.7884 36.5467 14.6175C35.9826 14.3832 35.3878 14.2284 34.78 14.1574C34.5001 13.4072 33.9956 12.7585 33.3333 12.2974C32.6294 11.8053 31.8412 11.4424 31.0067 11.226C29.4849 10.8343 27.9033 10.7207 26.34 10.8908C25.7484 10.3199 25.0257 9.8982 24.2333 9.66175C23.6469 9.49029 23.0383 9.40394 22.4267 9.40541C22.1279 9.4057 21.8295 9.42547 21.5333 9.46457C20.6171 9.57557 19.7377 9.88777 18.96 10.3782C18.3549 10.7577 17.8499 11.2736 17.4867 11.8833L17.24 11.8307C16.9255 11.7951 16.6079 11.7951 16.2933 11.8307C15.6656 11.8751 15.0545 12.0498 14.5 12.3434C13.945 12.6423 13.4556 13.0466 13.06 13.533L12.9467 13.6842H12.9133C12.7359 13.6681 12.5574 13.6681 12.38 13.6842C11.7236 13.7202 11.0846 13.9057 10.5132 14.2262C9.94179 14.5466 9.4535 14.9933 9.08666 15.5311C8.49008 16.4518 8.15828 17.515 8.12666 18.6071C7.26864 19.7182 6.81912 21.0838 6.85183 22.4799C6.88453 23.876 7.39753 25.2197 8.30666 26.2905C9.20934 27.407 10.4237 28.2387 11.8 28.683C12.835 29.0177 13.9307 29.1297 15.0133 29.0116C15.2133 29.4948 15.4976 29.9397 15.8533 30.3261C16.4517 30.96 17.201 31.4366 18.0333 31.713C19.1054 32.0512 20.2121 32.2716 21.3333 32.3702C21.7 32.4162 22.06 32.4622 22.4133 32.5214L22.9067 32.6068L23.1933 32.6726L23.36 32.712L23.54 32.7777C23.7746 32.8436 23.9989 32.9409 24.2067 33.0669C24.7283 33.3838 25.1705 33.813 25.5 34.3223C26.1862 35.4465 26.5567 36.7305 26.5733 38.0424C26.5768 38.1894 26.639 38.3292 26.7463 38.4313C26.8537 38.5334 26.9975 38.5897 27.1467 38.5879C27.3005 38.5879 27.448 38.5277 27.5568 38.4205C27.6656 38.3132 27.7267 38.1678 27.7267 38.0161C27.7203 37.2613 27.6286 36.5096 27.4533 35.7749C27.289 35.0236 27.0103 34.3012 26.6267 33.6322C26.2165 32.9338 25.6513 32.3361 24.9733 31.8838C24.6664 31.6986 24.34 31.5466 24 31.4303L23.8067 31.3515L23.64 31.2923C23.5067 31.2529 23.3733 31.2069 23.24 31.174L22.6933 31.036L22.14 30.8914C20.9871 30.6903 19.8588 30.3709 18.7733 29.9383C18.2556 29.7252 17.798 29.3914 17.44 28.9656C17.1334 28.5675 16.9339 28.0995 16.86 27.6051C16.8569 27.5811 16.8569 27.5568 16.86 27.5328C16.7875 27.2546 16.6073 27.0155 16.358 26.8668C16.1087 26.7181 15.8103 26.6717 15.5267 26.7375C14.5326 26.9867 13.487 26.9502 12.5133 26.6323C11.5392 26.3142 10.6706 25.7418 9.99999 24.976C9.34606 24.2237 8.96592 23.2775 8.91999 22.2878C8.90785 22.039 8.92575 21.7897 8.97333 21.5451C9.07382 21.739 9.20427 21.9164 9.35999 22.0709C9.65043 22.3501 10.0084 22.5514 10.4 22.6559C10.7221 22.7424 11.0531 22.7932 11.3867 22.807C11.6067 22.807 11.8133 22.807 12.0133 22.807C11.9801 23.0381 11.9801 23.2726 12.0133 23.5037C12.1044 24.0994 12.3684 24.6564 12.7733 25.1075C12.8056 25.144 12.8485 25.1699 12.8962 25.1817C12.9439 25.1934 12.9941 25.1905 13.04 25.1732C13.07 25.1624 13.0974 25.1456 13.1205 25.1239C13.1437 25.1023 13.1621 25.0762 13.1746 25.0472C13.1871 25.0183 13.1934 24.9871 13.1932 24.9556C13.193 24.9241 13.1862 24.8931 13.1733 24.8643C13.0905 24.6361 13.0302 24.4006 12.9933 24.161C12.9614 23.943 12.9614 23.7217 12.9933 23.5037C13.0489 23.1219 13.2549 22.7772 13.5667 22.5441C13.6378 22.4894 13.697 22.421 13.7405 22.343C13.7841 22.265 13.8111 22.1792 13.82 22.0906C13.8373 21.9179 13.7846 21.7454 13.6733 21.6108C13.5619 21.477 13.4013 21.392 13.2267 21.3742H13.02C12.5573 21.3401 12.098 21.2698 11.6467 21.1639C11.4666 21.1138 11.2956 21.0362 11.14 20.9338C11.0267 20.857 10.9237 20.7665 10.8333 20.6643C10.7475 20.5745 10.6695 20.4778 10.6 20.3752C10.509 20.2168 10.4352 20.0493 10.38 19.8756C10.3 19.6719 10.24 19.4353 10.1667 19.2184C10.1667 19.1132 10.1 18.9949 10.0733 18.8832C10.0392 18.0765 10.2306 17.2762 10.6267 16.5696C10.8279 16.2475 11.1016 15.9754 11.4267 15.7743C11.7499 15.578 12.1151 15.4587 12.4933 15.426C12.5511 15.4227 12.6089 15.4227 12.6667 15.426H12.8133C12.9914 15.4623 13.1752 15.4623 13.3533 15.426C13.5282 15.3921 13.6943 15.3241 13.842 15.2259C13.9898 15.1277 14.116 15.0013 14.2133 14.8541L14.3933 14.5912C14.6353 14.2672 14.9426 13.996 15.296 13.7947C15.6493 13.5933 16.0411 13.4662 16.4467 13.4213C16.6462 13.4015 16.8472 13.4015 17.0467 13.4213C17.1971 13.4304 17.3443 13.4684 17.48 13.533H17.52L17.6733 13.5988C17.7688 13.6258 17.8687 13.634 17.9673 13.6228C18.066 13.6117 18.1614 13.5814 18.2481 13.5338C18.3349 13.4861 18.4112 13.422 18.4727 13.3452C18.5343 13.2684 18.5798 13.1803 18.6067 13.0861C18.806 12.4747 19.2134 11.95 19.76 11.6007C20.3498 11.21 21.0185 10.9499 21.72 10.8382C22.4317 10.7206 23.1603 10.7497 23.86 10.9237C24.2453 11.0301 24.6118 11.1941 24.9467 11.4101C23.8944 11.6874 22.9131 12.1801 22.0667 12.8561H22.0333C21.9439 12.9311 21.8674 13.0199 21.8067 13.119C21.7269 13.2401 21.6733 13.3762 21.6492 13.5187C21.6251 13.6611 21.6311 13.807 21.6667 13.9471C21.7185 14.1532 21.8302 14.3399 21.988 14.4843C22.1459 14.6288 22.343 14.7247 22.5553 14.7602C22.7677 14.7958 22.9859 14.7696 23.1833 14.6847C23.3807 14.5998 23.5487 14.4599 23.6667 14.2823C24.1535 13.5432 24.8 12.9192 25.56 12.4551C25.7752 12.3245 25.9978 12.206 26.2267 12.1002C27.7191 11.8471 29.2471 11.8806 30.7267 12.1988C31.4605 12.3568 32.1602 12.6417 32.7933 13.0401C33.4081 13.4112 33.8743 13.9799 34.1133 14.6504Z" fill="#3D3331"/>
<path d="M22.5267 15.5114C22.4736 15.48 22.4101 15.4707 22.3501 15.4855C22.2901 15.5003 22.2385 15.538 22.2067 15.5903C21.8539 16.2146 21.3642 16.7535 20.7734 17.1677C20.2363 17.5293 19.6036 17.728 18.9534 17.7395H18.9C18.2879 17.7466 17.6881 17.5701 17.18 17.2334C16.9355 17.0571 16.7119 16.8543 16.5134 16.6287C16.3334 16.4184 16.1667 16.2081 15.9934 15.9715L15.8534 15.7743C15.7727 15.6717 15.6723 15.5857 15.5579 15.5214C15.4435 15.4571 15.3174 15.4158 15.1867 15.3997H15.0334C14.7942 15.3998 14.5629 15.4839 14.3809 15.6368C14.1989 15.7898 14.078 16.0016 14.04 16.2344C14.04 16.3133 13.9867 16.471 13.9534 16.5959V16.6485C13.92 16.7602 13.8867 16.8719 13.8467 16.9771C13.7674 17.2093 13.6576 17.4303 13.52 17.6344C13.4013 17.8046 13.2309 17.9334 13.0334 18.0024C12.7431 18.062 12.4436 18.062 12.1534 18.0024C12.1218 17.9979 12.0896 17.9996 12.0587 18.0075C12.0277 18.0154 11.9987 18.0293 11.9734 18.0484C11.951 18.0704 11.9332 18.0965 11.9211 18.1253C11.909 18.1541 11.9028 18.1849 11.9028 18.216C11.9028 18.2472 11.909 18.278 11.9211 18.3068C11.9332 18.3355 11.951 18.3617 11.9734 18.3836C12.2692 18.7563 12.6947 19.0075 13.1675 19.0889C13.6404 19.1702 14.127 19.0758 14.5334 18.824C14.8025 18.6668 15.0435 18.4669 15.2467 18.2325C16.3575 19.0349 17.7447 19.3726 19.1067 19.1724C20.0018 19.0126 20.8217 18.5751 21.4467 17.9236C22.0276 17.3178 22.4468 16.5792 22.6667 15.7743C22.6773 15.7213 22.6692 15.6663 22.6437 15.6185C22.6183 15.5707 22.577 15.5329 22.5267 15.5114Z" fill="#3D3331"/>
<path d="M31.6467 18.9292C31.5484 18.3132 31.3408 17.7191 31.0333 17.1743L30.9467 17.0165V16.9837C30.7409 16.6743 30.5017 16.3878 30.2333 16.1292C29.6694 15.5983 29.0059 15.1808 28.28 14.9001C27.9249 14.7573 27.5594 14.6408 27.1867 14.5518L26.6 14.4598H26.56C26.38 14.4598 26.2133 14.4072 25.98 14.394H25.7267C25.4752 14.4677 25.2585 14.627 25.1152 14.8436C24.9718 15.0602 24.9112 15.3199 24.944 15.5764C24.9768 15.833 25.101 16.0697 25.2944 16.2444C25.4878 16.4191 25.7379 16.5203 26 16.5302C26.0933 16.5302 26.3067 16.5302 26.3667 16.5302H26.4267H26.8C27.0827 16.5516 27.3634 16.5934 27.64 16.655C28.1862 16.7778 28.7041 17.0008 29.1667 17.3123C29.3532 17.4407 29.5252 17.5883 29.68 17.7527L29.7667 17.8315L29.8867 17.9959C30.0259 18.1657 30.1445 18.351 30.24 18.548C30.3483 18.7367 30.4334 18.9375 30.4933 19.1461L30.56 19.3432C30.6125 19.5263 30.6504 19.7131 30.6733 19.9019C30.6733 20.0137 30.7133 20.1254 30.74 20.2437V20.3028C30.7634 20.4118 30.8251 20.509 30.9141 20.5776C31.0031 20.6461 31.1138 20.6815 31.2267 20.6775C31.3535 20.6719 31.4731 20.6177 31.56 20.5263C31.6443 20.4321 31.6895 20.3101 31.6867 20.1845C31.6867 20.0728 31.6867 19.9545 31.6867 19.8362C31.7028 19.5977 31.7028 19.3583 31.6867 19.1198L31.6467 18.9292Z" fill="#3D3331"/>
</svg>
