<svg width="127" height="60" viewBox="0 0 127 60" fill="none" xmlns="http://www.w3.org/2000/svg">
<g clip-path="url(#clip0_150_1230)">
<path d="M67.9568 53.0219C67.6404 53.7155 67.1833 54.2011 66.3748 54.1317C65.7419 54.097 65.4607 53.6115 65.4607 52.8831C65.4607 52.2935 65.4607 48.3398 65.4958 47.7502C65.6013 45.0103 64.3005 43.5883 61.699 43.5537C60.0818 43.519 58.2888 44.4207 57.7263 46.1895C57.8318 42.3051 57.9021 38.5247 57.9021 38.3513C57.9373 37.2068 57.2693 36.3745 56.1443 36.4438C56.1443 36.6519 55.7576 52.5016 55.7576 52.8138C55.7576 53.9236 56.3201 54.7213 57.5154 54.7213C57.5154 54.6519 57.5857 52.0161 57.656 48.9294C57.7263 45.7733 59.5896 44.386 61.2419 44.4901C62.824 44.5941 63.738 45.5305 63.7029 47.4034C63.7029 48.4091 63.6326 51.7039 63.6677 52.5016C63.6677 54.2357 64.4763 54.86 65.6365 54.9294C67.2888 55.0334 67.9919 54.097 68.1326 53.6808C68.2732 53.3687 68.1677 53.0912 67.9568 53.0219Z" fill="#3D3331"/>
<path d="M21.5861 37.0681C18.0002 36.0277 15.3635 38.0392 14.4845 40.6751C13.3595 44.1086 14.7306 46.7791 17.297 47.6462C20.672 48.7907 22.5353 47.6115 23.0275 47.1606C23.5549 46.6404 23.801 45.7733 23.4142 45.2878C22.4299 46.6057 20.4963 47.7849 18.4924 47.23C15.9963 46.5363 15.3635 44.3514 16.2424 41.4034C17.0158 38.8022 18.7385 36.8947 21.2697 37.6231C22.6056 38.0392 23.4845 39.1837 22.922 40.9525C22.5353 42.1664 21.2345 43.1028 19.2306 42.6173C18.2111 42.3745 17.0861 41.6462 16.6642 41.1953C16.4885 41.5421 16.4885 42.1317 17.1213 42.5826C18.0002 43.2762 19.6174 43.8311 21.3752 43.7271C23.133 43.623 24.3283 42.756 24.7502 41.2647C25.2072 39.3918 24.0471 37.7965 21.5861 37.0681Z" fill="#3D3331"/>
<path d="M37.0898 50.6288C36.6328 51.2184 36.0703 51.5999 35.332 51.4265C34.6992 51.2531 34.5586 50.7329 34.6992 50.0392C34.875 49.2415 35.7188 45.3225 35.7891 45.0797C36.3516 42.5479 35.3672 40.9872 32.9063 40.2589C30.6914 39.5999 29.0742 40.0855 28.1953 40.9525C27.6328 41.5074 27.4922 42.3745 27.9492 42.9641C28.7227 41.5768 30.3398 40.4323 32.3438 40.9525C33.8906 41.334 34.5234 42.5479 34.1016 44.4554C34.0664 44.6982 33.75 46.1202 33.4688 47.334C32.9414 49.3803 31.2188 50.5941 29.3906 50.1433C28.3359 49.9005 27.4922 49.1375 27.7734 47.8543C27.9492 46.9525 28.4414 46.467 29.4258 46.1548C30.1289 45.9467 31.8164 45.8774 32.4141 45.808C33.0469 45.7386 33.5391 45.3225 33.5391 44.6635C33.1172 44.8369 32.5898 44.9756 31.6758 45.0103C31.1133 45.045 30.3047 45.0797 29.25 45.1144C28.0195 45.1491 26.2266 45.5999 25.8047 47.1953C25.3125 49.0681 26.7539 50.386 28.6875 50.7676C30.6914 51.1491 32.0977 50.5941 32.9414 49.6577C32.7656 51.045 33.3984 51.7387 34.4531 51.9814C36.0352 52.3976 36.9141 51.6346 37.1602 51.2531C37.3359 51.045 37.2656 50.7329 37.0898 50.6288Z" fill="#3D3331"/>
<path d="M44.1912 51.6693C43.7693 52.2935 43.2068 52.7097 42.4685 52.571C41.8357 52.4323 41.6248 51.912 41.7302 51.2184C41.8006 50.8022 43.9099 37.2415 43.9451 37.0334C44.156 35.9236 43.5584 35.0219 42.4334 34.9178C42.3982 35.0912 40.0076 50.4554 40.0076 50.5594C39.7615 52.2589 40.4998 53.0219 41.6248 53.23C43.242 53.5421 44.0506 52.7097 44.2615 52.3282C44.4373 52.0508 44.367 51.7386 44.1912 51.6693Z" fill="#3D3331"/>
<path d="M50.4492 40.675C50.5547 39.5305 49.9922 38.6635 48.832 38.6288C48.832 38.6635 48.6211 40.675 48.375 43.0681C47.9531 43.0334 47.6016 42.9987 47.3555 42.9987C46.9688 42.964 46.5469 43.0681 46.4766 43.6577C46.6172 43.6577 47.3906 43.727 48.3398 43.7964C48.0234 47.0912 47.6367 50.8716 47.6016 51.2877C47.3906 53.1606 48.1289 53.9929 49.6055 54.201C51.2227 54.4438 51.9961 53.6114 52.1719 53.2646C52.3477 52.9525 52.2422 52.675 52.0313 52.6057C51.6094 53.2993 50.9766 53.6114 50.2383 53.4727C49.5352 53.2993 49.2188 52.8138 49.2891 52.1548C49.3242 51.912 49.7813 47.2646 50.0977 43.9698C51.0469 44.0392 51.8203 44.1086 51.9961 44.1086C52.5937 44.1432 52.875 43.8311 52.9805 43.4496C52.3477 43.4149 51.2578 43.3455 50.168 43.2415C50.3438 41.8195 50.4492 40.7791 50.4492 40.675Z" fill="#3D3331"/>
<path d="M76.8162 43.1375C76.9568 44.0739 76.9216 45.2184 76.7107 46.5364C76.3591 49.0335 75.7615 50.6635 74.8474 52.6404C74.074 51.0797 70.9802 44.9063 70.8396 44.6635C70.3123 43.6577 69.363 43.2069 68.3787 43.7618C68.4841 43.9352 73.1599 53.2647 73.8279 54.5826C72.8435 56.2127 71.6833 57.4265 70.4529 57.5653C69.5037 57.6693 68.5896 57.5306 68.0271 57.1491C67.9568 58.0508 68.6599 58.571 69.2576 58.7444C70.699 59.1259 72.8435 57.8427 74.9177 54.0277C76.3591 51.3572 78.1521 47.1606 78.1873 44.941C78.1873 43.6924 77.5896 43.1722 76.8162 43.1375Z" fill="#3D3331"/>
<path d="M106.734 47.23C106.594 47.9583 106.207 48.5479 105.469 48.6866C104.836 48.7907 104.449 48.3745 104.273 47.6808C104.063 46.8832 103.184 42.9988 103.113 42.7213C102.516 40.1895 100.969 39.1837 98.4024 39.5652C96.1172 39.9121 94.8516 41.0219 94.4297 42.2011C94.1836 42.9294 94.3945 43.7618 95.0625 44.1433C95.168 42.5479 96.1172 40.8485 98.1563 40.467C99.7031 40.1548 100.828 40.9872 101.285 42.8947C101.355 43.1375 101.672 44.5248 101.953 45.7733C102.34 47.8543 101.32 49.6577 99.4922 50.0392C98.4375 50.2473 97.3477 49.9352 97.0313 48.6519C96.8203 47.7502 97.0664 47.1259 97.8047 46.4323C98.3672 45.9121 99.8438 45.1837 100.371 44.8369C100.898 44.4901 101.18 43.9005 100.898 43.3456C100.582 43.6924 100.195 44.0045 99.3867 44.4554C98.8946 44.7329 98.1914 45.1144 97.2422 45.5652C96.1524 46.1202 94.711 47.2647 95.0274 48.8947C95.3789 50.8022 97.2422 51.3918 99.1758 50.9063C101.145 50.386 102.164 49.3109 102.551 48.097C103.008 49.4149 103.887 49.7618 104.906 49.5884C106.523 49.3109 106.98 48.2358 107.051 47.7849C107.086 47.5074 106.91 47.2647 106.734 47.23Z" fill="#3D3331"/>
<path d="M11.4607 43.519C10.8982 44.0392 10.3006 44.3167 9.59745 44.0046C8.99979 43.7271 8.92948 43.1722 9.21073 42.5132C9.42167 41.9583 10.8982 38.282 11.1443 37.7618C12.2693 35.23 11.5662 33.4612 9.17557 32.4901C7.69901 31.8658 5.69511 32.0739 4.49979 33.4959C6.01151 29.8889 7.48807 26.4207 7.55839 26.282C8.01542 25.2415 7.69901 24.2358 6.60917 23.8889C6.53886 24.097 0.316201 38.6982 0.210732 38.9757C-0.211143 40.0161 0.0349514 40.9525 1.12479 41.3687C1.15995 41.2994 2.17948 38.8716 3.40995 36.0277C4.64042 33.1144 6.85526 32.4901 8.40214 33.1837C9.84354 33.8427 10.3357 35.0566 9.63261 36.7907C9.24589 37.7271 7.98026 40.7791 7.69901 41.5074C7.0662 43.1028 7.55839 43.9699 8.61307 44.4901C10.1248 45.1837 11.1443 44.5595 11.3904 44.2473C11.6014 43.9352 11.6014 43.6577 11.4607 43.519Z" fill="#3D3331"/>
<path d="M86.625 42.2704C84.9023 42.5825 83.8125 43.4149 83.4961 45.0103C83.4609 44.8369 83.4258 44.6635 83.4258 44.49C83.3906 44.282 83.3555 44.0739 83.3203 43.8658C82.7578 40.3629 82.3008 37.4149 82.3008 37.3109C82.125 36.1663 81.3164 35.5074 80.2266 35.7502C80.2617 35.9236 81.457 43.4843 82.1602 47.8195L82.793 51.8426C82.9687 52.9872 83.7773 53.6461 84.8672 53.4033L84.7617 52.7791C85.8164 53.1259 87.082 53.1952 88.3125 53.0218C91.5117 52.5363 93.1992 50.2473 92.5664 46.7097C91.9687 43.3109 89.8594 41.7155 86.625 42.2704ZM88.3476 52.3976C86.4492 52.7097 84.832 52.3282 84.5508 51.2184C84.375 50.5247 84.3047 49.9005 84.0937 48.6172C83.5312 45.0796 84.4102 43.3802 86.6601 42.9987C88.9805 42.6172 90.3164 43.9005 90.8789 47.0565C91.4414 50.3513 90.5976 52.0161 88.3476 52.3976Z" fill="#3D3331"/>
<path d="M124.348 31.0334C124.77 31.8311 125.086 32.8716 125.332 34.1201C125.789 36.4785 125.789 38.1433 125.578 40.1895C124.383 39.0103 119.637 34.4323 119.461 34.2589C118.687 33.4959 117.668 33.3918 116.965 34.2242C117.105 34.3629 124.277 41.334 125.297 42.3051C124.945 44.0739 124.277 45.5305 123.187 46.0508C122.379 46.4323 121.5 46.6057 120.867 46.4323C121.078 47.2646 121.887 47.5421 122.449 47.4727C123.855 47.3687 125.402 45.5305 126.035 41.4727C126.492 38.6288 126.773 34.2935 126.105 32.282C125.754 31.1375 125.086 30.8253 124.348 31.0334Z" fill="#3D3331"/>
<path d="M110.918 36.3398C109.266 36.8947 108.387 37.9005 108.316 39.5305C108.246 39.3571 108.211 39.2184 108.141 39.045C108.07 38.8369 108 38.6635 107.93 38.4554C106.805 35.1259 105.926 32.4207 105.855 32.282C105.504 31.2068 104.59 30.6519 103.57 31.1028C103.641 31.2415 106.031 38.3514 107.437 42.5132L108.738 46.3282C109.09 47.4034 110.004 47.9583 111.023 47.5074L110.848 46.9178C111.937 47.0912 113.203 46.9525 114.363 46.571C117.422 45.5999 118.688 43.0681 117.492 39.704C116.332 36.5132 114.012 35.2993 110.918 36.3398ZM114.293 45.9814C112.5 46.6057 110.848 46.5016 110.355 45.4265C110.074 44.7675 109.898 44.1779 109.477 42.9641C108.352 39.5652 108.914 37.7964 111.059 37.0334C113.238 36.2704 114.785 37.3109 115.84 40.3282C116.965 43.4843 116.437 45.2184 114.293 45.9814Z" fill="#3D3331"/>
<path d="M30.783 0.555603C32.2578 3.00252 33.565 5.54863 34.8052 8.12781C36.0454 10.707 37.185 13.2862 38.2576 15.8984C39.3302 18.5107 40.3692 21.156 41.3078 23.8344C42.2463 26.5127 43.1178 29.2242 43.7881 32.0018C42.2798 29.5548 41.0061 27.0087 39.7659 24.4626C38.5257 21.8834 37.3861 19.3043 36.3135 16.692C35.2409 14.0798 34.2354 11.4345 33.2968 8.72301C32.3248 6.04463 31.4533 3.33318 30.783 0.555603Z" fill="#FFC42C"/>
<path d="M23.3086 25.2562C25.5879 23.6029 27.9341 22.1149 30.314 20.7261C32.6938 19.3042 35.1406 17.9816 37.621 16.7251C40.1014 15.4685 42.5817 14.2451 45.1291 13.1208C47.6765 11.9966 50.2575 10.9384 52.9054 10.0457C50.6597 11.699 48.2799 13.187 45.9001 14.6088C43.5202 16.0307 41.0734 17.3533 38.593 18.6099C36.1127 19.8664 33.6323 21.0898 31.0849 22.2141C28.571 23.3053 25.9901 24.3965 23.3086 25.2562Z" fill="#FFC42C"/>
<path d="M41.509 4.06042C41.2074 6.63961 40.7716 9.18572 40.3024 11.7318C39.7996 14.2779 39.2633 16.791 38.6265 19.271C38.0231 21.784 37.3192 24.264 36.5818 26.744C35.8109 29.224 35.0065 31.6709 34.0344 34.0847C34.2691 31.5056 34.7048 28.9594 35.1741 26.4133C35.6768 23.8672 36.2131 21.3542 36.85 18.8742C37.4868 16.3611 38.1572 13.8812 38.8946 11.4012C39.699 8.92119 40.47 6.44121 41.509 4.06042Z" fill="#FFC42C"/>
<path d="M25.0513 13.716C27.7663 14.245 30.4142 14.9725 33.0287 15.733C35.6431 16.5266 38.224 17.3863 40.7714 18.3122C43.3189 19.2381 45.8663 20.2301 48.3801 21.3213C50.894 22.4124 53.3744 23.5367 55.7542 24.8924C53.0392 24.3634 50.3913 23.669 47.7768 22.8754C45.1624 22.0818 42.5814 21.222 40.034 20.2962C37.4866 19.3703 34.9392 18.3783 32.4253 17.2871C29.945 16.196 27.4646 15.0386 25.0513 13.716Z" fill="#FFC42C"/>
</g>
<defs>
<clipPath id="clip0_150_1230">
<rect width="126.562" height="60" fill="white"/>
</clipPath>
</defs>
</svg>
