<svg width="227" height="108" fill="none" xmlns="http://www.w3.org/2000/svg">
<path d="M121.886 95.4394C121.319 96.688 120.499 97.562 119.049 97.4371C117.914 97.3747 117.409 96.5007 117.409 95.1897C117.409 94.1285 117.409 87.0117 117.472 85.9504C117.662 81.0186 115.329 78.4591 110.662 78.3967C107.762 78.3342 104.546 79.9574 103.537 83.1412C103.726 76.1493 103.852 69.3446 103.852 69.0325C103.916 66.9724 102.717 65.4741 100.7 65.599C100.7 65.9735 100.006 94.503 100.006 95.0649C100.006 97.0626 101.015 98.4984 103.159 98.4984C103.159 98.3735 103.285 93.629 103.411 88.073C103.537 82.392 106.879 79.8949 109.843 80.0822C112.68 80.2695 114.32 81.955 114.257 85.3261C114.257 87.1365 114.131 93.0672 114.194 94.503C114.194 97.6244 115.644 98.7481 117.725 98.873C120.688 99.0602 121.949 97.3747 122.202 96.6256C122.454 96.0637 122.265 95.5643 121.886 95.4394Z" fill="#3D3331"/>
<path d="M38.716 66.7227C32.2843 64.8499 27.5552 68.4707 25.9788 73.2152C23.961 79.3955 26.4202 84.2025 31.0232 85.7631C37.0766 87.8233 40.4185 85.7007 41.3013 84.8892C42.2471 83.9527 42.6885 82.392 41.9949 81.5181C40.2293 83.8903 36.7613 86.0129 33.1671 85.014C28.6902 83.7655 27.5552 79.8325 29.1316 74.5262C30.5188 69.8441 33.6085 66.4105 38.1485 67.7215C40.5446 68.4707 42.121 70.5308 41.1121 73.7146C40.4185 75.8996 38.0854 77.5851 34.4913 76.7111C32.6627 76.2741 30.6449 74.9631 29.8882 74.1516C29.5729 74.7759 29.5729 75.8371 30.7079 76.6487C32.2843 77.8972 35.1849 78.8961 38.3377 78.7088C41.4904 78.5215 43.6343 76.9608 44.391 74.2764C45.2107 70.9053 43.1299 68.0337 38.716 66.7227Z" fill="#3D3331"/>
<path d="M66.5235 91.1319C65.7038 92.1932 64.6949 92.8799 63.3707 92.5677C62.2357 92.2556 61.9835 91.3192 62.2357 90.0706C62.551 88.6348 64.0643 81.5805 64.1905 81.1435C65.1993 76.5862 63.4338 73.777 59.0199 72.466C55.0474 71.2799 52.1468 72.1539 50.5705 73.7146C49.5616 74.7134 49.3093 76.2741 50.1291 77.3354C51.5163 74.8383 54.4168 72.7782 58.011 73.7146C60.7855 74.4013 61.9205 76.5862 61.1638 80.0198C61.1007 80.4568 60.5332 83.0163 60.0288 85.2013C59.083 88.8845 55.9932 91.0695 52.7143 90.2579C50.8227 89.8209 49.3093 88.4475 49.8138 86.1377C50.1291 84.5146 51.0118 83.6406 52.7774 83.0787C54.0385 82.7042 57.0652 82.5793 58.1371 82.4545C59.2721 82.3296 60.1549 81.5805 60.1549 80.3943C59.3982 80.7065 58.4524 80.9562 56.813 81.0186C55.8041 81.081 54.3538 81.1435 52.4621 81.2059C50.2552 81.2683 47.0393 82.0799 46.2827 84.9516C45.3999 88.3227 47.9852 90.6949 51.4532 91.3816C55.0474 92.0683 57.5696 91.0695 59.083 89.3839C58.7677 91.881 59.9027 93.1296 61.7943 93.5666C64.6318 94.3157 66.2082 92.9423 66.6496 92.2556C66.9649 91.881 66.8388 91.3192 66.5235 91.1319Z" fill="#3D3331"/>
<path d="M79.2607 93.0048C78.504 94.1285 77.4952 94.8776 76.171 94.6279C75.036 94.3782 74.6577 93.4417 74.8468 92.1932C74.9729 91.4441 78.7563 67.0348 78.8193 66.6602C79.1977 64.6625 78.1257 63.0394 76.1079 62.8521C76.0449 63.1643 71.7571 90.8198 71.7571 91.0071C71.3157 94.066 72.6399 95.4394 74.6577 95.814C77.5582 96.3759 79.0085 94.8776 79.3868 94.1909C79.7021 93.6915 79.576 93.1296 79.2607 93.0048Z" fill="#3D3331"/>
<path d="M90.4847 73.2152C90.6738 71.155 89.6649 69.5943 87.5841 69.5319C87.5841 69.5943 87.2058 73.2152 86.7644 77.5227C86.0077 77.4602 85.3772 77.3978 84.9358 77.3978C84.2422 77.3354 83.4855 77.5227 83.3594 78.5839C83.6116 78.5839 84.9988 78.7088 86.7013 78.8337C86.1338 84.7643 85.4402 91.5689 85.3772 92.318C84.9988 95.6891 86.323 97.1874 88.9713 97.562C91.8719 97.999 93.2591 96.5007 93.5744 95.8764C93.8897 95.3146 93.7005 94.8152 93.3222 94.6903C92.5655 95.9389 91.4305 96.5007 90.1063 96.251C88.8452 95.9389 88.2777 95.0649 88.4038 93.8787C88.4669 93.4417 89.2866 85.0764 89.8541 79.1458C91.5566 79.2706 92.9438 79.3955 93.2591 79.3955C94.331 79.4579 94.8355 78.8961 95.0247 78.2094C93.8897 78.1469 91.9349 78.0221 89.9802 77.8348C90.2955 75.2753 90.4847 73.4024 90.4847 73.2152Z" fill="#3D3331"/>
<path d="M137.776 77.6475C138.029 79.3331 137.965 81.3932 137.587 83.7654C136.957 88.2602 135.885 91.1943 134.245 94.7527C132.858 91.9435 127.309 80.8313 127.057 80.3943C126.111 78.5839 124.409 77.7724 122.643 78.7712C122.832 79.0834 131.219 95.8764 132.417 98.2487C130.651 101.183 128.57 103.368 126.363 103.617C124.661 103.805 123.021 103.555 122.012 102.868C121.886 104.491 123.147 105.428 124.219 105.74C126.805 106.427 130.651 104.117 134.371 97.2498C136.957 92.4429 140.172 84.8891 140.235 80.8938C140.235 78.6464 139.164 77.7099 137.776 77.6475Z" fill="#3D3331"/>
<path d="M191.437 85.014C191.184 86.325 190.491 87.3863 189.167 87.636C188.032 87.8232 187.338 87.0741 187.023 85.8256C186.644 84.3897 185.068 77.3978 184.942 76.8984C183.87 72.3412 181.096 70.5308 176.492 71.2175C172.394 71.8417 170.124 73.8394 169.367 75.962C168.926 77.273 169.304 78.7712 170.502 79.4579C170.691 76.5863 172.394 73.5273 176.051 72.8406C178.826 72.2787 180.843 73.777 181.663 77.2105C181.789 77.6475 182.357 80.1446 182.861 82.392C183.555 86.1377 181.726 89.3839 178.447 90.0706C176.556 90.4452 174.601 89.8834 174.033 87.5735C173.655 85.9504 174.096 84.8267 175.421 83.5782C176.429 82.6417 179.078 81.3308 180.024 80.7065C180.969 80.0822 181.474 79.0209 180.969 78.0221C180.402 78.6464 179.708 79.2082 178.258 80.0198C177.375 80.5192 176.114 81.2059 174.412 82.0175C172.457 83.0163 169.872 85.0764 170.439 88.0105C171.07 91.4441 174.412 92.5053 177.88 91.6313C181.411 90.6949 183.239 88.7597 183.933 86.5747C184.753 88.947 186.329 89.5712 188.158 89.2591C191.058 88.7597 191.878 86.8244 192.004 86.0128C192.067 85.5134 191.752 85.0764 191.437 85.014Z" fill="#3D3331"/>
<path d="M20.5561 78.3342C19.5472 79.2706 18.4753 79.7701 17.2142 79.2082C16.1422 78.7088 16.0161 77.7099 16.5206 76.5238C16.8989 75.525 19.5472 68.9076 19.9886 67.9712C22.0064 63.414 20.7453 60.2302 16.4575 58.4822C13.8092 57.3585 10.215 57.7331 8.07114 60.2926C10.7825 53.8001 13.4309 47.5573 13.557 47.3076C14.3767 45.4348 13.8092 43.6244 11.8545 43.0001C11.7284 43.3747 0.567528 69.6568 0.378361 70.1562C-0.378306 72.029 0.0630846 73.7146 2.01781 74.4637C2.08086 74.3388 3.90947 69.9689 6.11642 64.8498C8.32336 59.6059 12.2959 58.4822 15.0703 59.7308C17.6556 60.9169 18.5384 63.1019 17.2772 66.2232C16.5836 67.9088 14.3136 73.4024 13.8092 74.7134C12.6742 77.5851 13.557 79.1458 15.4486 80.0822C18.16 81.3308 19.9886 80.2071 20.43 79.6452C20.8084 79.0834 20.8084 78.5839 20.5561 78.3342Z" fill="#3D3331"/>
<path d="M155.369 76.0868C152.279 76.6487 150.324 78.1469 149.757 81.0186C149.694 80.7065 149.631 80.3943 149.631 80.0822C149.568 79.7076 149.505 79.3331 149.441 78.9585C148.433 72.6533 147.613 67.3469 147.613 67.1597C147.298 65.0995 145.847 63.9134 143.893 64.3504C143.956 64.6626 146.1 78.2718 147.361 86.0753L148.496 93.3169C148.811 95.377 150.261 96.5631 152.216 96.1261L152.027 95.0024C153.918 95.6267 156.188 95.7516 158.395 95.4394C164.133 94.5654 167.16 90.4452 166.025 84.0776C164.953 77.9597 161.17 75.088 155.369 76.0868ZM158.458 94.3157C155.053 94.8776 152.153 94.1909 151.648 92.1932C151.333 90.9446 151.207 89.8209 150.829 87.5111C149.82 81.1435 151.396 78.0845 155.432 77.3978C159.593 76.7111 161.99 79.0209 162.998 84.7019C164.007 90.6325 162.494 93.629 158.458 94.3157Z" fill="#3D3331"/>
<path d="M223.027 55.8603C223.784 57.2961 224.351 59.1689 224.793 61.4163C225.613 65.6614 225.613 68.6579 225.234 72.3412C223.09 70.2186 214.578 61.9782 214.263 61.666C212.875 60.2926 211.047 60.1053 209.786 61.6036C210.038 61.8533 222.901 74.4013 224.73 76.1493C224.099 79.3331 222.901 81.955 220.946 82.8915C219.496 83.5782 217.92 83.8903 216.785 83.5782C217.163 85.0764 218.613 85.5759 219.622 85.451C222.145 85.2637 224.919 81.9551 226.054 74.651C226.874 69.5319 227.378 61.7285 226.18 58.1076C225.55 56.0475 224.351 55.4857 223.027 55.8603Z" fill="#3D3331"/>
<path d="M198.94 65.4117C195.976 66.4105 194.4 68.2209 194.274 71.155C194.148 70.8429 194.085 70.5932 193.959 70.281C193.833 69.9065 193.706 69.5943 193.58 69.2198C191.563 63.2267 189.986 58.3573 189.86 58.1076C189.23 56.1724 187.59 55.1735 185.761 55.9851C185.888 56.2348 190.175 69.0325 192.698 76.5238L195.031 83.3909C195.661 85.3261 197.301 86.325 199.129 85.5134L198.814 84.4521C200.769 84.7643 203.039 84.5146 205.12 83.8279C210.605 82.0799 212.875 77.5227 210.731 71.4672C208.651 65.7238 204.489 63.5389 198.94 65.4117ZM204.993 82.7666C201.778 83.8903 198.814 83.703 197.931 81.7678C197.427 80.5816 197.111 79.5204 196.355 77.3354C194.337 71.2175 195.346 68.0336 199.192 66.6602C203.102 65.2868 205.876 67.1597 207.768 72.5909C209.786 78.2718 208.84 81.3932 204.993 82.7666Z" fill="#3D3331"/>
<path d="M55.2117 1.00003C57.8569 5.40448 60.2015 9.98748 62.4258 14.63C64.6502 19.2725 66.6942 23.9151 68.618 28.6171C70.5418 33.3191 72.4054 38.0807 74.0888 42.9018C75.7721 47.7229 77.3351 52.6035 78.5375 57.6031C75.8322 53.1987 73.5477 48.6157 71.3233 44.0327C69.099 39.3901 67.0549 34.7476 65.1312 30.0456C63.2074 25.3435 61.4038 20.582 59.7205 15.7014C57.9771 10.8803 56.414 5.99967 55.2117 1.00003Z" fill="#FFC42C"/>
<path d="M41.8054 45.4611C45.8935 42.4851 50.1017 39.8067 54.3701 37.3069C58.6385 34.7476 63.0271 32.3668 67.4759 30.105C71.9246 27.8433 76.3733 25.6411 80.9423 23.6174C85.5113 21.5937 90.1404 19.6891 94.8897 18.0821C90.8618 21.0581 86.5934 23.7364 82.325 26.2958C78.0566 28.8551 73.668 31.2359 69.2193 33.4977C64.7705 35.7594 60.3218 37.9616 55.7528 39.9853C51.244 41.9494 46.6149 43.9136 41.8054 45.4611Z" fill="#FFC42C"/>
<path d="M74.4493 7.30887C73.9082 11.9514 73.1267 16.5344 72.2851 21.1174C71.3833 25.7004 70.4214 30.2239 69.2791 34.6879C68.197 39.2113 66.9345 43.6753 65.6119 48.1393C64.2292 52.6032 62.7864 57.0077 61.043 61.3526C61.4638 56.7101 62.2453 52.1271 63.087 47.5441C63.9888 42.9611 64.9506 38.4376 66.0929 33.9736C67.2351 29.4501 68.4375 24.9862 69.7601 20.5222C71.2029 16.0582 72.5856 11.5943 74.4493 7.30887Z" fill="#FFC42C"/>
<path d="M44.9312 24.6888C49.8007 25.6411 54.5501 26.9505 59.2393 28.3195C63.9285 29.7479 68.5576 31.2955 73.1266 32.962C77.6955 34.6285 82.2645 36.4141 86.7734 38.3783C91.2822 40.3424 95.731 42.3661 99.9993 44.8064C95.1298 43.8541 90.3804 42.6042 85.6912 41.1757C81.002 39.7472 76.3729 38.1997 71.8039 36.5332C67.235 34.8666 62.666 33.081 58.1571 31.1169C53.7084 29.1527 49.2597 27.0696 44.9312 24.6888Z" fill="#FFC42C"/>
</svg>
