<svg width="75" height="12" viewBox="0 0 75 12" fill="none" xmlns="http://www.w3.org/2000/svg">
    <path d="M1.5 5.25C1.08579 5.25 0.75 5.58579 0.75 6C0.75 6.41421 1.08579 6.75 1.5 6.75V5.25ZM74.0303 6.53033C74.3232 6.23744 74.3232 5.76256 74.0303 5.46967L69.2574 0.696699C68.9645 0.403806 68.4896 0.403806 68.1967 0.696699C67.9038 0.989593 67.9038 1.46447 68.1967 1.75736L72.4393 6L68.1967 10.2426C67.9038 10.5355 67.9038 11.0104 68.1967 11.3033C68.4896 11.5962 68.9645 11.5962 69.2574 11.3033L74.0303 6.53033ZM1.5 6.75H73.5V5.25H1.5V6.75Z" fill="#3D3331"/>
</svg>
