<svg width="18" height="18" viewBox="0 0 18 18" fill="none" xmlns="http://www.w3.org/2000/svg">
<path opacity="0.2" d="M14.787 2.52429L1.68076 6.21569C1.56919 6.2462 1.46974 6.31035 1.39595 6.39942C1.32216 6.48848 1.27762 6.59813 1.26839 6.71342C1.25917 6.82872 1.28571 6.94405 1.3444 7.04372C1.40309 7.14338 1.49108 7.22253 1.59638 7.27038L7.61513 10.118C7.73303 10.1726 7.82772 10.2673 7.88232 10.3852L10.73 16.404C10.7778 16.5093 10.857 16.5973 10.9566 16.656C11.0563 16.7146 11.1716 16.7412 11.2869 16.732C11.4022 16.7227 11.5119 16.6782 11.6009 16.6044C11.69 16.5306 11.7542 16.4312 11.7847 16.3196L15.4761 3.21335C15.504 3.11771 15.5058 3.0163 15.4811 2.91977C15.4564 2.82323 15.4062 2.73511 15.3357 2.66465C15.2652 2.59418 15.1771 2.54397 15.0806 2.51928C14.9841 2.49459 14.8826 2.49632 14.787 2.52429Z" fill="#123A8F"/>
<path d="M14.787 2.52429L1.68076 6.21569C1.56919 6.2462 1.46974 6.31035 1.39595 6.39942C1.32216 6.48848 1.27762 6.59813 1.26839 6.71342C1.25917 6.82872 1.28571 6.94405 1.3444 7.04372C1.40309 7.14338 1.49108 7.22253 1.59638 7.27038L7.61513 10.118C7.73303 10.1726 7.82772 10.2673 7.88232 10.3852L10.73 16.404C10.7778 16.5093 10.857 16.5973 10.9566 16.656C11.0563 16.7146 11.1716 16.7412 11.2869 16.732C11.4022 16.7227 11.5119 16.6782 11.6009 16.6044C11.69 16.5306 11.7542 16.4312 11.7847 16.3196L15.4761 3.21335C15.504 3.11771 15.5058 3.0163 15.4811 2.91977C15.4564 2.82323 15.4062 2.73511 15.3357 2.66465C15.2652 2.59418 15.1771 2.54397 15.0806 2.51928C14.9841 2.49459 14.8826 2.49632 14.787 2.52429V2.52429Z" stroke="#123A8F" stroke-width="1.125" stroke-linecap="round" stroke-linejoin="round"/>
<path d="M7.79736 10.2025L10.9755 7.02441" stroke="#123A8F" stroke-width="1.125" stroke-linecap="round" stroke-linejoin="round"/>
</svg>
