<svg width="24" height="24" viewBox="0 0 24 24" fill="none" xmlns="http://www.w3.org/2000/svg">
<path d="M23.0341 7.28446L20.2029 10.1063C19.6404 16.6595 14.1091 21.7501 7.49976 21.7501C6.14039 21.7501 5.01539 21.5345 4.16226 21.1126C3.47789 20.7657 3.19664 20.4001 3.12164 20.2876C3.05958 20.1933 3.0196 20.0863 3.00466 19.9744C2.98972 19.8626 3.00021 19.7488 3.03536 19.6416C3.0705 19.5344 3.12939 19.4364 3.20763 19.3551C3.28588 19.2738 3.38146 19.2112 3.48726 19.172C3.50601 19.1626 5.71851 18.3188 7.15289 16.697C6.26333 16.0636 5.48147 15.2912 4.83726 14.4095C3.55289 12.6657 2.19351 9.63759 3.00914 5.11884C3.03478 4.9845 3.09622 4.85958 3.18698 4.75727C3.27774 4.65496 3.39444 4.57906 3.52476 4.53759C3.6555 4.49478 3.79549 4.48875 3.92943 4.52017C4.06336 4.55159 4.18607 4.61923 4.28414 4.71571C4.31226 4.75321 7.43414 7.82821 11.2498 8.82196V8.25009C11.2534 7.65544 11.3742 7.06735 11.6052 6.51938C11.8362 5.97141 12.1728 5.4743 12.5959 5.05643C13.019 4.63857 13.5202 4.30813 14.071 4.08398C14.6218 3.85984 15.2114 3.74638 15.806 3.75009C16.5865 3.76122 17.3507 3.97432 18.0243 4.36863C18.698 4.76294 19.258 5.32502 19.6498 6.00009H22.4998C22.6478 5.99962 22.7927 6.043 22.9162 6.12475C23.0396 6.2065 23.1361 6.32296 23.1935 6.45946C23.2475 6.598 23.2613 6.749 23.233 6.895C23.2048 7.04099 23.1359 7.17602 23.0341 7.28446Z" fill="#3D3331"/>
</svg>
