<svg width="24" height="24" viewBox="0 0 24 24" fill="none" xmlns="http://www.w3.org/2000/svg">
<path d="M21.9656 6.54336C21.8795 6.19773 21.7108 5.87814 21.474 5.612C21.2373 5.34585 20.9395 5.14108 20.6063 5.01524C17.4 3.77774 12.2812 3.78711 12 3.78711C11.7188 3.78711 6.6 3.77774 3.39375 5.01524C3.06051 5.14108 2.76275 5.34585 2.52599 5.612C2.28923 5.87814 2.12054 6.19773 2.03438 6.54336C1.79063 7.47149 1.5 9.17774 1.5 11.9996C1.5 14.8215 1.79063 16.5277 2.03438 17.4559C2.12054 17.8015 2.28923 18.1211 2.52599 18.3872C2.76275 18.6534 3.06051 18.8581 3.39375 18.984C6.46875 20.1746 11.2875 20.2121 11.9344 20.2121H12.0656C12.7125 20.2121 17.5312 20.1746 20.6063 18.984C20.9395 18.8581 21.2373 18.6534 21.474 18.3872C21.7108 18.1211 21.8795 17.8015 21.9656 17.4559C22.2094 16.5277 22.5 14.8215 22.5 11.9996C22.5 9.17774 22.2094 7.47149 21.9656 6.54336ZM15.2062 12.309L10.7062 15.309C10.6466 15.3529 10.5741 15.376 10.5 15.3746C10.4379 15.3723 10.3771 15.3563 10.3219 15.3277C10.262 15.2966 10.2118 15.2494 10.1771 15.1915C10.1423 15.1336 10.1243 15.0672 10.125 14.9996V8.99961C10.1243 8.93207 10.1423 8.86566 10.1771 8.80774C10.2118 8.74982 10.262 8.70266 10.3219 8.67149C10.3817 8.63959 10.449 8.62449 10.5167 8.6278C10.5843 8.6311 10.6499 8.65268 10.7062 8.69024L15.2062 11.6902C15.2585 11.7232 15.3016 11.7688 15.3315 11.8229C15.3614 11.877 15.377 11.9378 15.377 11.9996C15.377 12.0614 15.3614 12.1222 15.3315 12.1763C15.3016 12.2304 15.2585 12.2761 15.2062 12.309Z" fill="#3D3331"/>
</svg>
